<?xml version="1.0" encoding="UTF-8" standalone="no"?>
<!DOCTYPE svg PUBLIC "-//W3C//DTD SVG 1.1//EN"
 "http://www.w3.org/Graphics/SVG/1.1/DTD/svg11.dtd">
<!-- Generated by graphviz version 2.26.3 (20100126.1600)
 -->
<!-- Title: prtx::CGB Pages: 1 -->
<svg width="82pt" height="146pt"
 viewBox="0.00 0.00 82.00 146.00" xmlns="http://www.w3.org/2000/svg" xmlns:xlink="http://www.w3.org/1999/xlink">
<g id="graph1" class="graph" transform="scale(1 1) rotate(0) translate(4 142)">
<title>prtx::CGB</title>
<!-- Node1 -->
<g id="node1" class="node"><title>Node1</title>
<polygon fill="#bfbfbf" stroke="black" points="6.5,-1 6.5,-21 67.5,-21 67.5,-1 6.5,-1"/>
<text text-anchor="middle" x="37" y="-8" font-family="Helvetica,sans-Serif" font-size="10.00">prtx::CGB</text>
</g>
<!-- Node2 -->
<g id="node2" class="node"><title>Node2</title>
<a xlink:href="classprtx_1_1_content.html" target="_top" xlink:title="prtx::Content">
<polygon fill="none" stroke="black" points="0,-59 0,-79 74,-79 74,-59 0,-59"/>
<text text-anchor="middle" x="37" y="-66" font-family="Helvetica,sans-Serif" font-size="10.00">prtx::Content</text>
</a>
</g>
<!-- Node2&#45;&gt;Node1 -->
<g id="edge2" class="edge"><title>Node2&#45;&gt;Node1</title>
<path fill="none" stroke="midnightblue" d="M37,-48.8902C37,-39.6201 37,-29.0083 37,-21.3776"/>
<polygon fill="midnightblue" stroke="midnightblue" points="33.5001,-48.8971 37,-58.8972 40.5001,-48.8972 33.5001,-48.8971"/>
</g>
<!-- Node3 -->
<g id="node4" class="node"><title>Node3</title>
<polygon fill="none" stroke="#bfbfbf" points="0.5,-117 0.5,-137 73.5,-137 73.5,-117 0.5,-117"/>
<text text-anchor="middle" x="37" y="-124" font-family="Helvetica,sans-Serif" font-size="10.00">noncopyable</text>
</g>
<!-- Node3&#45;&gt;Node2 -->
<g id="edge4" class="edge"><title>Node3&#45;&gt;Node2</title>
<path fill="none" stroke="#8b1a1a" d="M37,-106.89C37,-97.6201 37,-87.0083 37,-79.3776"/>
<polygon fill="#8b1a1a" stroke="#8b1a1a" points="33.5001,-106.897 37,-116.897 40.5001,-106.897 33.5001,-106.897"/>
</g>
</g>
</svg>
