<?xml version="1.0" encoding="UTF-8" standalone="no"?>
<!DOCTYPE svg PUBLIC "-//W3C//DTD SVG 1.1//EN"
 "http://www.w3.org/Graphics/SVG/1.1/DTD/svg11.dtd">
<!-- Generated by graphviz version 2.26.3 (20100126.1600)
 -->
<!-- Title: prtx::ShaderBuilder Pages: 1 -->
<svg width="128pt" height="216pt"
 viewBox="0.00 0.00 128.00 216.00" xmlns="http://www.w3.org/2000/svg" xmlns:xlink="http://www.w3.org/1999/xlink">
<g id="graph1" class="graph" transform="scale(1 1) rotate(0) translate(4 212)">
<title>prtx::ShaderBuilder</title>
<!-- Node1 -->
<g id="node1" class="node"><title>Node1</title>
<polygon fill="#bfbfbf" stroke="black" points="8.5,-1 8.5,-21 111.5,-21 111.5,-1 8.5,-1"/>
<text text-anchor="middle" x="60" y="-8" font-family="Helvetica,sans-Serif" font-size="10.00">prtx::ShaderBuilder</text>
</g>
<!-- Node2 -->
<g id="node2" class="node"><title>Node2</title>
<a xlink:href="classprtx_1_1_p_r_t_x_builder.html" target="_top" xlink:title="prtx::PRTXBuilder\&lt;\l Shader \&gt;">
<polygon fill="none" stroke="black" points="8.5,-59 8.5,-91 111.5,-91 111.5,-59 8.5,-59"/>
<text text-anchor="start" x="16.5" y="-78" font-family="Helvetica,sans-Serif" font-size="10.00">prtx::PRTXBuilder&lt;</text>
<text text-anchor="middle" x="60" y="-66" font-family="Helvetica,sans-Serif" font-size="10.00"> Shader &gt;</text>
</a>
</g>
<!-- Node2&#45;&gt;Node1 -->
<g id="edge2" class="edge"><title>Node2&#45;&gt;Node1</title>
<path fill="none" stroke="midnightblue" d="M60,-48.7639C60,-39.0394 60,-28.5805 60,-21.141"/>
<polygon fill="midnightblue" stroke="midnightblue" points="56.5001,-48.8501 60,-58.8501 63.5001,-48.8501 56.5001,-48.8501"/>
</g>
<!-- Node3 -->
<g id="node4" class="node"><title>Node3</title>
<a xlink:href="classprtx_1_1_builder.html" target="_top" xlink:title="prtx::Builder\&lt; Shader \&gt;">
<polygon fill="none" stroke="black" points="0,-129 0,-149 120,-149 120,-129 0,-129"/>
<text text-anchor="middle" x="60" y="-136" font-family="Helvetica,sans-Serif" font-size="10.00">prtx::Builder&lt; Shader &gt;</text>
</a>
</g>
<!-- Node3&#45;&gt;Node2 -->
<g id="edge4" class="edge"><title>Node3&#45;&gt;Node2</title>
<path fill="none" stroke="midnightblue" d="M60,-118.435C60,-109.549 60,-99.3101 60,-91.0054"/>
<polygon fill="midnightblue" stroke="midnightblue" points="56.5001,-118.717 60,-128.717 63.5001,-118.717 56.5001,-118.717"/>
</g>
<!-- Node4 -->
<g id="node6" class="node"><title>Node4</title>
<polygon fill="none" stroke="#bfbfbf" points="23.5,-187 23.5,-207 96.5,-207 96.5,-187 23.5,-187"/>
<text text-anchor="middle" x="60" y="-194" font-family="Helvetica,sans-Serif" font-size="10.00">noncopyable</text>
</g>
<!-- Node4&#45;&gt;Node3 -->
<g id="edge6" class="edge"><title>Node4&#45;&gt;Node3</title>
<path fill="none" stroke="#8b1a1a" d="M60,-176.89C60,-167.62 60,-157.008 60,-149.378"/>
<polygon fill="#8b1a1a" stroke="#8b1a1a" points="56.5001,-176.897 60,-186.897 63.5001,-176.897 56.5001,-176.897"/>
</g>
</g>
</svg>
