<?xml version="1.0" encoding="UTF-8" standalone="no"?>
<!DOCTYPE svg PUBLIC "-//W3C//DTD SVG 1.1//EN"
 "http://www.w3.org/Graphics/SVG/1.1/DTD/svg11.dtd">
<!-- Generated by graphviz version 2.26.3 (20100126.1600)
 -->
<!-- Title: prtx::Decoder Pages: 1 -->
<svg width="474pt" height="180pt"
 viewBox="0.00 0.00 474.00 180.00" xmlns="http://www.w3.org/2000/svg" xmlns:xlink="http://www.w3.org/1999/xlink">
<g id="graph1" class="graph" transform="scale(1 1) rotate(0) translate(4 176)">
<title>prtx::Decoder</title>
<!-- Node1 -->
<g id="node1" class="node"><title>Node1</title>
<polygon fill="#bfbfbf" stroke="black" points="230.5,-76 230.5,-96 307.5,-96 307.5,-76 230.5,-76"/>
<text text-anchor="middle" x="269" y="-83" font-family="Helvetica,sans-Serif" font-size="10.00">prtx::Decoder</text>
</g>
<!-- Node4 -->
<g id="node7" class="node"><title>Node4</title>
<a xlink:href="classprtx_1_1_c_g_b_decoder.html" target="_top" xlink:title="prtx::CGBDecoder">
<polygon fill="none" stroke="black" points="355.5,-152 355.5,-172 454.5,-172 454.5,-152 355.5,-152"/>
<text text-anchor="middle" x="405" y="-159" font-family="Helvetica,sans-Serif" font-size="10.00">prtx::CGBDecoder</text>
</a>
</g>
<!-- Node1&#45;&gt;Node4 -->
<g id="edge6" class="edge"><title>Node1&#45;&gt;Node4</title>
<path fill="none" stroke="midnightblue" d="M287.551,-103.046C302.017,-115.575 323.098,-132.227 344,-143 350.704,-146.456 358.151,-149.416 365.473,-151.901"/>
<polygon fill="midnightblue" stroke="midnightblue" points="289.655,-100.234 279.849,-96.2208 285.012,-105.473 289.655,-100.234"/>
</g>
<!-- Node5 -->
<g id="node9" class="node"><title>Node5</title>
<a xlink:href="classprtx_1_1_geometry_decoder.html" target="_top" xlink:title="prtx::GeometryDecoder">
<polygon fill="none" stroke="black" points="344.5,-114 344.5,-134 465.5,-134 465.5,-114 344.5,-114"/>
<text text-anchor="middle" x="405" y="-121" font-family="Helvetica,sans-Serif" font-size="10.00">prtx::GeometryDecoder</text>
</a>
</g>
<!-- Node1&#45;&gt;Node5 -->
<g id="edge8" class="edge"><title>Node1&#45;&gt;Node5</title>
<path fill="none" stroke="midnightblue" d="M315.103,-98.8817C332.606,-103.772 352.275,-109.268 368.743,-113.869"/>
<polygon fill="midnightblue" stroke="midnightblue" points="315.661,-95.4038 305.088,-96.0835 313.778,-102.146 315.661,-95.4038"/>
</g>
<!-- Node6 -->
<g id="node11" class="node"><title>Node6</title>
<a xlink:href="classprtx_1_1_material_decoder.html" target="_top" xlink:title="prtx::MaterialDecoder">
<polygon fill="none" stroke="black" points="349,-76 349,-96 461,-96 461,-76 349,-76"/>
<text text-anchor="middle" x="405" y="-83" font-family="Helvetica,sans-Serif" font-size="10.00">prtx::MaterialDecoder</text>
</a>
</g>
<!-- Node1&#45;&gt;Node6 -->
<g id="edge10" class="edge"><title>Node1&#45;&gt;Node6</title>
<path fill="none" stroke="midnightblue" d="M317.811,-86C327.852,-86 338.5,-86 348.779,-86"/>
<polygon fill="midnightblue" stroke="midnightblue" points="317.608,-82.5001 307.608,-86 317.608,-89.5001 317.608,-82.5001"/>
</g>
<!-- Node7 -->
<g id="node13" class="node"><title>Node7</title>
<a xlink:href="classprtx_1_1_shader_decoder.html" target="_top" xlink:title="prtx::ShaderDecoder">
<polygon fill="none" stroke="black" points="350.5,-38 350.5,-58 459.5,-58 459.5,-38 350.5,-38"/>
<text text-anchor="middle" x="405" y="-45" font-family="Helvetica,sans-Serif" font-size="10.00">prtx::ShaderDecoder</text>
</a>
</g>
<!-- Node1&#45;&gt;Node7 -->
<g id="edge12" class="edge"><title>Node1&#45;&gt;Node7</title>
<path fill="none" stroke="midnightblue" d="M315.103,-73.1183C332.606,-68.2278 352.275,-62.7319 368.743,-58.1307"/>
<polygon fill="midnightblue" stroke="midnightblue" points="313.778,-69.8545 305.088,-75.9165 315.661,-76.5962 313.778,-69.8545"/>
</g>
<!-- Node8 -->
<g id="node15" class="node"><title>Node8</title>
<a xlink:href="classprtx_1_1_texture_decoder.html" target="_top" xlink:title="prtx::TextureDecoder">
<polygon fill="none" stroke="black" points="350,-0 350,-20 460,-20 460,-0 350,-0"/>
<text text-anchor="middle" x="405" y="-7" font-family="Helvetica,sans-Serif" font-size="10.00">prtx::TextureDecoder</text>
</a>
</g>
<!-- Node1&#45;&gt;Node8 -->
<g id="edge14" class="edge"><title>Node1&#45;&gt;Node8</title>
<path fill="none" stroke="midnightblue" d="M287.551,-68.9544C302.017,-56.4254 323.098,-39.7732 344,-29 350.704,-25.5444 358.151,-22.5839 365.473,-20.0995"/>
<polygon fill="midnightblue" stroke="midnightblue" points="285.012,-66.5274 279.849,-75.7792 289.655,-71.7664 285.012,-66.5274"/>
</g>
<!-- Node2 -->
<g id="node2" class="node"><title>Node2</title>
<a xlink:href="classprtx_1_1_extension.html" target="_top" xlink:title="prtx::Extension">
<polygon fill="none" stroke="black" points="110.5,-76 110.5,-96 193.5,-96 193.5,-76 110.5,-76"/>
<text text-anchor="middle" x="152" y="-83" font-family="Helvetica,sans-Serif" font-size="10.00">prtx::Extension</text>
</a>
</g>
<!-- Node2&#45;&gt;Node1 -->
<g id="edge2" class="edge"><title>Node2&#45;&gt;Node1</title>
<path fill="none" stroke="midnightblue" d="M203.86,-86C212.742,-86 221.83,-86 230.292,-86"/>
<polygon fill="midnightblue" stroke="midnightblue" points="203.579,-82.5001 193.579,-86 203.579,-89.5001 203.579,-82.5001"/>
</g>
<!-- Node3 -->
<g id="node4" class="node"><title>Node3</title>
<polygon fill="none" stroke="#bfbfbf" points="0.5,-76 0.5,-96 73.5,-96 73.5,-76 0.5,-76"/>
<text text-anchor="middle" x="37" y="-83" font-family="Helvetica,sans-Serif" font-size="10.00">noncopyable</text>
</g>
<!-- Node3&#45;&gt;Node2 -->
<g id="edge4" class="edge"><title>Node3&#45;&gt;Node2</title>
<path fill="none" stroke="#8b1a1a" d="M83.8383,-86C92.6521,-86 101.812,-86 110.451,-86"/>
<polygon fill="#8b1a1a" stroke="#8b1a1a" points="83.7029,-82.5001 73.7029,-86 83.7029,-89.5001 83.7029,-82.5001"/>
</g>
</g>
</svg>
