<?xml version="1.0" encoding="UTF-8" standalone="no"?>
<!DOCTYPE svg PUBLIC "-//W3C//DTD SVG 1.1//EN"
 "http://www.w3.org/Graphics/SVG/1.1/DTD/svg11.dtd">
<!-- Generated by graphviz version 2.26.3 (20100126.1600)
 -->
<!-- Title: prtx::Adaptor Pages: 1 -->
<svg width="114pt" height="204pt"
 viewBox="0.00 0.00 114.00 204.00" xmlns="http://www.w3.org/2000/svg" xmlns:xlink="http://www.w3.org/1999/xlink">
<g id="graph1" class="graph" transform="scale(1 1) rotate(0) translate(4 200)">
<title>prtx::Adaptor</title>
<!-- Node1 -->
<g id="node1" class="node"><title>Node1</title>
<polygon fill="#bfbfbf" stroke="black" points="16,-59 16,-79 90,-79 90,-59 16,-59"/>
<text text-anchor="middle" x="53" y="-66" font-family="Helvetica,sans-Serif" font-size="10.00">prtx::Adaptor</text>
</g>
<!-- Node4 -->
<g id="node7" class="node"><title>Node4</title>
<a xlink:href="classprtx_1_1_stream_adaptor.html" target="_top" xlink:title="prtx::StreamAdaptor">
<polygon fill="none" stroke="black" points="-0.5,-1 -0.5,-21 106.5,-21 106.5,-1 -0.5,-1"/>
<text text-anchor="middle" x="53" y="-8" font-family="Helvetica,sans-Serif" font-size="10.00">prtx::StreamAdaptor</text>
</a>
</g>
<!-- Node1&#45;&gt;Node4 -->
<g id="edge6" class="edge"><title>Node1&#45;&gt;Node4</title>
<path fill="none" stroke="midnightblue" d="M53,-48.8902C53,-39.6201 53,-29.0083 53,-21.3776"/>
<polygon fill="midnightblue" stroke="midnightblue" points="49.5001,-48.8971 53,-58.8972 56.5001,-48.8972 49.5001,-48.8971"/>
</g>
<!-- Node2 -->
<g id="node2" class="node"><title>Node2</title>
<a xlink:href="classprtx_1_1_extension.html" target="_top" xlink:title="prtx::Extension">
<polygon fill="none" stroke="black" points="11.5,-117 11.5,-137 94.5,-137 94.5,-117 11.5,-117"/>
<text text-anchor="middle" x="53" y="-124" font-family="Helvetica,sans-Serif" font-size="10.00">prtx::Extension</text>
</a>
</g>
<!-- Node2&#45;&gt;Node1 -->
<g id="edge2" class="edge"><title>Node2&#45;&gt;Node1</title>
<path fill="none" stroke="midnightblue" d="M53,-106.89C53,-97.6201 53,-87.0083 53,-79.3776"/>
<polygon fill="midnightblue" stroke="midnightblue" points="49.5001,-106.897 53,-116.897 56.5001,-106.897 49.5001,-106.897"/>
</g>
<!-- Node3 -->
<g id="node4" class="node"><title>Node3</title>
<polygon fill="none" stroke="#bfbfbf" points="16.5,-175 16.5,-195 89.5,-195 89.5,-175 16.5,-175"/>
<text text-anchor="middle" x="53" y="-182" font-family="Helvetica,sans-Serif" font-size="10.00">noncopyable</text>
</g>
<!-- Node3&#45;&gt;Node2 -->
<g id="edge4" class="edge"><title>Node3&#45;&gt;Node2</title>
<path fill="none" stroke="#8b1a1a" d="M53,-164.89C53,-155.62 53,-145.008 53,-137.378"/>
<polygon fill="#8b1a1a" stroke="#8b1a1a" points="49.5001,-164.897 53,-174.897 56.5001,-164.897 49.5001,-164.897"/>
</g>
</g>
</svg>
