<?xml version="1.0" encoding="UTF-8" standalone="no"?>
<!DOCTYPE svg PUBLIC "-//W3C//DTD SVG 1.1//EN"
 "http://www.w3.org/Graphics/SVG/1.1/DTD/svg11.dtd">
<!-- Generated by graphviz version 2.26.3 (20100126.1600)
 -->
<!-- Title: prt::Callbacks Pages: 1 -->
<svg width="292pt" height="146pt"
 viewBox="0.00 0.00 292.00 146.00" xmlns="http://www.w3.org/2000/svg" xmlns:xlink="http://www.w3.org/1999/xlink">
<g id="graph1" class="graph" transform="scale(1 1) rotate(0) translate(4 142)">
<title>prt::Callbacks</title>
<!-- Node1 -->
<g id="node1" class="node"><title>Node1</title>
<polygon fill="#bfbfbf" stroke="black" points="97.5,-117 97.5,-137 174.5,-137 174.5,-117 97.5,-117"/>
<text text-anchor="middle" x="136" y="-124" font-family="Helvetica,sans-Serif" font-size="10.00">prt::Callbacks</text>
</g>
<!-- Node2 -->
<g id="node3" class="node"><title>Node2</title>
<a xlink:href="classprt_1_1_simple_output_callbacks.html" target="_top" xlink:title="prt::SimpleOutputCallbacks">
<polygon fill="none" stroke="black" points="67,-59 67,-79 205,-79 205,-59 67,-59"/>
<text text-anchor="middle" x="136" y="-66" font-family="Helvetica,sans-Serif" font-size="10.00">prt::SimpleOutputCallbacks</text>
</a>
</g>
<!-- Node1&#45;&gt;Node2 -->
<g id="edge2" class="edge"><title>Node1&#45;&gt;Node2</title>
<path fill="none" stroke="midnightblue" d="M136,-106.89C136,-97.6201 136,-87.0083 136,-79.3776"/>
<polygon fill="midnightblue" stroke="midnightblue" points="132.5,-106.897 136,-116.897 139.5,-106.897 132.5,-106.897"/>
</g>
<!-- Node3 -->
<g id="node5" class="node"><title>Node3</title>
<a xlink:href="classprt_1_1_file_output_callbacks.html" target="_top" xlink:title="prt::FileOutputCallbacks">
<polygon fill="none" stroke="black" points="-0.5,-1 -0.5,-21 122.5,-21 122.5,-1 -0.5,-1"/>
<text text-anchor="middle" x="61" y="-8" font-family="Helvetica,sans-Serif" font-size="10.00">prt::FileOutputCallbacks</text>
</a>
</g>
<!-- Node2&#45;&gt;Node3 -->
<g id="edge4" class="edge"><title>Node2&#45;&gt;Node3</title>
<path fill="none" stroke="midnightblue" d="M114.905,-52.6866C101.822,-42.5689 85.4205,-29.8852 74.1659,-21.1817"/>
<polygon fill="midnightblue" stroke="midnightblue" points="112.884,-55.5483 122.936,-58.8972 117.167,-50.011 112.884,-55.5483"/>
</g>
<!-- Node4 -->
<g id="node7" class="node"><title>Node4</title>
<a xlink:href="classprt_1_1_memory_output_callbacks.html" target="_top" xlink:title="prt::MemoryOutputCallbacks">
<polygon fill="none" stroke="black" points="140,-1 140,-21 284,-21 284,-1 140,-1"/>
<text text-anchor="middle" x="212" y="-8" font-family="Helvetica,sans-Serif" font-size="10.00">prt::MemoryOutputCallbacks</text>
</a>
</g>
<!-- Node2&#45;&gt;Node4 -->
<g id="edge6" class="edge"><title>Node2&#45;&gt;Node4</title>
<path fill="none" stroke="midnightblue" d="M157.376,-52.6866C170.634,-42.5689 187.254,-29.8852 198.659,-21.1817"/>
<polygon fill="midnightblue" stroke="midnightblue" points="155.064,-50.0481 149.238,-58.8972 159.311,-55.6127 155.064,-50.0481"/>
</g>
</g>
</svg>
