<?xml version="1.0" encoding="UTF-8" standalone="no"?>
<!DOCTYPE svg PUBLIC "-//W3C//DTD SVG 1.1//EN"
 "http://www.w3.org/Graphics/SVG/1.1/DTD/svg11.dtd">
<!-- Generated by graphviz version 2.26.3 (20100126.1600)
 -->
<!-- Title: prt::ResolveMap Pages: 1 -->
<svg width="172pt" height="146pt"
 viewBox="0.00 0.00 172.00 146.00" xmlns="http://www.w3.org/2000/svg" xmlns:xlink="http://www.w3.org/1999/xlink">
<g id="graph1" class="graph" transform="scale(1 1) rotate(0) translate(4 142)">
<title>prt::ResolveMap</title>
<!-- Node1 -->
<g id="node1" class="node"><title>Node1</title>
<polygon fill="#bfbfbf" stroke="black" points="42.5,-59 42.5,-79 131.5,-79 131.5,-59 42.5,-59"/>
<text text-anchor="middle" x="87" y="-66" font-family="Helvetica,sans-Serif" font-size="10.00">prt::ResolveMap</text>
</g>
<!-- Node4 -->
<g id="node7" class="node"><title>Node4</title>
<a xlink:href="classprtx_1_1_resolve_map.html" target="_top" xlink:title="prtx::ResolveMap">
<polygon fill="none" stroke="black" points="39.5,-1 39.5,-21 134.5,-21 134.5,-1 39.5,-1"/>
<text text-anchor="middle" x="87" y="-8" font-family="Helvetica,sans-Serif" font-size="10.00">prtx::ResolveMap</text>
</a>
</g>
<!-- Node1&#45;&gt;Node4 -->
<g id="edge6" class="edge"><title>Node1&#45;&gt;Node4</title>
<path fill="none" stroke="midnightblue" d="M87,-48.8902C87,-39.6201 87,-29.0083 87,-21.3776"/>
<polygon fill="midnightblue" stroke="midnightblue" points="83.5001,-48.8971 87,-58.8972 90.5001,-48.8972 83.5001,-48.8971"/>
</g>
<!-- Node2 -->
<g id="node2" class="node"><title>Node2</title>
<a xlink:href="classprt_1_1_attributable.html" target="_top" xlink:title="prt::Attributable">
<polygon fill="none" stroke="black" points="-0.5,-117 -0.5,-137 84.5,-137 84.5,-117 -0.5,-117"/>
<text text-anchor="middle" x="42" y="-124" font-family="Helvetica,sans-Serif" font-size="10.00">prt::Attributable</text>
</a>
</g>
<!-- Node2&#45;&gt;Node1 -->
<g id="edge2" class="edge"><title>Node2&#45;&gt;Node1</title>
<path fill="none" stroke="midnightblue" d="M55.9803,-108.981C63.5285,-99.2522 72.5776,-87.5889 78.9484,-79.3776"/>
<polygon fill="midnightblue" stroke="midnightblue" points="53.2031,-106.851 49.8384,-116.897 58.7337,-111.142 53.2031,-106.851"/>
</g>
<!-- Node3 -->
<g id="node4" class="node"><title>Node3</title>
<a xlink:href="classprt_1_1_object.html" target="_top" xlink:title="prt::Object">
<polygon fill="none" stroke="black" points="101.5,-117 101.5,-137 164.5,-137 164.5,-117 101.5,-117"/>
<text text-anchor="middle" x="133" y="-124" font-family="Helvetica,sans-Serif" font-size="10.00">prt::Object</text>
</a>
</g>
<!-- Node3&#45;&gt;Node1 -->
<g id="edge4" class="edge"><title>Node3&#45;&gt;Node1</title>
<path fill="none" stroke="midnightblue" d="M118.709,-108.981C110.993,-99.2522 101.743,-87.5889 95.2305,-79.3776"/>
<polygon fill="midnightblue" stroke="midnightblue" points="116.031,-111.237 124.987,-116.897 121.516,-106.887 116.031,-111.237"/>
</g>
</g>
</svg>
