<?xml version="1.0" encoding="UTF-8" standalone="no"?>
<!DOCTYPE svg PUBLIC "-//W3C//DTD SVG 1.1//EN"
 "http://www.w3.org/Graphics/SVG/1.1/DTD/svg11.dtd">
<!-- Generated by graphviz version 2.26.3 (20100126.1600)
 -->
<!-- Title: prtx::ExtensionFactory Pages: 1 -->
<svg width="372pt" height="146pt"
 viewBox="0.00 0.00 372.00 146.00" xmlns="http://www.w3.org/2000/svg" xmlns:xlink="http://www.w3.org/1999/xlink">
<g id="graph1" class="graph" transform="scale(1 1) rotate(0) translate(4 142)">
<title>prtx::ExtensionFactory</title>
<!-- Node1 -->
<g id="node1" class="node"><title>Node1</title>
<polygon fill="#bfbfbf" stroke="black" points="123,-59 123,-79 239,-79 239,-59 123,-59"/>
<text text-anchor="middle" x="181" y="-66" font-family="Helvetica,sans-Serif" font-size="10.00">prtx::ExtensionFactory</text>
</g>
<!-- Node3 -->
<g id="node5" class="node"><title>Node3</title>
<a xlink:href="classprtx_1_1_adaptor_factory.html" target="_top" xlink:title="prtx::AdaptorFactory">
<polygon fill="none" stroke="black" points="0,-1 0,-21 108,-21 108,-1 0,-1"/>
<text text-anchor="middle" x="54" y="-8" font-family="Helvetica,sans-Serif" font-size="10.00">prtx::AdaptorFactory</text>
</a>
</g>
<!-- Node1&#45;&gt;Node3 -->
<g id="edge4" class="edge"><title>Node1&#45;&gt;Node3</title>
<path fill="none" stroke="midnightblue" d="M149.631,-54.674C126.867,-44.2778 96.6226,-30.4654 76.2943,-21.1817"/>
<polygon fill="midnightblue" stroke="midnightblue" points="148.328,-57.9266 158.878,-58.8972 151.236,-51.5592 148.328,-57.9266"/>
</g>
<!-- Node4 -->
<g id="node7" class="node"><title>Node4</title>
<a xlink:href="classprtx_1_1_decoder_factory.html" target="_top" xlink:title="prtx::DecoderFactory">
<polygon fill="none" stroke="black" points="126,-1 126,-21 236,-21 236,-1 126,-1"/>
<text text-anchor="middle" x="181" y="-8" font-family="Helvetica,sans-Serif" font-size="10.00">prtx::DecoderFactory</text>
</a>
</g>
<!-- Node1&#45;&gt;Node4 -->
<g id="edge6" class="edge"><title>Node1&#45;&gt;Node4</title>
<path fill="none" stroke="midnightblue" d="M181,-48.8902C181,-39.6201 181,-29.0083 181,-21.3776"/>
<polygon fill="midnightblue" stroke="midnightblue" points="177.5,-48.8971 181,-58.8972 184.5,-48.8972 177.5,-48.8971"/>
</g>
<!-- Node5 -->
<g id="node9" class="node"><title>Node5</title>
<a xlink:href="classprtx_1_1_encoder_factory.html" target="_top" xlink:title="prtx::EncoderFactory">
<polygon fill="none" stroke="black" points="254,-1 254,-21 364,-21 364,-1 254,-1"/>
<text text-anchor="middle" x="309" y="-8" font-family="Helvetica,sans-Serif" font-size="10.00">prtx::EncoderFactory</text>
</a>
</g>
<!-- Node1&#45;&gt;Node5 -->
<g id="edge8" class="edge"><title>Node1&#45;&gt;Node5</title>
<path fill="none" stroke="midnightblue" d="M212.616,-54.674C235.559,-44.2778 266.042,-30.4654 286.53,-21.1817"/>
<polygon fill="midnightblue" stroke="midnightblue" points="210.96,-51.5818 203.296,-58.8972 213.849,-57.9578 210.96,-51.5818"/>
</g>
<!-- Node2 -->
<g id="node2" class="node"><title>Node2</title>
<polygon fill="none" stroke="#bfbfbf" points="144.5,-117 144.5,-137 217.5,-137 217.5,-117 144.5,-117"/>
<text text-anchor="middle" x="181" y="-124" font-family="Helvetica,sans-Serif" font-size="10.00">noncopyable</text>
</g>
<!-- Node2&#45;&gt;Node1 -->
<g id="edge2" class="edge"><title>Node2&#45;&gt;Node1</title>
<path fill="none" stroke="#8b1a1a" d="M181,-106.89C181,-97.6201 181,-87.0083 181,-79.3776"/>
<polygon fill="#8b1a1a" stroke="#8b1a1a" points="177.5,-106.897 181,-116.897 184.5,-106.897 177.5,-106.897"/>
</g>
</g>
</svg>
