<?xml version="1.0" encoding="UTF-8" standalone="no"?>
<!DOCTYPE svg PUBLIC "-//W3C//DTD SVG 1.1//EN"
 "http://www.w3.org/Graphics/SVG/1.1/DTD/svg11.dtd">
<!-- Generated by graphviz version 2.26.3 (20100126.1600)
 -->
<!-- Title: prtx::PRTXBuilder&lt; C &gt; Pages: 1 -->
<svg width="128pt" height="146pt"
 viewBox="0.00 0.00 128.00 146.00" xmlns="http://www.w3.org/2000/svg" xmlns:xlink="http://www.w3.org/1999/xlink">
<g id="graph1" class="graph" transform="scale(1 1) rotate(0) translate(4 142)">
<title>prtx::PRTXBuilder&lt; C &gt;</title>
<!-- Node1 -->
<g id="node1" class="node"><title>Node1</title>
<polygon fill="#bfbfbf" stroke="black" points="-0.5,-1 -0.5,-21 120.5,-21 120.5,-1 -0.5,-1"/>
<text text-anchor="middle" x="60" y="-8" font-family="Helvetica,sans-Serif" font-size="10.00">prtx::PRTXBuilder&lt; C &gt;</text>
</g>
<!-- Node2 -->
<g id="node2" class="node"><title>Node2</title>
<a xlink:href="classprtx_1_1_builder.html" target="_top" xlink:title="prtx::Builder\&lt; C \&gt;">
<polygon fill="none" stroke="black" points="12.5,-59 12.5,-79 107.5,-79 107.5,-59 12.5,-59"/>
<text text-anchor="middle" x="60" y="-66" font-family="Helvetica,sans-Serif" font-size="10.00">prtx::Builder&lt; C &gt;</text>
</a>
</g>
<!-- Node2&#45;&gt;Node1 -->
<g id="edge2" class="edge"><title>Node2&#45;&gt;Node1</title>
<path fill="none" stroke="midnightblue" d="M60,-48.8902C60,-39.6201 60,-29.0083 60,-21.3776"/>
<polygon fill="midnightblue" stroke="midnightblue" points="56.5001,-48.8971 60,-58.8972 63.5001,-48.8972 56.5001,-48.8971"/>
</g>
<!-- Node3 -->
<g id="node4" class="node"><title>Node3</title>
<polygon fill="none" stroke="#bfbfbf" points="23.5,-117 23.5,-137 96.5,-137 96.5,-117 23.5,-117"/>
<text text-anchor="middle" x="60" y="-124" font-family="Helvetica,sans-Serif" font-size="10.00">noncopyable</text>
</g>
<!-- Node3&#45;&gt;Node2 -->
<g id="edge4" class="edge"><title>Node3&#45;&gt;Node2</title>
<path fill="none" stroke="#8b1a1a" d="M60,-106.89C60,-97.6201 60,-87.0083 60,-79.3776"/>
<polygon fill="#8b1a1a" stroke="#8b1a1a" points="56.5001,-106.897 60,-116.897 63.5001,-106.897 56.5001,-106.897"/>
</g>
</g>
</svg>
