<?xml version="1.0" encoding="UTF-8" standalone="no"?>
<!DOCTYPE svg PUBLIC "-//W3C//DTD SVG 1.1//EN"
 "http://www.w3.org/Graphics/SVG/1.1/DTD/svg11.dtd">
<!-- Generated by graphviz version 2.26.3 (20100126.1600)
 -->
<!-- Title: prt::LogHandler Pages: 1 -->
<svg width="248pt" height="88pt"
 viewBox="0.00 0.00 248.00 88.00" xmlns="http://www.w3.org/2000/svg" xmlns:xlink="http://www.w3.org/1999/xlink">
<g id="graph1" class="graph" transform="scale(1 1) rotate(0) translate(4 84)">
<title>prt::LogHandler</title>
<!-- Node1 -->
<g id="node1" class="node"><title>Node1</title>
<polygon fill="#bfbfbf" stroke="black" points="82,-59 82,-79 168,-79 168,-59 82,-59"/>
<text text-anchor="middle" x="125" y="-66" font-family="Helvetica,sans-Serif" font-size="10.00">prt::LogHandler</text>
</g>
<!-- Node2 -->
<g id="node3" class="node"><title>Node2</title>
<a xlink:href="classprt_1_1_console_log_handler.html" target="_top" xlink:title="prt::ConsoleLogHandler">
<polygon fill="none" stroke="black" points="0,-1 0,-21 122,-21 122,-1 0,-1"/>
<text text-anchor="middle" x="61" y="-8" font-family="Helvetica,sans-Serif" font-size="10.00">prt::ConsoleLogHandler</text>
</a>
</g>
<!-- Node1&#45;&gt;Node2 -->
<g id="edge2" class="edge"><title>Node1&#45;&gt;Node2</title>
<path fill="none" stroke="midnightblue" d="M106.407,-52.1504C95.428,-42.2003 81.878,-29.9207 72.4511,-21.3776"/>
<polygon fill="midnightblue" stroke="midnightblue" points="104.092,-54.7754 113.852,-58.8972 108.792,-49.5885 104.092,-54.7754"/>
</g>
<!-- Node3 -->
<g id="node5" class="node"><title>Node3</title>
<a xlink:href="classprt_1_1_file_log_handler.html" target="_top" xlink:title="prt::FileLogHandler">
<polygon fill="none" stroke="black" points="139.5,-1 139.5,-21 240.5,-21 240.5,-1 139.5,-1"/>
<text text-anchor="middle" x="190" y="-8" font-family="Helvetica,sans-Serif" font-size="10.00">prt::FileLogHandler</text>
</a>
</g>
<!-- Node1&#45;&gt;Node3 -->
<g id="edge4" class="edge"><title>Node1&#45;&gt;Node3</title>
<path fill="none" stroke="midnightblue" d="M143.883,-52.1504C155.034,-42.2003 168.796,-29.9207 178.37,-21.3776"/>
<polygon fill="midnightblue" stroke="midnightblue" points="141.453,-49.6278 136.322,-58.8972 146.114,-54.8508 141.453,-49.6278"/>
</g>
</g>
</svg>
