<?xml version="1.0" encoding="UTF-8" standalone="no"?>
<!DOCTYPE svg PUBLIC "-//W3C//DTD SVG 1.1//EN"
 "http://www.w3.org/Graphics/SVG/1.1/DTD/svg11.dtd">
<!-- Generated by graphviz version 2.26.3 (20100126.1600)
 -->
<!-- Title: prtx::Extension Pages: 1 -->
<svg width="474pt" height="332pt"
 viewBox="0.00 0.00 474.00 332.00" xmlns="http://www.w3.org/2000/svg" xmlns:xlink="http://www.w3.org/1999/xlink">
<g id="graph1" class="graph" transform="scale(1 1) rotate(0) translate(4 328)">
<title>prtx::Extension</title>
<!-- Node1 -->
<g id="node1" class="node"><title>Node1</title>
<polygon fill="#bfbfbf" stroke="black" points="110.5,-190 110.5,-210 193.5,-210 193.5,-190 110.5,-190"/>
<text text-anchor="middle" x="152" y="-197" font-family="Helvetica,sans-Serif" font-size="10.00">prtx::Extension</text>
</g>
<!-- Node3 -->
<g id="node5" class="node"><title>Node3</title>
<a xlink:href="classprtx_1_1_adaptor.html" target="_top" xlink:title="prtx::Adaptor">
<polygon fill="none" stroke="black" points="232,-266 232,-286 306,-286 306,-266 232,-266"/>
<text text-anchor="middle" x="269" y="-273" font-family="Helvetica,sans-Serif" font-size="10.00">prtx::Adaptor</text>
</a>
</g>
<!-- Node1&#45;&gt;Node3 -->
<g id="edge4" class="edge"><title>Node1&#45;&gt;Node3</title>
<path fill="none" stroke="midnightblue" d="M176.375,-215.833C199.569,-230.9 233.769,-253.115 253.471,-265.913"/>
<polygon fill="midnightblue" stroke="midnightblue" points="178.072,-212.762 167.779,-210.25 174.259,-218.632 178.072,-212.762"/>
</g>
<!-- Node5 -->
<g id="node9" class="node"><title>Node5</title>
<a xlink:href="classprtx_1_1_decoder.html" target="_top" xlink:title="prtx::Decoder">
<polygon fill="none" stroke="black" points="230.5,-190 230.5,-210 307.5,-210 307.5,-190 230.5,-190"/>
<text text-anchor="middle" x="269" y="-197" font-family="Helvetica,sans-Serif" font-size="10.00">prtx::Decoder</text>
</a>
</g>
<!-- Node1&#45;&gt;Node5 -->
<g id="edge8" class="edge"><title>Node1&#45;&gt;Node5</title>
<path fill="none" stroke="midnightblue" d="M203.86,-200C212.742,-200 221.83,-200 230.292,-200"/>
<polygon fill="midnightblue" stroke="midnightblue" points="203.579,-196.5 193.579,-200 203.579,-203.5 203.579,-196.5"/>
</g>
<!-- Node11 -->
<g id="node21" class="node"><title>Node11</title>
<a xlink:href="classprtx_1_1_encoder.html" target="_top" xlink:title="prtx::Encoder">
<polygon fill="none" stroke="black" points="230.5,-57 230.5,-77 307.5,-77 307.5,-57 230.5,-57"/>
<text text-anchor="middle" x="269" y="-64" font-family="Helvetica,sans-Serif" font-size="10.00">prtx::Encoder</text>
</a>
</g>
<!-- Node1&#45;&gt;Node11 -->
<g id="edge20" class="edge"><title>Node1&#45;&gt;Node11</title>
<path fill="none" stroke="midnightblue" d="M167.866,-181.965C192.845,-153.57 240.517,-99.3779 260.182,-77.0239"/>
<polygon fill="midnightblue" stroke="midnightblue" points="165.158,-179.744 161.181,-189.564 170.414,-184.367 165.158,-179.744"/>
</g>
<!-- Node2 -->
<g id="node2" class="node"><title>Node2</title>
<polygon fill="none" stroke="#bfbfbf" points="0.5,-190 0.5,-210 73.5,-210 73.5,-190 0.5,-190"/>
<text text-anchor="middle" x="37" y="-197" font-family="Helvetica,sans-Serif" font-size="10.00">noncopyable</text>
</g>
<!-- Node2&#45;&gt;Node1 -->
<g id="edge2" class="edge"><title>Node2&#45;&gt;Node1</title>
<path fill="none" stroke="#8b1a1a" d="M83.8383,-200C92.6521,-200 101.812,-200 110.451,-200"/>
<polygon fill="#8b1a1a" stroke="#8b1a1a" points="83.7029,-196.5 73.7029,-200 83.7029,-203.5 83.7029,-196.5"/>
</g>
<!-- Node4 -->
<g id="node7" class="node"><title>Node4</title>
<a xlink:href="classprtx_1_1_stream_adaptor.html" target="_top" xlink:title="prtx::StreamAdaptor">
<polygon fill="none" stroke="black" points="351.5,-304 351.5,-324 458.5,-324 458.5,-304 351.5,-304"/>
<text text-anchor="middle" x="405" y="-311" font-family="Helvetica,sans-Serif" font-size="10.00">prtx::StreamAdaptor</text>
</a>
</g>
<!-- Node3&#45;&gt;Node4 -->
<g id="edge6" class="edge"><title>Node3&#45;&gt;Node4</title>
<path fill="none" stroke="midnightblue" d="M315.103,-288.882C332.606,-293.772 352.275,-299.268 368.743,-303.869"/>
<polygon fill="midnightblue" stroke="midnightblue" points="315.661,-285.404 305.088,-286.084 313.778,-292.146 315.661,-285.404"/>
</g>
<!-- Node6 -->
<g id="node11" class="node"><title>Node6</title>
<a xlink:href="classprtx_1_1_c_g_b_decoder.html" target="_top" xlink:title="prtx::CGBDecoder">
<polygon fill="none" stroke="black" points="355.5,-266 355.5,-286 454.5,-286 454.5,-266 355.5,-266"/>
<text text-anchor="middle" x="405" y="-273" font-family="Helvetica,sans-Serif" font-size="10.00">prtx::CGBDecoder</text>
</a>
</g>
<!-- Node5&#45;&gt;Node6 -->
<g id="edge10" class="edge"><title>Node5&#45;&gt;Node6</title>
<path fill="none" stroke="midnightblue" d="M287.551,-217.046C302.017,-229.575 323.098,-246.227 344,-257 350.704,-260.456 358.151,-263.416 365.473,-265.901"/>
<polygon fill="midnightblue" stroke="midnightblue" points="289.655,-214.234 279.849,-210.221 285.012,-219.473 289.655,-214.234"/>
</g>
<!-- Node7 -->
<g id="node13" class="node"><title>Node7</title>
<a xlink:href="classprtx_1_1_geometry_decoder.html" target="_top" xlink:title="prtx::GeometryDecoder">
<polygon fill="none" stroke="black" points="344.5,-228 344.5,-248 465.5,-248 465.5,-228 344.5,-228"/>
<text text-anchor="middle" x="405" y="-235" font-family="Helvetica,sans-Serif" font-size="10.00">prtx::GeometryDecoder</text>
</a>
</g>
<!-- Node5&#45;&gt;Node7 -->
<g id="edge12" class="edge"><title>Node5&#45;&gt;Node7</title>
<path fill="none" stroke="midnightblue" d="M315.103,-212.882C332.606,-217.772 352.275,-223.268 368.743,-227.869"/>
<polygon fill="midnightblue" stroke="midnightblue" points="315.661,-209.404 305.088,-210.084 313.778,-216.146 315.661,-209.404"/>
</g>
<!-- Node8 -->
<g id="node15" class="node"><title>Node8</title>
<a xlink:href="classprtx_1_1_material_decoder.html" target="_top" xlink:title="prtx::MaterialDecoder">
<polygon fill="none" stroke="black" points="349,-190 349,-210 461,-210 461,-190 349,-190"/>
<text text-anchor="middle" x="405" y="-197" font-family="Helvetica,sans-Serif" font-size="10.00">prtx::MaterialDecoder</text>
</a>
</g>
<!-- Node5&#45;&gt;Node8 -->
<g id="edge14" class="edge"><title>Node5&#45;&gt;Node8</title>
<path fill="none" stroke="midnightblue" d="M317.811,-200C327.852,-200 338.5,-200 348.779,-200"/>
<polygon fill="midnightblue" stroke="midnightblue" points="317.608,-196.5 307.608,-200 317.608,-203.5 317.608,-196.5"/>
</g>
<!-- Node9 -->
<g id="node17" class="node"><title>Node9</title>
<a xlink:href="classprtx_1_1_shader_decoder.html" target="_top" xlink:title="prtx::ShaderDecoder">
<polygon fill="none" stroke="black" points="350.5,-152 350.5,-172 459.5,-172 459.5,-152 350.5,-152"/>
<text text-anchor="middle" x="405" y="-159" font-family="Helvetica,sans-Serif" font-size="10.00">prtx::ShaderDecoder</text>
</a>
</g>
<!-- Node5&#45;&gt;Node9 -->
<g id="edge16" class="edge"><title>Node5&#45;&gt;Node9</title>
<path fill="none" stroke="midnightblue" d="M315.103,-187.118C332.606,-182.228 352.275,-176.732 368.743,-172.131"/>
<polygon fill="midnightblue" stroke="midnightblue" points="313.778,-183.854 305.088,-189.916 315.661,-190.596 313.778,-183.854"/>
</g>
<!-- Node10 -->
<g id="node19" class="node"><title>Node10</title>
<a xlink:href="classprtx_1_1_texture_decoder.html" target="_top" xlink:title="prtx::TextureDecoder">
<polygon fill="none" stroke="black" points="350,-114 350,-134 460,-134 460,-114 350,-114"/>
<text text-anchor="middle" x="405" y="-121" font-family="Helvetica,sans-Serif" font-size="10.00">prtx::TextureDecoder</text>
</a>
</g>
<!-- Node5&#45;&gt;Node10 -->
<g id="edge18" class="edge"><title>Node5&#45;&gt;Node10</title>
<path fill="none" stroke="midnightblue" d="M287.551,-182.954C302.017,-170.425 323.098,-153.773 344,-143 350.704,-139.544 358.151,-136.584 365.473,-134.099"/>
<polygon fill="midnightblue" stroke="midnightblue" points="285.012,-180.527 279.849,-189.779 289.655,-185.766 285.012,-180.527"/>
</g>
<!-- Node12 -->
<g id="node23" class="node"><title>Node12</title>
<a xlink:href="classprtx_1_1_geometry_encoder.html" target="_top" xlink:title="prtx::GeometryEncoder">
<polygon fill="none" stroke="black" points="344.5,-76 344.5,-96 465.5,-96 465.5,-76 344.5,-76"/>
<text text-anchor="middle" x="405" y="-83" font-family="Helvetica,sans-Serif" font-size="10.00">prtx::GeometryEncoder</text>
</a>
</g>
<!-- Node11&#45;&gt;Node12 -->
<g id="edge22" class="edge"><title>Node11&#45;&gt;Node12</title>
<path fill="none" stroke="midnightblue" d="M317.572,-73.7857C326.273,-75.0013 335.437,-76.2817 344.426,-77.5375"/>
<polygon fill="midnightblue" stroke="midnightblue" points="317.996,-70.3112 307.608,-72.3938 317.028,-77.2439 317.996,-70.3112"/>
</g>
<!-- Node13 -->
<g id="node25" class="node"><title>Node13</title>
<a xlink:href="classprtx_1_1_material_encoder.html" target="_top" xlink:title="prtx::MaterialEncoder">
<polygon fill="none" stroke="black" points="349,-38 349,-58 461,-58 461,-38 349,-38"/>
<text text-anchor="middle" x="405" y="-45" font-family="Helvetica,sans-Serif" font-size="10.00">prtx::MaterialEncoder</text>
</a>
</g>
<!-- Node11&#45;&gt;Node13 -->
<g id="edge24" class="edge"><title>Node11&#45;&gt;Node13</title>
<path fill="none" stroke="midnightblue" d="M317.811,-60.1808C327.852,-58.7781 338.5,-57.2904 348.779,-55.8545"/>
<polygon fill="midnightblue" stroke="midnightblue" points="317.028,-56.7561 307.608,-61.6062 317.996,-63.6888 317.028,-56.7561"/>
</g>
<!-- Node14 -->
<g id="node27" class="node"><title>Node14</title>
<a xlink:href="classprtx_1_1_texture_encoder.html" target="_top" xlink:title="prtx::TextureEncoder">
<polygon fill="none" stroke="black" points="350.5,-0 350.5,-20 459.5,-20 459.5,-0 350.5,-0"/>
<text text-anchor="middle" x="405" y="-7" font-family="Helvetica,sans-Serif" font-size="10.00">prtx::TextureEncoder</text>
</a>
</g>
<!-- Node11&#45;&gt;Node14 -->
<g id="edge26" class="edge"><title>Node11&#45;&gt;Node14</title>
<path fill="none" stroke="midnightblue" d="M295.897,-51.9947C309.965,-44.5023 327.625,-35.6441 344,-29 352.017,-25.747 360.812,-22.7125 369.166,-20.0653"/>
<polygon fill="midnightblue" stroke="midnightblue" points="293.923,-49.0835 286.792,-56.9195 297.253,-55.2406 293.923,-49.0835"/>
</g>
</g>
</svg>
