<?xml version="1.0" encoding="UTF-8" standalone="no"?>
<!DOCTYPE svg PUBLIC "-//W3C//DTD SVG 1.1//EN"
 "http://www.w3.org/Graphics/SVG/1.1/DTD/svg11.dtd">
<!-- Generated by graphviz version 2.26.3 (20100126.1600)
 -->
<!-- Title: prtx::Encoder Pages: 1 -->
<svg width="384pt" height="204pt"
 viewBox="0.00 0.00 384.00 204.00" xmlns="http://www.w3.org/2000/svg" xmlns:xlink="http://www.w3.org/1999/xlink">
<g id="graph1" class="graph" transform="scale(1 1) rotate(0) translate(4 200)">
<title>prtx::Encoder</title>
<!-- Node1 -->
<g id="node1" class="node"><title>Node1</title>
<polygon fill="#bfbfbf" stroke="black" points="155.5,-59 155.5,-79 232.5,-79 232.5,-59 155.5,-59"/>
<text text-anchor="middle" x="194" y="-66" font-family="Helvetica,sans-Serif" font-size="10.00">prtx::Encoder</text>
</g>
<!-- Node4 -->
<g id="node7" class="node"><title>Node4</title>
<a xlink:href="classprtx_1_1_geometry_encoder.html" target="_top" xlink:title="prtx::GeometryEncoder">
<polygon fill="none" stroke="black" points="-0.5,-1 -0.5,-21 120.5,-21 120.5,-1 -0.5,-1"/>
<text text-anchor="middle" x="60" y="-8" font-family="Helvetica,sans-Serif" font-size="10.00">prtx::GeometryEncoder</text>
</a>
</g>
<!-- Node1&#45;&gt;Node4 -->
<g id="edge6" class="edge"><title>Node1&#45;&gt;Node4</title>
<path fill="none" stroke="midnightblue" d="M161.223,-54.813C137.168,-44.4012 105.068,-30.5069 83.5231,-21.1817"/>
<polygon fill="midnightblue" stroke="midnightblue" points="160.091,-58.1369 170.659,-58.8972 162.872,-51.7129 160.091,-58.1369"/>
</g>
<!-- Node5 -->
<g id="node9" class="node"><title>Node5</title>
<a xlink:href="classprtx_1_1_material_encoder.html" target="_top" xlink:title="prtx::MaterialEncoder">
<polygon fill="none" stroke="black" points="138,-1 138,-21 250,-21 250,-1 138,-1"/>
<text text-anchor="middle" x="194" y="-8" font-family="Helvetica,sans-Serif" font-size="10.00">prtx::MaterialEncoder</text>
</a>
</g>
<!-- Node1&#45;&gt;Node5 -->
<g id="edge8" class="edge"><title>Node1&#45;&gt;Node5</title>
<path fill="none" stroke="midnightblue" d="M194,-48.8902C194,-39.6201 194,-29.0083 194,-21.3776"/>
<polygon fill="midnightblue" stroke="midnightblue" points="190.5,-48.8971 194,-58.8972 197.5,-48.8972 190.5,-48.8971"/>
</g>
<!-- Node6 -->
<g id="node11" class="node"><title>Node6</title>
<a xlink:href="classprtx_1_1_texture_encoder.html" target="_top" xlink:title="prtx::TextureEncoder">
<polygon fill="none" stroke="black" points="267.5,-1 267.5,-21 376.5,-21 376.5,-1 267.5,-1"/>
<text text-anchor="middle" x="322" y="-8" font-family="Helvetica,sans-Serif" font-size="10.00">prtx::TextureEncoder</text>
</a>
</g>
<!-- Node1&#45;&gt;Node6 -->
<g id="edge10" class="edge"><title>Node1&#45;&gt;Node6</title>
<path fill="none" stroke="midnightblue" d="M225.616,-54.674C248.559,-44.2778 279.042,-30.4654 299.53,-21.1817"/>
<polygon fill="midnightblue" stroke="midnightblue" points="223.96,-51.5818 216.296,-58.8972 226.849,-57.9578 223.96,-51.5818"/>
</g>
<!-- Node2 -->
<g id="node2" class="node"><title>Node2</title>
<a xlink:href="classprtx_1_1_extension.html" target="_top" xlink:title="prtx::Extension">
<polygon fill="none" stroke="black" points="152.5,-117 152.5,-137 235.5,-137 235.5,-117 152.5,-117"/>
<text text-anchor="middle" x="194" y="-124" font-family="Helvetica,sans-Serif" font-size="10.00">prtx::Extension</text>
</a>
</g>
<!-- Node2&#45;&gt;Node1 -->
<g id="edge2" class="edge"><title>Node2&#45;&gt;Node1</title>
<path fill="none" stroke="midnightblue" d="M194,-106.89C194,-97.6201 194,-87.0083 194,-79.3776"/>
<polygon fill="midnightblue" stroke="midnightblue" points="190.5,-106.897 194,-116.897 197.5,-106.897 190.5,-106.897"/>
</g>
<!-- Node3 -->
<g id="node4" class="node"><title>Node3</title>
<polygon fill="none" stroke="#bfbfbf" points="157.5,-175 157.5,-195 230.5,-195 230.5,-175 157.5,-175"/>
<text text-anchor="middle" x="194" y="-182" font-family="Helvetica,sans-Serif" font-size="10.00">noncopyable</text>
</g>
<!-- Node3&#45;&gt;Node2 -->
<g id="edge4" class="edge"><title>Node3&#45;&gt;Node2</title>
<path fill="none" stroke="#8b1a1a" d="M194,-164.89C194,-155.62 194,-145.008 194,-137.378"/>
<polygon fill="#8b1a1a" stroke="#8b1a1a" points="190.5,-164.897 194,-174.897 197.5,-164.897 190.5,-164.897"/>
</g>
</g>
</svg>
