<?xml version="1.0" encoding="UTF-8" standalone="no"?>
<!DOCTYPE svg PUBLIC "-//W3C//DTD SVG 1.1//EN"
 "http://www.w3.org/Graphics/SVG/1.1/DTD/svg11.dtd">
<!-- Generated by graphviz version 2.26.3 (20100126.1600)
 -->
<!-- Title: prtx::BuiltinMaterialAttributes Pages: 1 -->
<svg width="152pt" height="204pt"
 viewBox="0.00 0.00 152.00 204.00" xmlns="http://www.w3.org/2000/svg" xmlns:xlink="http://www.w3.org/1999/xlink">
<g id="graph1" class="graph" transform="scale(1 1) rotate(0) translate(4 200)">
<title>prtx::BuiltinMaterialAttributes</title>
<!-- Node1 -->
<g id="node1" class="node"><title>Node1</title>
<polygon fill="#bfbfbf" stroke="black" points="0,-59 0,-79 144,-79 144,-59 0,-59"/>
<text text-anchor="middle" x="72" y="-66" font-family="Helvetica,sans-Serif" font-size="10.00">prtx::BuiltinMaterialAttributes</text>
</g>
<!-- Node4 -->
<g id="node7" class="node"><title>Node4</title>
<a xlink:href="classprtx_1_1_material.html" target="_top" xlink:title="prtx::Material">
<polygon fill="none" stroke="black" points="34.5,-1 34.5,-21 109.5,-21 109.5,-1 34.5,-1"/>
<text text-anchor="middle" x="72" y="-8" font-family="Helvetica,sans-Serif" font-size="10.00">prtx::Material</text>
</a>
</g>
<!-- Node1&#45;&gt;Node4 -->
<g id="edge6" class="edge"><title>Node1&#45;&gt;Node4</title>
<path fill="none" stroke="midnightblue" d="M72,-48.8902C72,-39.6201 72,-29.0083 72,-21.3776"/>
<polygon fill="midnightblue" stroke="midnightblue" points="68.5001,-48.8971 72,-58.8972 75.5001,-48.8972 68.5001,-48.8971"/>
</g>
<!-- Node2 -->
<g id="node2" class="node"><title>Node2</title>
<a xlink:href="classprtx_1_1_builtin_attributes_getters.html" target="_top" xlink:title="prtx::BuiltinAttributesGetters">
<polygon fill="none" stroke="black" points="1.5,-117 1.5,-137 142.5,-137 142.5,-117 1.5,-117"/>
<text text-anchor="middle" x="72" y="-124" font-family="Helvetica,sans-Serif" font-size="10.00">prtx::BuiltinAttributesGetters</text>
</a>
</g>
<!-- Node2&#45;&gt;Node1 -->
<g id="edge2" class="edge"><title>Node2&#45;&gt;Node1</title>
<path fill="none" stroke="midnightblue" d="M72,-106.89C72,-97.6201 72,-87.0083 72,-79.3776"/>
<polygon fill="midnightblue" stroke="midnightblue" points="68.5001,-106.897 72,-116.897 75.5001,-106.897 68.5001,-106.897"/>
</g>
<!-- Node3 -->
<g id="node4" class="node"><title>Node3</title>
<a xlink:href="classprtx_1_1_builtin_attributes.html" target="_top" xlink:title="prtx::BuiltinAttributes">
<polygon fill="none" stroke="black" points="17.5,-175 17.5,-195 126.5,-195 126.5,-175 17.5,-175"/>
<text text-anchor="middle" x="72" y="-182" font-family="Helvetica,sans-Serif" font-size="10.00">prtx::BuiltinAttributes</text>
</a>
</g>
<!-- Node3&#45;&gt;Node2 -->
<g id="edge4" class="edge"><title>Node3&#45;&gt;Node2</title>
<path fill="none" stroke="midnightblue" d="M72,-164.89C72,-155.62 72,-145.008 72,-137.378"/>
<polygon fill="midnightblue" stroke="midnightblue" points="68.5001,-164.897 72,-174.897 75.5001,-164.897 68.5001,-164.897"/>
</g>
</g>
</svg>
