<?xml version="1.0" encoding="UTF-8" standalone="no"?>
<!DOCTYPE svg PUBLIC "-//W3C//DTD SVG 1.1//EN"
 "http://www.w3.org/Graphics/SVG/1.1/DTD/svg11.dtd">
<!-- Generated by graphviz version 2.26.3 (20100126.1600)
 -->
<!-- Title: prt::Object Pages: 1 -->
<svg width="384pt" height="636pt"
 viewBox="0.00 0.00 384.00 636.00" xmlns="http://www.w3.org/2000/svg" xmlns:xlink="http://www.w3.org/1999/xlink">
<g id="graph1" class="graph" transform="scale(1 1) rotate(0) translate(4 632)">
<title>prt::Object</title>
<!-- Node1 -->
<g id="node1" class="node"><title>Node1</title>
<polygon fill="#bfbfbf" stroke="black" points="0.5,-304 0.5,-324 63.5,-324 63.5,-304 0.5,-304"/>
<text text-anchor="middle" x="32" y="-311" font-family="Helvetica,sans-Serif" font-size="10.00">prt::Object</text>
</g>
<!-- Node2 -->
<g id="node3" class="node"><title>Node2</title>
<a xlink:href="classprt_1_1_annotation.html" target="_top" xlink:title="prt::Annotation">
<polygon fill="none" stroke="black" points="131,-608 131,-628 213,-628 213,-608 131,-608"/>
<text text-anchor="middle" x="172" y="-615" font-family="Helvetica,sans-Serif" font-size="10.00">prt::Annotation</text>
</a>
</g>
<!-- Node1&#45;&gt;Node2 -->
<g id="edge2" class="edge"><title>Node1&#45;&gt;Node2</title>
<path fill="none" stroke="midnightblue" d="M34.1388,-334.205C40.7341,-392.739 62.601,-560.701 100,-599 108.129,-607.325 119.441,-612.144 130.694,-614.895"/>
<polygon fill="midnightblue" stroke="midnightblue" points="37.5922,-333.587 33.0233,-324.028 30.6338,-334.349 37.5922,-333.587"/>
</g>
<!-- Node3 -->
<g id="node5" class="node"><title>Node3</title>
<a xlink:href="classprt_1_1_annotation_argument.html" target="_top" xlink:title="prt::AnnotationArgument">
<polygon fill="none" stroke="black" points="109.5,-570 109.5,-590 234.5,-590 234.5,-570 109.5,-570"/>
<text text-anchor="middle" x="172" y="-577" font-family="Helvetica,sans-Serif" font-size="10.00">prt::AnnotationArgument</text>
</a>
</g>
<!-- Node1&#45;&gt;Node3 -->
<g id="edge4" class="edge"><title>Node1&#45;&gt;Node3</title>
<path fill="none" stroke="midnightblue" d="M34.9441,-334.26C43.0541,-387.351 67.3041,-528.65 100,-561 103.584,-564.546 107.747,-567.453 112.23,-569.832"/>
<polygon fill="midnightblue" stroke="midnightblue" points="38.3619,-333.449 33.4226,-324.076 31.4387,-334.483 38.3619,-333.449"/>
</g>
<!-- Node4 -->
<g id="node7" class="node"><title>Node4</title>
<a xlink:href="classprt_1_1_attribute_map.html" target="_top" xlink:title="prt::AttributeMap">
<polygon fill="none" stroke="black" points="126.5,-532 126.5,-552 217.5,-552 217.5,-532 126.5,-532"/>
<text text-anchor="middle" x="172" y="-539" font-family="Helvetica,sans-Serif" font-size="10.00">prt::AttributeMap</text>
</a>
</g>
<!-- Node1&#45;&gt;Node4 -->
<g id="edge6" class="edge"><title>Node1&#45;&gt;Node4</title>
<path fill="none" stroke="midnightblue" d="M35.9538,-333.921C45.6519,-380.856 71.8862,-496.433 100,-523 107.235,-529.837 116.632,-534.28 126.235,-537.151"/>
<polygon fill="midnightblue" stroke="midnightblue" points="39.367,-333.141 33.9477,-324.037 32.5069,-334.534 39.367,-333.141"/>
</g>
<!-- Node5 -->
<g id="node9" class="node"><title>Node5</title>
<a xlink:href="classprt_1_1_attribute_map_builder.html" target="_top" xlink:title="prt::AttributeMapBuilder">
<polygon fill="none" stroke="black" points="111,-494 111,-514 233,-514 233,-494 111,-494"/>
<text text-anchor="middle" x="172" y="-501" font-family="Helvetica,sans-Serif" font-size="10.00">prt::AttributeMapBuilder</text>
</a>
</g>
<!-- Node1&#45;&gt;Node5 -->
<g id="edge8" class="edge"><title>Node1&#45;&gt;Node5</title>
<path fill="none" stroke="midnightblue" d="M34.21,-334.497C39.201,-370.445 54.692,-444.846 100,-485 104.064,-488.601 108.732,-491.532 113.697,-493.916"/>
<polygon fill="midnightblue" stroke="midnightblue" points="37.6451,-333.759 32.934,-324.269 30.6989,-334.625 37.6451,-333.759"/>
</g>
<!-- Node6 -->
<g id="node11" class="node"><title>Node6</title>
<a xlink:href="classprt_1_1_cache_object.html" target="_top" xlink:title="prt::CacheObject">
<polygon fill="none" stroke="black" points="126,-456 126,-476 218,-476 218,-456 126,-456"/>
<text text-anchor="middle" x="172" y="-463" font-family="Helvetica,sans-Serif" font-size="10.00">prt::CacheObject</text>
</a>
</g>
<!-- Node1&#45;&gt;Node6 -->
<g id="edge10" class="edge"><title>Node1&#45;&gt;Node6</title>
<path fill="none" stroke="midnightblue" d="M36.6914,-334.029C44.6111,-363.327 63.4671,-417.573 100,-447 107.45,-453.001 116.609,-457.121 125.867,-459.945"/>
<polygon fill="midnightblue" stroke="midnightblue" points="40.0303,-332.957 34.1775,-324.125 33.2455,-334.679 40.0303,-332.957"/>
</g>
<!-- Node7 -->
<g id="node13" class="node"><title>Node7</title>
<a xlink:href="classprt_1_1_console_log_handler.html" target="_top" xlink:title="prt::ConsoleLogHandler">
<polygon fill="none" stroke="black" points="111,-418 111,-438 233,-438 233,-418 111,-418"/>
<text text-anchor="middle" x="172" y="-425" font-family="Helvetica,sans-Serif" font-size="10.00">prt::ConsoleLogHandler</text>
</a>
</g>
<!-- Node1&#45;&gt;Node7 -->
<g id="edge12" class="edge"><title>Node1&#45;&gt;Node7</title>
<path fill="none" stroke="midnightblue" d="M40.7388,-333.304C51.5581,-355.003 72.0369,-389.714 100,-409 105.215,-412.597 111.071,-415.512 117.132,-417.876"/>
<polygon fill="midnightblue" stroke="midnightblue" points="43.8036,-331.6 36.3339,-324.086 37.4877,-334.618 43.8036,-331.6"/>
</g>
<!-- Node8 -->
<g id="node15" class="node"><title>Node8</title>
<a xlink:href="classprt_1_1_decoder_info.html" target="_top" xlink:title="prt::DecoderInfo">
<polygon fill="none" stroke="black" points="127.5,-380 127.5,-400 216.5,-400 216.5,-380 127.5,-380"/>
<text text-anchor="middle" x="172" y="-387" font-family="Helvetica,sans-Serif" font-size="10.00">prt::DecoderInfo</text>
</a>
</g>
<!-- Node1&#45;&gt;Node8 -->
<g id="edge14" class="edge"><title>Node1&#45;&gt;Node8</title>
<path fill="none" stroke="midnightblue" d="M48.322,-331.302C61.2237,-344.018 80.2891,-360.793 100,-371 108.495,-375.399 118.095,-378.843 127.452,-381.515"/>
<polygon fill="midnightblue" stroke="midnightblue" points="50.6454,-328.673 41.1347,-324.004 45.658,-333.585 50.6454,-328.673"/>
</g>
<!-- Node9 -->
<g id="node17" class="node"><title>Node9</title>
<a xlink:href="classprt_1_1_encoder_info.html" target="_top" xlink:title="prt::EncoderInfo">
<polygon fill="none" stroke="black" points="128,-342 128,-362 216,-362 216,-342 128,-342"/>
<text text-anchor="middle" x="172" y="-349" font-family="Helvetica,sans-Serif" font-size="10.00">prt::EncoderInfo</text>
</a>
</g>
<!-- Node1&#45;&gt;Node9 -->
<g id="edge16" class="edge"><title>Node1&#45;&gt;Node9</title>
<path fill="none" stroke="midnightblue" d="M73.4518,-325.685C82.212,-328.126 91.4054,-330.665 100,-333 110.854,-335.948 122.646,-339.087 133.485,-341.946"/>
<polygon fill="midnightblue" stroke="midnightblue" points="74.3736,-322.309 63.8005,-322.988 72.4895,-329.05 74.3736,-322.309"/>
</g>
<!-- Node10 -->
<g id="node19" class="node"><title>Node10</title>
<a xlink:href="classprt_1_1_file_log_handler.html" target="_top" xlink:title="prt::FileLogHandler">
<polygon fill="none" stroke="black" points="121.5,-304 121.5,-324 222.5,-324 222.5,-304 121.5,-304"/>
<text text-anchor="middle" x="172" y="-311" font-family="Helvetica,sans-Serif" font-size="10.00">prt::FileLogHandler</text>
</a>
</g>
<!-- Node1&#45;&gt;Node10 -->
<g id="edge18" class="edge"><title>Node1&#45;&gt;Node10</title>
<path fill="none" stroke="midnightblue" d="M74.192,-314C89.0587,-314 105.924,-314 121.412,-314"/>
<polygon fill="midnightblue" stroke="midnightblue" points="73.7682,-310.5 63.7682,-314 73.7681,-317.5 73.7682,-310.5"/>
</g>
<!-- Node11 -->
<g id="node21" class="node"><title>Node11</title>
<a xlink:href="classprt_1_1_file_output_callbacks.html" target="_top" xlink:title="prt::FileOutputCallbacks">
<polygon fill="none" stroke="black" points="110.5,-266 110.5,-286 233.5,-286 233.5,-266 110.5,-266"/>
<text text-anchor="middle" x="172" y="-273" font-family="Helvetica,sans-Serif" font-size="10.00">prt::FileOutputCallbacks</text>
</a>
</g>
<!-- Node1&#45;&gt;Node11 -->
<g id="edge20" class="edge"><title>Node1&#45;&gt;Node11</title>
<path fill="none" stroke="midnightblue" d="M73.4518,-302.315C82.212,-299.874 91.4054,-297.335 100,-295 110.854,-292.052 122.646,-288.913 133.485,-286.054"/>
<polygon fill="midnightblue" stroke="midnightblue" points="72.4895,-298.95 63.8005,-305.012 74.3736,-305.691 72.4895,-298.95"/>
</g>
<!-- Node12 -->
<g id="node23" class="node"><title>Node12</title>
<a xlink:href="classprt_1_1_initial_shape.html" target="_top" xlink:title="prt::InitialShape">
<polygon fill="none" stroke="black" points="129,-228 129,-248 215,-248 215,-228 129,-228"/>
<text text-anchor="middle" x="172" y="-235" font-family="Helvetica,sans-Serif" font-size="10.00">prt::InitialShape</text>
</a>
</g>
<!-- Node1&#45;&gt;Node12 -->
<g id="edge22" class="edge"><title>Node1&#45;&gt;Node12</title>
<path fill="none" stroke="midnightblue" d="M48.322,-296.698C61.2237,-283.982 80.2891,-267.207 100,-257 108.954,-252.363 119.136,-248.788 128.966,-246.058"/>
<polygon fill="midnightblue" stroke="midnightblue" points="45.658,-294.415 41.1347,-303.996 50.6454,-299.327 45.658,-294.415"/>
</g>
<!-- Node14 -->
<g id="node27" class="node"><title>Node14</title>
<a xlink:href="classprt_1_1_initial_shape_builder.html" target="_top" xlink:title="prt::InitialShapeBuilder">
<polygon fill="none" stroke="black" points="113.5,-190 113.5,-210 230.5,-210 230.5,-190 113.5,-190"/>
<text text-anchor="middle" x="172" y="-197" font-family="Helvetica,sans-Serif" font-size="10.00">prt::InitialShapeBuilder</text>
</a>
</g>
<!-- Node1&#45;&gt;Node14 -->
<g id="edge26" class="edge"><title>Node1&#45;&gt;Node14</title>
<path fill="none" stroke="midnightblue" d="M40.7388,-294.696C51.5581,-272.997 72.0369,-238.286 100,-219 105.215,-215.403 111.071,-212.488 117.132,-210.124"/>
<polygon fill="midnightblue" stroke="midnightblue" points="37.4877,-293.382 36.3339,-303.914 43.8036,-296.4 37.4877,-293.382"/>
</g>
<!-- Node15 -->
<g id="node29" class="node"><title>Node15</title>
<a xlink:href="classprt_1_1_memory_output_callbacks.html" target="_top" xlink:title="prt::MemoryOutputCallbacks">
<polygon fill="none" stroke="black" points="100,-152 100,-172 244,-172 244,-152 100,-152"/>
<text text-anchor="middle" x="172" y="-159" font-family="Helvetica,sans-Serif" font-size="10.00">prt::MemoryOutputCallbacks</text>
</a>
</g>
<!-- Node1&#45;&gt;Node15 -->
<g id="edge28" class="edge"><title>Node1&#45;&gt;Node15</title>
<path fill="none" stroke="midnightblue" d="M36.6914,-293.971C44.6111,-264.673 63.4671,-210.427 100,-181 104.531,-177.351 109.693,-174.397 115.125,-172.008"/>
<polygon fill="midnightblue" stroke="midnightblue" points="33.2455,-293.321 34.1775,-303.875 40.0303,-295.043 33.2455,-293.321"/>
</g>
<!-- Node16 -->
<g id="node31" class="node"><title>Node16</title>
<a xlink:href="classprt_1_1_occlusion_set.html" target="_top" xlink:title="prt::OcclusionSet">
<polygon fill="none" stroke="black" points="125.5,-114 125.5,-134 218.5,-134 218.5,-114 125.5,-114"/>
<text text-anchor="middle" x="172" y="-121" font-family="Helvetica,sans-Serif" font-size="10.00">prt::OcclusionSet</text>
</a>
</g>
<!-- Node1&#45;&gt;Node16 -->
<g id="edge30" class="edge"><title>Node1&#45;&gt;Node16</title>
<path fill="none" stroke="midnightblue" d="M34.21,-293.503C39.201,-257.555 54.692,-183.154 100,-143 107.16,-136.655 116.196,-132.39 125.426,-129.534"/>
<polygon fill="midnightblue" stroke="midnightblue" points="30.6989,-293.375 32.934,-303.731 37.6451,-294.241 30.6989,-293.375"/>
</g>
<!-- Node17 -->
<g id="node33" class="node"><title>Node17</title>
<a xlink:href="classprt_1_1_resolve_map.html" target="_top" xlink:title="prt::ResolveMap">
<polygon fill="none" stroke="black" points="127.5,-76 127.5,-96 216.5,-96 216.5,-76 127.5,-76"/>
<text text-anchor="middle" x="172" y="-83" font-family="Helvetica,sans-Serif" font-size="10.00">prt::ResolveMap</text>
</a>
</g>
<!-- Node1&#45;&gt;Node17 -->
<g id="edge32" class="edge"><title>Node1&#45;&gt;Node17</title>
<path fill="none" stroke="midnightblue" d="M35.9538,-294.079C45.6519,-247.144 71.8862,-131.567 100,-105 107.517,-97.8965 117.367,-93.3773 127.358,-90.5208"/>
<polygon fill="midnightblue" stroke="midnightblue" points="32.5069,-293.466 33.9477,-303.963 39.367,-294.859 32.5069,-293.466"/>
</g>
<!-- Node19 -->
<g id="node37" class="node"><title>Node19</title>
<a xlink:href="classprt_1_1_resolve_map_builder.html" target="_top" xlink:title="prt::ResolveMapBuilder">
<polygon fill="none" stroke="black" points="112,-38 112,-58 232,-58 232,-38 112,-38"/>
<text text-anchor="middle" x="172" y="-45" font-family="Helvetica,sans-Serif" font-size="10.00">prt::ResolveMapBuilder</text>
</a>
</g>
<!-- Node1&#45;&gt;Node19 -->
<g id="edge36" class="edge"><title>Node1&#45;&gt;Node19</title>
<path fill="none" stroke="midnightblue" d="M34.9441,-293.74C43.0541,-240.649 67.3041,-99.3498 100,-67 103.584,-63.4539 107.747,-60.5472 112.23,-58.1676"/>
<polygon fill="midnightblue" stroke="midnightblue" points="31.4387,-293.517 33.4226,-303.924 38.3619,-294.551 31.4387,-293.517"/>
</g>
<!-- Node20 -->
<g id="node39" class="node"><title>Node20</title>
<a xlink:href="classprt_1_1_rule_file_info.html" target="_top" xlink:title="prt::RuleFileInfo">
<polygon fill="none" stroke="black" points="128.5,-0 128.5,-20 215.5,-20 215.5,-0 128.5,-0"/>
<text text-anchor="middle" x="172" y="-7" font-family="Helvetica,sans-Serif" font-size="10.00">prt::RuleFileInfo</text>
</a>
</g>
<!-- Node1&#45;&gt;Node20 -->
<g id="edge38" class="edge"><title>Node1&#45;&gt;Node20</title>
<path fill="none" stroke="midnightblue" d="M34.1388,-293.795C40.7341,-235.261 62.601,-67.2995 100,-29 107.587,-21.2304 117.947,-16.514 128.443,-13.6836"/>
<polygon fill="midnightblue" stroke="midnightblue" points="30.6338,-293.651 33.0233,-303.972 37.5922,-294.413 30.6338,-293.651"/>
</g>
<!-- Node13 -->
<g id="node25" class="node"><title>Node13</title>
<a xlink:href="classprtx_1_1_initial_shape.html" target="_top" xlink:title="prtx::InitialShape">
<polygon fill="none" stroke="black" points="282,-228 282,-248 374,-248 374,-228 282,-228"/>
<text text-anchor="middle" x="328" y="-235" font-family="Helvetica,sans-Serif" font-size="10.00">prtx::InitialShape</text>
</a>
</g>
<!-- Node12&#45;&gt;Node13 -->
<g id="edge24" class="edge"><title>Node12&#45;&gt;Node13</title>
<path fill="none" stroke="midnightblue" d="M225.294,-238C243.663,-238 264.07,-238 281.823,-238"/>
<polygon fill="midnightblue" stroke="midnightblue" points="225.041,-234.5 215.041,-238 225.041,-241.5 225.041,-234.5"/>
</g>
<!-- Node18 -->
<g id="node35" class="node"><title>Node18</title>
<a xlink:href="classprtx_1_1_resolve_map.html" target="_top" xlink:title="prtx::ResolveMap">
<polygon fill="none" stroke="black" points="280.5,-76 280.5,-96 375.5,-96 375.5,-76 280.5,-76"/>
<text text-anchor="middle" x="328" y="-83" font-family="Helvetica,sans-Serif" font-size="10.00">prtx::ResolveMap</text>
</a>
</g>
<!-- Node17&#45;&gt;Node18 -->
<g id="edge34" class="edge"><title>Node17&#45;&gt;Node18</title>
<path fill="none" stroke="midnightblue" d="M226.754,-86C244.211,-86 263.377,-86 280.293,-86"/>
<polygon fill="midnightblue" stroke="midnightblue" points="226.703,-82.5001 216.703,-86 226.703,-89.5001 226.703,-82.5001"/>
</g>
</g>
</svg>
