<?xml version="1.0" encoding="UTF-8" standalone="no"?>
<!DOCTYPE svg PUBLIC "-//W3C//DTD SVG 1.1//EN"
 "http://www.w3.org/Graphics/SVG/1.1/DTD/svg11.dtd">
<!-- Generated by graphviz version 2.26.3 (20100126.1600)
 -->
<!-- Title: prtx::MeshBuilder Pages: 1 -->
<svg width="120pt" height="216pt"
 viewBox="0.00 0.00 120.00 216.00" xmlns="http://www.w3.org/2000/svg" xmlns:xlink="http://www.w3.org/1999/xlink">
<g id="graph1" class="graph" transform="scale(1 1) rotate(0) translate(4 212)">
<title>prtx::MeshBuilder</title>
<!-- Node1 -->
<g id="node1" class="node"><title>Node1</title>
<polygon fill="#bfbfbf" stroke="black" points="8.5,-1 8.5,-21 103.5,-21 103.5,-1 8.5,-1"/>
<text text-anchor="middle" x="56" y="-8" font-family="Helvetica,sans-Serif" font-size="10.00">prtx::MeshBuilder</text>
</g>
<!-- Node2 -->
<g id="node2" class="node"><title>Node2</title>
<a xlink:href="classprtx_1_1_p_r_t_x_builder.html" target="_top" xlink:title="prtx::PRTXBuilder\&lt;\l Mesh \&gt;">
<polygon fill="none" stroke="black" points="4.5,-59 4.5,-91 107.5,-91 107.5,-59 4.5,-59"/>
<text text-anchor="start" x="12.5" y="-78" font-family="Helvetica,sans-Serif" font-size="10.00">prtx::PRTXBuilder&lt;</text>
<text text-anchor="middle" x="56" y="-66" font-family="Helvetica,sans-Serif" font-size="10.00"> Mesh &gt;</text>
</a>
</g>
<!-- Node2&#45;&gt;Node1 -->
<g id="edge2" class="edge"><title>Node2&#45;&gt;Node1</title>
<path fill="none" stroke="midnightblue" d="M56,-48.7639C56,-39.0394 56,-28.5805 56,-21.141"/>
<polygon fill="midnightblue" stroke="midnightblue" points="52.5001,-48.8501 56,-58.8501 59.5001,-48.8501 52.5001,-48.8501"/>
</g>
<!-- Node3 -->
<g id="node4" class="node"><title>Node3</title>
<a xlink:href="classprtx_1_1_builder.html" target="_top" xlink:title="prtx::Builder\&lt; Mesh \&gt;">
<polygon fill="none" stroke="black" points="0,-129 0,-149 112,-149 112,-129 0,-129"/>
<text text-anchor="middle" x="56" y="-136" font-family="Helvetica,sans-Serif" font-size="10.00">prtx::Builder&lt; Mesh &gt;</text>
</a>
</g>
<!-- Node3&#45;&gt;Node2 -->
<g id="edge4" class="edge"><title>Node3&#45;&gt;Node2</title>
<path fill="none" stroke="midnightblue" d="M56,-118.435C56,-109.549 56,-99.3101 56,-91.0054"/>
<polygon fill="midnightblue" stroke="midnightblue" points="52.5001,-118.717 56,-128.717 59.5001,-118.717 52.5001,-118.717"/>
</g>
<!-- Node4 -->
<g id="node6" class="node"><title>Node4</title>
<polygon fill="none" stroke="#bfbfbf" points="19.5,-187 19.5,-207 92.5,-207 92.5,-187 19.5,-187"/>
<text text-anchor="middle" x="56" y="-194" font-family="Helvetica,sans-Serif" font-size="10.00">noncopyable</text>
</g>
<!-- Node4&#45;&gt;Node3 -->
<g id="edge6" class="edge"><title>Node4&#45;&gt;Node3</title>
<path fill="none" stroke="#8b1a1a" d="M56,-176.89C56,-167.62 56,-157.008 56,-149.378"/>
<polygon fill="#8b1a1a" stroke="#8b1a1a" points="52.5001,-176.897 56,-186.897 59.5001,-176.897 52.5001,-176.897"/>
</g>
</g>
</svg>
