<?xml version="1.0" encoding="UTF-8" standalone="no"?>
<!DOCTYPE svg PUBLIC "-//W3C//DTD SVG 1.1//EN"
 "http://www.w3.org/Graphics/SVG/1.1/DTD/svg11.dtd">
<!-- Generated by graphviz version 2.26.3 (20100126.1600)
 -->
<!-- Title: prtx::BuiltinAttributesGetters Pages: 1 -->
<svg width="306pt" height="204pt"
 viewBox="0.00 0.00 306.00 204.00" xmlns="http://www.w3.org/2000/svg" xmlns:xlink="http://www.w3.org/1999/xlink">
<g id="graph1" class="graph" transform="scale(1 1) rotate(0) translate(4 200)">
<title>prtx::BuiltinAttributesGetters</title>
<!-- Node1 -->
<g id="node1" class="node"><title>Node1</title>
<polygon fill="#bfbfbf" stroke="black" points="80.5,-117 80.5,-137 221.5,-137 221.5,-117 80.5,-117"/>
<text text-anchor="middle" x="151" y="-124" font-family="Helvetica,sans-Serif" font-size="10.00">prtx::BuiltinAttributesGetters</text>
</g>
<!-- Node3 -->
<g id="node5" class="node"><title>Node3</title>
<a xlink:href="classprtx_1_1_builtin_material_attributes.html" target="_top" xlink:title="prtx::BuiltinMaterialAttributes">
<polygon fill="none" stroke="black" points="0,-59 0,-79 144,-79 144,-59 0,-59"/>
<text text-anchor="middle" x="72" y="-66" font-family="Helvetica,sans-Serif" font-size="10.00">prtx::BuiltinMaterialAttributes</text>
</a>
</g>
<!-- Node1&#45;&gt;Node3 -->
<g id="edge4" class="edge"><title>Node1&#45;&gt;Node3</title>
<path fill="none" stroke="midnightblue" d="M129.173,-110.975C115.329,-100.811 97.8358,-87.9681 85.8681,-79.1817"/>
<polygon fill="midnightblue" stroke="midnightblue" points="127.107,-113.8 137.239,-116.897 131.25,-108.158 127.107,-113.8"/>
</g>
<!-- Node5 -->
<g id="node9" class="node"><title>Node5</title>
<a xlink:href="classprtx_1_1_builtin_shape_attributes.html" target="_top" xlink:title="prtx::BuiltinShapeAttributes">
<polygon fill="none" stroke="black" points="161.5,-59 161.5,-79 298.5,-79 298.5,-59 161.5,-59"/>
<text text-anchor="middle" x="230" y="-66" font-family="Helvetica,sans-Serif" font-size="10.00">prtx::BuiltinShapeAttributes</text>
</a>
</g>
<!-- Node1&#45;&gt;Node5 -->
<g id="edge8" class="edge"><title>Node1&#45;&gt;Node5</title>
<path fill="none" stroke="midnightblue" d="M172.827,-110.975C186.671,-100.811 204.164,-87.9681 216.132,-79.1817"/>
<polygon fill="midnightblue" stroke="midnightblue" points="170.75,-108.158 164.761,-116.897 174.893,-113.8 170.75,-108.158"/>
</g>
<!-- Node2 -->
<g id="node2" class="node"><title>Node2</title>
<a xlink:href="classprtx_1_1_builtin_attributes.html" target="_top" xlink:title="prtx::BuiltinAttributes">
<polygon fill="none" stroke="black" points="96.5,-175 96.5,-195 205.5,-195 205.5,-175 96.5,-175"/>
<text text-anchor="middle" x="151" y="-182" font-family="Helvetica,sans-Serif" font-size="10.00">prtx::BuiltinAttributes</text>
</a>
</g>
<!-- Node2&#45;&gt;Node1 -->
<g id="edge2" class="edge"><title>Node2&#45;&gt;Node1</title>
<path fill="none" stroke="midnightblue" d="M151,-164.89C151,-155.62 151,-145.008 151,-137.378"/>
<polygon fill="midnightblue" stroke="midnightblue" points="147.5,-164.897 151,-174.897 154.5,-164.897 147.5,-164.897"/>
</g>
<!-- Node4 -->
<g id="node7" class="node"><title>Node4</title>
<a xlink:href="classprtx_1_1_material.html" target="_top" xlink:title="prtx::Material">
<polygon fill="none" stroke="black" points="34.5,-1 34.5,-21 109.5,-21 109.5,-1 34.5,-1"/>
<text text-anchor="middle" x="72" y="-8" font-family="Helvetica,sans-Serif" font-size="10.00">prtx::Material</text>
</a>
</g>
<!-- Node3&#45;&gt;Node4 -->
<g id="edge6" class="edge"><title>Node3&#45;&gt;Node4</title>
<path fill="none" stroke="midnightblue" d="M72,-48.8902C72,-39.6201 72,-29.0083 72,-21.3776"/>
<polygon fill="midnightblue" stroke="midnightblue" points="68.5001,-48.8971 72,-58.8972 75.5001,-48.8972 68.5001,-48.8971"/>
</g>
<!-- Node6 -->
<g id="node11" class="node"><title>Node6</title>
<a xlink:href="classprtx_1_1_shape.html" target="_top" xlink:title="prtx::Shape">
<polygon fill="none" stroke="black" points="196,-1 196,-21 264,-21 264,-1 196,-1"/>
<text text-anchor="middle" x="230" y="-8" font-family="Helvetica,sans-Serif" font-size="10.00">prtx::Shape</text>
</a>
</g>
<!-- Node5&#45;&gt;Node6 -->
<g id="edge10" class="edge"><title>Node5&#45;&gt;Node6</title>
<path fill="none" stroke="midnightblue" d="M230,-48.8902C230,-39.6201 230,-29.0083 230,-21.3776"/>
<polygon fill="midnightblue" stroke="midnightblue" points="226.5,-48.8971 230,-58.8972 233.5,-48.8972 226.5,-48.8971"/>
</g>
</g>
</svg>
