<?xml version="1.0" encoding="UTF-8" standalone="no"?>
<!DOCTYPE svg PUBLIC "-//W3C//DTD SVG 1.1//EN"
 "http://www.w3.org/Graphics/SVG/1.1/DTD/svg11.dtd">
<!-- Generated by graphviz version 2.26.3 (20100126.1600)
 -->
<!-- Title: prt::FileOutputCallbacks Pages: 1 -->
<svg width="226pt" height="146pt"
 viewBox="0.00 0.00 226.00 146.00" xmlns="http://www.w3.org/2000/svg" xmlns:xlink="http://www.w3.org/1999/xlink">
<g id="graph1" class="graph" transform="scale(1 1) rotate(0) translate(4 142)">
<title>prt::FileOutputCallbacks</title>
<!-- Node1 -->
<g id="node1" class="node"><title>Node1</title>
<polygon fill="#bfbfbf" stroke="black" points="66.5,-1 66.5,-21 189.5,-21 189.5,-1 66.5,-1"/>
<text text-anchor="middle" x="128" y="-8" font-family="Helvetica,sans-Serif" font-size="10.00">prt::FileOutputCallbacks</text>
</g>
<!-- Node2 -->
<g id="node2" class="node"><title>Node2</title>
<a xlink:href="classprt_1_1_simple_output_callbacks.html" target="_top" xlink:title="prt::SimpleOutputCallbacks">
<polygon fill="none" stroke="black" points="0,-59 0,-79 138,-79 138,-59 0,-59"/>
<text text-anchor="middle" x="69" y="-66" font-family="Helvetica,sans-Serif" font-size="10.00">prt::SimpleOutputCallbacks</text>
</a>
</g>
<!-- Node2&#45;&gt;Node1 -->
<g id="edge2" class="edge"><title>Node2&#45;&gt;Node1</title>
<path fill="none" stroke="midnightblue" d="M86.4356,-51.86C96.5039,-41.9622 108.838,-29.8377 117.443,-21.3776"/>
<polygon fill="midnightblue" stroke="midnightblue" points="83.9546,-49.3908 79.277,-58.8972 88.8619,-54.3827 83.9546,-49.3908"/>
</g>
<!-- Node3 -->
<g id="node4" class="node"><title>Node3</title>
<a xlink:href="classprt_1_1_callbacks.html" target="_top" xlink:title="prt::Callbacks">
<polygon fill="none" stroke="black" points="30.5,-117 30.5,-137 107.5,-137 107.5,-117 30.5,-117"/>
<text text-anchor="middle" x="69" y="-124" font-family="Helvetica,sans-Serif" font-size="10.00">prt::Callbacks</text>
</a>
</g>
<!-- Node3&#45;&gt;Node2 -->
<g id="edge4" class="edge"><title>Node3&#45;&gt;Node2</title>
<path fill="none" stroke="midnightblue" d="M69,-106.89C69,-97.6201 69,-87.0083 69,-79.3776"/>
<polygon fill="midnightblue" stroke="midnightblue" points="65.5001,-106.897 69,-116.897 72.5001,-106.897 65.5001,-106.897"/>
</g>
<!-- Node4 -->
<g id="node6" class="node"><title>Node4</title>
<a xlink:href="classprt_1_1_object.html" target="_top" xlink:title="prt::Object">
<polygon fill="none" stroke="black" points="155.5,-59 155.5,-79 218.5,-79 218.5,-59 155.5,-59"/>
<text text-anchor="middle" x="187" y="-66" font-family="Helvetica,sans-Serif" font-size="10.00">prt::Object</text>
</a>
</g>
<!-- Node4&#45;&gt;Node1 -->
<g id="edge6" class="edge"><title>Node4&#45;&gt;Node1</title>
<path fill="none" stroke="midnightblue" d="M169.564,-51.86C159.496,-41.9622 147.162,-29.8377 138.557,-21.3776"/>
<polygon fill="midnightblue" stroke="midnightblue" points="167.138,-54.3827 176.723,-58.8972 172.045,-49.3908 167.138,-54.3827"/>
</g>
</g>
</svg>
