<?xml version="1.0" encoding="UTF-8" standalone="no"?>
<!DOCTYPE svg PUBLIC "-//W3C//DTD SVG 1.1//EN"
 "http://www.w3.org/Graphics/SVG/1.1/DTD/svg11.dtd">
<!-- Generated by graphviz version 2.26.3 (20100126.1600)
 -->
<!-- Title: prt::FileLogHandler Pages: 1 -->
<svg width="174pt" height="88pt"
 viewBox="0.00 0.00 174.00 88.00" xmlns="http://www.w3.org/2000/svg" xmlns:xlink="http://www.w3.org/1999/xlink">
<g id="graph1" class="graph" transform="scale(1 1) rotate(0) translate(4 84)">
<title>prt::FileLogHandler</title>
<!-- Node1 -->
<g id="node1" class="node"><title>Node1</title>
<polygon fill="#bfbfbf" stroke="black" points="38.5,-1 38.5,-21 139.5,-21 139.5,-1 38.5,-1"/>
<text text-anchor="middle" x="89" y="-8" font-family="Helvetica,sans-Serif" font-size="10.00">prt::FileLogHandler</text>
</g>
<!-- Node2 -->
<g id="node2" class="node"><title>Node2</title>
<a xlink:href="classprt_1_1_log_handler.html" target="_top" xlink:title="prt::LogHandler">
<polygon fill="none" stroke="black" points="0,-59 0,-79 86,-79 86,-59 0,-59"/>
<text text-anchor="middle" x="43" y="-66" font-family="Helvetica,sans-Serif" font-size="10.00">prt::LogHandler</text>
</a>
</g>
<!-- Node2&#45;&gt;Node1 -->
<g id="edge2" class="edge"><title>Node2&#45;&gt;Node1</title>
<path fill="none" stroke="midnightblue" d="M57.2909,-50.981C65.0069,-41.2522 74.2571,-29.5889 80.7695,-21.3776"/>
<polygon fill="midnightblue" stroke="midnightblue" points="54.4843,-48.8873 51.0126,-58.8972 59.9688,-53.2371 54.4843,-48.8873"/>
</g>
<!-- Node3 -->
<g id="node4" class="node"><title>Node3</title>
<a xlink:href="classprt_1_1_object.html" target="_top" xlink:title="prt::Object">
<polygon fill="none" stroke="black" points="103.5,-59 103.5,-79 166.5,-79 166.5,-59 103.5,-59"/>
<text text-anchor="middle" x="135" y="-66" font-family="Helvetica,sans-Serif" font-size="10.00">prt::Object</text>
</a>
</g>
<!-- Node3&#45;&gt;Node1 -->
<g id="edge4" class="edge"><title>Node3&#45;&gt;Node1</title>
<path fill="none" stroke="midnightblue" d="M120.709,-50.981C112.993,-41.2522 103.743,-29.5889 97.2305,-21.3776"/>
<polygon fill="midnightblue" stroke="midnightblue" points="118.031,-53.2371 126.987,-58.8972 123.516,-48.8873 118.031,-53.2371"/>
</g>
</g>
</svg>
