<?xml version="1.0" encoding="UTF-8" standalone="no"?>
<!DOCTYPE svg PUBLIC "-//W3C//DTD SVG 1.1//EN"
 "http://www.w3.org/Graphics/SVG/1.1/DTD/svg11.dtd">
<!-- Generated by graphviz version 2.26.3 (20100126.1600)
 -->
<!-- Title: prtx::CGBDecoder Pages: 1 -->
<svg width="106pt" height="204pt"
 viewBox="0.00 0.00 106.00 204.00" xmlns="http://www.w3.org/2000/svg" xmlns:xlink="http://www.w3.org/1999/xlink">
<g id="graph1" class="graph" transform="scale(1 1) rotate(0) translate(4 200)">
<title>prtx::CGBDecoder</title>
<!-- Node1 -->
<g id="node1" class="node"><title>Node1</title>
<polygon fill="#bfbfbf" stroke="black" points="-0.5,-1 -0.5,-21 98.5,-21 98.5,-1 -0.5,-1"/>
<text text-anchor="middle" x="49" y="-8" font-family="Helvetica,sans-Serif" font-size="10.00">prtx::CGBDecoder</text>
</g>
<!-- Node2 -->
<g id="node2" class="node"><title>Node2</title>
<a xlink:href="classprtx_1_1_decoder.html" target="_top" xlink:title="prtx::Decoder">
<polygon fill="none" stroke="black" points="10.5,-59 10.5,-79 87.5,-79 87.5,-59 10.5,-59"/>
<text text-anchor="middle" x="49" y="-66" font-family="Helvetica,sans-Serif" font-size="10.00">prtx::Decoder</text>
</a>
</g>
<!-- Node2&#45;&gt;Node1 -->
<g id="edge2" class="edge"><title>Node2&#45;&gt;Node1</title>
<path fill="none" stroke="midnightblue" d="M49,-48.8902C49,-39.6201 49,-29.0083 49,-21.3776"/>
<polygon fill="midnightblue" stroke="midnightblue" points="45.5001,-48.8971 49,-58.8972 52.5001,-48.8972 45.5001,-48.8971"/>
</g>
<!-- Node3 -->
<g id="node4" class="node"><title>Node3</title>
<a xlink:href="classprtx_1_1_extension.html" target="_top" xlink:title="prtx::Extension">
<polygon fill="none" stroke="black" points="7.5,-117 7.5,-137 90.5,-137 90.5,-117 7.5,-117"/>
<text text-anchor="middle" x="49" y="-124" font-family="Helvetica,sans-Serif" font-size="10.00">prtx::Extension</text>
</a>
</g>
<!-- Node3&#45;&gt;Node2 -->
<g id="edge4" class="edge"><title>Node3&#45;&gt;Node2</title>
<path fill="none" stroke="midnightblue" d="M49,-106.89C49,-97.6201 49,-87.0083 49,-79.3776"/>
<polygon fill="midnightblue" stroke="midnightblue" points="45.5001,-106.897 49,-116.897 52.5001,-106.897 45.5001,-106.897"/>
</g>
<!-- Node4 -->
<g id="node6" class="node"><title>Node4</title>
<polygon fill="none" stroke="#bfbfbf" points="12.5,-175 12.5,-195 85.5,-195 85.5,-175 12.5,-175"/>
<text text-anchor="middle" x="49" y="-182" font-family="Helvetica,sans-Serif" font-size="10.00">noncopyable</text>
</g>
<!-- Node4&#45;&gt;Node3 -->
<g id="edge6" class="edge"><title>Node4&#45;&gt;Node3</title>
<path fill="none" stroke="#8b1a1a" d="M49,-164.89C49,-155.62 49,-145.008 49,-137.378"/>
<polygon fill="#8b1a1a" stroke="#8b1a1a" points="45.5001,-164.897 49,-174.897 52.5001,-164.897 45.5001,-164.897"/>
</g>
</g>
</svg>
