<?xml version="1.0" encoding="UTF-8" standalone="no"?>
<!DOCTYPE svg PUBLIC "-//W3C//DTD SVG 1.1//EN"
 "http://www.w3.org/Graphics/SVG/1.1/DTD/svg11.dtd">
<!-- Generated by graphviz version 2.26.3 (20100126.1600)
 -->
<!-- Title: prtx::TextureDecoder Pages: 1 -->
<svg width="118pt" height="204pt"
 viewBox="0.00 0.00 118.00 204.00" xmlns="http://www.w3.org/2000/svg" xmlns:xlink="http://www.w3.org/1999/xlink">
<g id="graph1" class="graph" transform="scale(1 1) rotate(0) translate(4 200)">
<title>prtx::TextureDecoder</title>
<!-- Node1 -->
<g id="node1" class="node"><title>Node1</title>
<polygon fill="#bfbfbf" stroke="black" points="0,-1 0,-21 110,-21 110,-1 0,-1"/>
<text text-anchor="middle" x="55" y="-8" font-family="Helvetica,sans-Serif" font-size="10.00">prtx::TextureDecoder</text>
</g>
<!-- Node2 -->
<g id="node2" class="node"><title>Node2</title>
<a xlink:href="classprtx_1_1_decoder.html" target="_top" xlink:title="prtx::Decoder">
<polygon fill="none" stroke="black" points="16.5,-59 16.5,-79 93.5,-79 93.5,-59 16.5,-59"/>
<text text-anchor="middle" x="55" y="-66" font-family="Helvetica,sans-Serif" font-size="10.00">prtx::Decoder</text>
</a>
</g>
<!-- Node2&#45;&gt;Node1 -->
<g id="edge2" class="edge"><title>Node2&#45;&gt;Node1</title>
<path fill="none" stroke="midnightblue" d="M55,-48.8902C55,-39.6201 55,-29.0083 55,-21.3776"/>
<polygon fill="midnightblue" stroke="midnightblue" points="51.5001,-48.8971 55,-58.8972 58.5001,-48.8972 51.5001,-48.8971"/>
</g>
<!-- Node3 -->
<g id="node4" class="node"><title>Node3</title>
<a xlink:href="classprtx_1_1_extension.html" target="_top" xlink:title="prtx::Extension">
<polygon fill="none" stroke="black" points="13.5,-117 13.5,-137 96.5,-137 96.5,-117 13.5,-117"/>
<text text-anchor="middle" x="55" y="-124" font-family="Helvetica,sans-Serif" font-size="10.00">prtx::Extension</text>
</a>
</g>
<!-- Node3&#45;&gt;Node2 -->
<g id="edge4" class="edge"><title>Node3&#45;&gt;Node2</title>
<path fill="none" stroke="midnightblue" d="M55,-106.89C55,-97.6201 55,-87.0083 55,-79.3776"/>
<polygon fill="midnightblue" stroke="midnightblue" points="51.5001,-106.897 55,-116.897 58.5001,-106.897 51.5001,-106.897"/>
</g>
<!-- Node4 -->
<g id="node6" class="node"><title>Node4</title>
<polygon fill="none" stroke="#bfbfbf" points="18.5,-175 18.5,-195 91.5,-195 91.5,-175 18.5,-175"/>
<text text-anchor="middle" x="55" y="-182" font-family="Helvetica,sans-Serif" font-size="10.00">noncopyable</text>
</g>
<!-- Node4&#45;&gt;Node3 -->
<g id="edge6" class="edge"><title>Node4&#45;&gt;Node3</title>
<path fill="none" stroke="#8b1a1a" d="M55,-164.89C55,-155.62 55,-145.008 55,-137.378"/>
<polygon fill="#8b1a1a" stroke="#8b1a1a" points="51.5001,-164.897 55,-174.897 58.5001,-164.897 51.5001,-164.897"/>
</g>
</g>
</svg>
