<?xml version="1.0" encoding="UTF-8" standalone="no"?>
<!DOCTYPE svg PUBLIC "-//W3C//DTD SVG 1.1//EN"
 "http://www.w3.org/Graphics/SVG/1.1/DTD/svg11.dtd">
<!-- Generated by graphviz version 2.26.3 (20100126.1600)
 -->
<!-- Title: prtx::Texture Pages: 1 -->
<svg width="244pt" height="204pt"
 viewBox="0.00 0.00 244.00 204.00" xmlns="http://www.w3.org/2000/svg" xmlns:xlink="http://www.w3.org/1999/xlink">
<g id="graph1" class="graph" transform="scale(1 1) rotate(0) translate(4 200)">
<title>prtx::Texture</title>
<!-- Node1 -->
<g id="node1" class="node"><title>Node1</title>
<polygon fill="#bfbfbf" stroke="black" points="72,-1 72,-21 144,-21 144,-1 72,-1"/>
<text text-anchor="middle" x="108" y="-8" font-family="Helvetica,sans-Serif" font-size="10.00">prtx::Texture</text>
</g>
<!-- Node2 -->
<g id="node2" class="node"><title>Node2</title>
<a xlink:href="classprtx_1_1_attributable.html" target="_top" xlink:title="prtx::Attributable">
<polygon fill="none" stroke="black" points="0,-59 0,-79 90,-79 90,-59 0,-59"/>
<text text-anchor="middle" x="45" y="-66" font-family="Helvetica,sans-Serif" font-size="10.00">prtx::Attributable</text>
</a>
</g>
<!-- Node2&#45;&gt;Node1 -->
<g id="edge2" class="edge"><title>Node2&#45;&gt;Node1</title>
<path fill="none" stroke="midnightblue" d="M63.6176,-51.86C74.3686,-41.9622 87.5383,-29.8377 96.7278,-21.3776"/>
<polygon fill="midnightblue" stroke="midnightblue" points="60.9602,-49.5491 55.9738,-58.8972 65.7014,-54.699 60.9602,-49.5491"/>
</g>
<!-- Node3 -->
<g id="node4" class="node"><title>Node3</title>
<a xlink:href="classprtx_1_1_comparable_content.html" target="_top" xlink:title="prtx::ComparableContent">
<polygon fill="none" stroke="black" points="108,-59 108,-79 236,-79 236,-59 108,-59"/>
<text text-anchor="middle" x="172" y="-66" font-family="Helvetica,sans-Serif" font-size="10.00">prtx::ComparableContent</text>
</a>
</g>
<!-- Node3&#45;&gt;Node1 -->
<g id="edge4" class="edge"><title>Node3&#45;&gt;Node1</title>
<path fill="none" stroke="midnightblue" d="M153.407,-52.1504C142.428,-42.2003 128.878,-29.9207 119.451,-21.3776"/>
<polygon fill="midnightblue" stroke="midnightblue" points="151.092,-54.7754 160.852,-58.8972 155.792,-49.5885 151.092,-54.7754"/>
</g>
<!-- Node4 -->
<g id="node6" class="node"><title>Node4</title>
<a xlink:href="classprtx_1_1_content.html" target="_top" xlink:title="prtx::Content">
<polygon fill="none" stroke="black" points="135,-117 135,-137 209,-137 209,-117 135,-117"/>
<text text-anchor="middle" x="172" y="-124" font-family="Helvetica,sans-Serif" font-size="10.00">prtx::Content</text>
</a>
</g>
<!-- Node4&#45;&gt;Node3 -->
<g id="edge6" class="edge"><title>Node4&#45;&gt;Node3</title>
<path fill="none" stroke="midnightblue" d="M172,-106.89C172,-97.6201 172,-87.0083 172,-79.3776"/>
<polygon fill="midnightblue" stroke="midnightblue" points="168.5,-106.897 172,-116.897 175.5,-106.897 168.5,-106.897"/>
</g>
<!-- Node5 -->
<g id="node8" class="node"><title>Node5</title>
<polygon fill="none" stroke="#bfbfbf" points="135.5,-175 135.5,-195 208.5,-195 208.5,-175 135.5,-175"/>
<text text-anchor="middle" x="172" y="-182" font-family="Helvetica,sans-Serif" font-size="10.00">noncopyable</text>
</g>
<!-- Node5&#45;&gt;Node4 -->
<g id="edge8" class="edge"><title>Node5&#45;&gt;Node4</title>
<path fill="none" stroke="#8b1a1a" d="M172,-164.89C172,-155.62 172,-145.008 172,-137.378"/>
<polygon fill="#8b1a1a" stroke="#8b1a1a" points="168.5,-164.897 172,-174.897 175.5,-164.897 168.5,-164.897"/>
</g>
</g>
</svg>
