<?xml version="1.0" encoding="UTF-8" standalone="no"?>
<!DOCTYPE svg PUBLIC "-//W3C//DTD SVG 1.1//EN"
 "http://www.w3.org/Graphics/SVG/1.1/DTD/svg11.dtd">
<!-- Generated by graphviz version 2.26.3 (20100126.1600)
 -->
<!-- Title: prtx::ComparableContent Pages: 1 -->
<svg width="262pt" height="204pt"
 viewBox="0.00 0.00 262.00 204.00" xmlns="http://www.w3.org/2000/svg" xmlns:xlink="http://www.w3.org/1999/xlink">
<g id="graph1" class="graph" transform="scale(1 1) rotate(0) translate(4 200)">
<title>prtx::ComparableContent</title>
<!-- Node1 -->
<g id="node1" class="node"><title>Node1</title>
<polygon fill="#bfbfbf" stroke="black" points="64,-59 64,-79 192,-79 192,-59 64,-59"/>
<text text-anchor="middle" x="128" y="-66" font-family="Helvetica,sans-Serif" font-size="10.00">prtx::ComparableContent</text>
</g>
<!-- Node4 -->
<g id="node7" class="node"><title>Node4</title>
<a xlink:href="classprtx_1_1_material.html" target="_top" xlink:title="prtx::Material">
<polygon fill="none" stroke="black" points="-0.5,-1 -0.5,-21 74.5,-21 74.5,-1 -0.5,-1"/>
<text text-anchor="middle" x="37" y="-8" font-family="Helvetica,sans-Serif" font-size="10.00">prtx::Material</text>
</a>
</g>
<!-- Node1&#45;&gt;Node4 -->
<g id="edge6" class="edge"><title>Node1&#45;&gt;Node4</title>
<path fill="none" stroke="midnightblue" d="M103.307,-53.2619C87.2909,-43.0535 66.8903,-30.051 52.9747,-21.1817"/>
<polygon fill="midnightblue" stroke="midnightblue" points="101.835,-56.4739 112.149,-58.8972 105.597,-50.5709 101.835,-56.4739"/>
</g>
<!-- Node5 -->
<g id="node9" class="node"><title>Node5</title>
<a xlink:href="classprtx_1_1_shader.html" target="_top" xlink:title="prtx::Shader">
<polygon fill="none" stroke="black" points="92,-1 92,-21 164,-21 164,-1 92,-1"/>
<text text-anchor="middle" x="128" y="-8" font-family="Helvetica,sans-Serif" font-size="10.00">prtx::Shader</text>
</a>
</g>
<!-- Node1&#45;&gt;Node5 -->
<g id="edge8" class="edge"><title>Node1&#45;&gt;Node5</title>
<path fill="none" stroke="midnightblue" d="M128,-48.8902C128,-39.6201 128,-29.0083 128,-21.3776"/>
<polygon fill="midnightblue" stroke="midnightblue" points="124.5,-48.8971 128,-58.8972 131.5,-48.8972 124.5,-48.8971"/>
</g>
<!-- Node6 -->
<g id="node11" class="node"><title>Node6</title>
<a xlink:href="classprtx_1_1_texture.html" target="_top" xlink:title="prtx::Texture">
<polygon fill="none" stroke="black" points="182,-1 182,-21 254,-21 254,-1 182,-1"/>
<text text-anchor="middle" x="218" y="-8" font-family="Helvetica,sans-Serif" font-size="10.00">prtx::Texture</text>
</a>
</g>
<!-- Node1&#45;&gt;Node6 -->
<g id="edge10" class="edge"><title>Node1&#45;&gt;Node6</title>
<path fill="none" stroke="midnightblue" d="M152.421,-53.2619C168.262,-43.0535 188.438,-30.051 202.201,-21.1817"/>
<polygon fill="midnightblue" stroke="midnightblue" points="150.187,-50.5381 143.677,-58.8972 153.978,-56.4221 150.187,-50.5381"/>
</g>
<!-- Node2 -->
<g id="node2" class="node"><title>Node2</title>
<a xlink:href="classprtx_1_1_content.html" target="_top" xlink:title="prtx::Content">
<polygon fill="none" stroke="black" points="91,-117 91,-137 165,-137 165,-117 91,-117"/>
<text text-anchor="middle" x="128" y="-124" font-family="Helvetica,sans-Serif" font-size="10.00">prtx::Content</text>
</a>
</g>
<!-- Node2&#45;&gt;Node1 -->
<g id="edge2" class="edge"><title>Node2&#45;&gt;Node1</title>
<path fill="none" stroke="midnightblue" d="M128,-106.89C128,-97.6201 128,-87.0083 128,-79.3776"/>
<polygon fill="midnightblue" stroke="midnightblue" points="124.5,-106.897 128,-116.897 131.5,-106.897 124.5,-106.897"/>
</g>
<!-- Node3 -->
<g id="node4" class="node"><title>Node3</title>
<polygon fill="none" stroke="#bfbfbf" points="91.5,-175 91.5,-195 164.5,-195 164.5,-175 91.5,-175"/>
<text text-anchor="middle" x="128" y="-182" font-family="Helvetica,sans-Serif" font-size="10.00">noncopyable</text>
</g>
<!-- Node3&#45;&gt;Node2 -->
<g id="edge4" class="edge"><title>Node3&#45;&gt;Node2</title>
<path fill="none" stroke="#8b1a1a" d="M128,-164.89C128,-155.62 128,-145.008 128,-137.378"/>
<polygon fill="#8b1a1a" stroke="#8b1a1a" points="124.5,-164.897 128,-174.897 131.5,-164.897 124.5,-164.897"/>
</g>
</g>
</svg>
