<?xml version="1.0" encoding="UTF-8" standalone="no"?>
<!DOCTYPE svg PUBLIC "-//W3C//DTD SVG 1.1//EN"
 "http://www.w3.org/Graphics/SVG/1.1/DTD/svg11.dtd">
<!-- Generated by graphviz version 2.26.3 (20100126.1600)
 -->
<!-- Title: prtx::EncoderInfoBuilder Pages: 1 -->
<svg width="132pt" height="228pt"
 viewBox="0.00 0.00 132.00 228.00" xmlns="http://www.w3.org/2000/svg" xmlns:xlink="http://www.w3.org/1999/xlink">
<g id="graph1" class="graph" transform="scale(1 1) rotate(0) translate(4 224)">
<title>prtx::EncoderInfoBuilder</title>
<!-- Node1 -->
<g id="node1" class="node"><title>Node1</title>
<polygon fill="#bfbfbf" stroke="black" points="0,-1 0,-21 124,-21 124,-1 0,-1"/>
<text text-anchor="middle" x="62" y="-8" font-family="Helvetica,sans-Serif" font-size="10.00">prtx::EncoderInfoBuilder</text>
</g>
<!-- Node2 -->
<g id="node2" class="node"><title>Node2</title>
<a xlink:href="classprtx_1_1_p_r_t_builder.html" target="_top" xlink:title="prtx::PRTBuilder\&lt; const\l prt::EncoderInfo \&gt;">
<polygon fill="none" stroke="black" points="0.5,-59 0.5,-91 123.5,-91 123.5,-59 0.5,-59"/>
<text text-anchor="start" x="8.5" y="-78" font-family="Helvetica,sans-Serif" font-size="10.00">prtx::PRTBuilder&lt; const</text>
<text text-anchor="middle" x="62" y="-66" font-family="Helvetica,sans-Serif" font-size="10.00"> prt::EncoderInfo &gt;</text>
</a>
</g>
<!-- Node2&#45;&gt;Node1 -->
<g id="edge2" class="edge"><title>Node2&#45;&gt;Node1</title>
<path fill="none" stroke="midnightblue" d="M62,-48.7639C62,-39.0394 62,-28.5805 62,-21.141"/>
<polygon fill="midnightblue" stroke="midnightblue" points="58.5001,-48.8501 62,-58.8501 65.5001,-48.8501 58.5001,-48.8501"/>
</g>
<!-- Node3 -->
<g id="node4" class="node"><title>Node3</title>
<a xlink:href="classprtx_1_1_builder.html" target="_top" xlink:title="prtx::Builder\&lt; const\l prt::EncoderInfo \&gt;">
<polygon fill="none" stroke="black" points="10.5,-129 10.5,-161 113.5,-161 113.5,-129 10.5,-129"/>
<text text-anchor="start" x="18.5" y="-148" font-family="Helvetica,sans-Serif" font-size="10.00">prtx::Builder&lt; const</text>
<text text-anchor="middle" x="62" y="-136" font-family="Helvetica,sans-Serif" font-size="10.00"> prt::EncoderInfo &gt;</text>
</a>
</g>
<!-- Node3&#45;&gt;Node2 -->
<g id="edge4" class="edge"><title>Node3&#45;&gt;Node2</title>
<path fill="none" stroke="midnightblue" d="M62,-118.508C62,-109.303 62,-99.2615 62,-91.1473"/>
<polygon fill="midnightblue" stroke="midnightblue" points="58.5001,-118.765 62,-128.765 65.5001,-118.765 58.5001,-118.765"/>
</g>
<!-- Node4 -->
<g id="node6" class="node"><title>Node4</title>
<polygon fill="none" stroke="#bfbfbf" points="10.5,-199 10.5,-219 113.5,-219 113.5,-199 10.5,-199"/>
<text text-anchor="middle" x="62" y="-206" font-family="Helvetica,sans-Serif" font-size="10.00">boost::noncopyable</text>
</g>
<!-- Node4&#45;&gt;Node3 -->
<g id="edge6" class="edge"><title>Node4&#45;&gt;Node3</title>
<path fill="none" stroke="#8b1a1a" d="M62,-188.435C62,-179.549 62,-169.31 62,-161.005"/>
<polygon fill="#8b1a1a" stroke="#8b1a1a" points="58.5001,-188.717 62,-198.717 65.5001,-188.717 58.5001,-188.717"/>
</g>
</g>
</svg>
