<?xml version="1.0" encoding="UTF-8" standalone="no"?>
<!DOCTYPE svg PUBLIC "-//W3C//DTD SVG 1.1//EN"
 "http://www.w3.org/Graphics/SVG/1.1/DTD/svg11.dtd">
<!-- Generated by graphviz version 2.26.3 (20100126.1600)
 -->
<!-- Title: prtx::Builder&lt; C &gt; Pages: 1 -->
<svg width="260pt" height="146pt"
 viewBox="0.00 0.00 260.00 146.00" xmlns="http://www.w3.org/2000/svg" xmlns:xlink="http://www.w3.org/1999/xlink">
<g id="graph1" class="graph" transform="scale(1 1) rotate(0) translate(4 142)">
<title>prtx::Builder&lt; C &gt;</title>
<!-- Node1 -->
<g id="node1" class="node"><title>Node1</title>
<polygon fill="#bfbfbf" stroke="black" points="76.5,-59 76.5,-79 171.5,-79 171.5,-59 76.5,-59"/>
<text text-anchor="middle" x="124" y="-66" font-family="Helvetica,sans-Serif" font-size="10.00">prtx::Builder&lt; C &gt;</text>
</g>
<!-- Node3 -->
<g id="node5" class="node"><title>Node3</title>
<a xlink:href="classprtx_1_1_p_r_t_builder.html" target="_top" xlink:title="prtx::PRTBuilder\&lt; C \&gt;">
<polygon fill="none" stroke="black" points="-0.5,-1 -0.5,-21 114.5,-21 114.5,-1 -0.5,-1"/>
<text text-anchor="middle" x="57" y="-8" font-family="Helvetica,sans-Serif" font-size="10.00">prtx::PRTBuilder&lt; C &gt;</text>
</a>
</g>
<!-- Node1&#45;&gt;Node3 -->
<g id="edge4" class="edge"><title>Node1&#45;&gt;Node3</title>
<path fill="none" stroke="midnightblue" d="M104.536,-52.1504C93.0418,-42.2003 78.8566,-29.9207 68.9879,-21.3776"/>
<polygon fill="midnightblue" stroke="midnightblue" points="102.478,-54.9984 112.329,-58.8972 107.06,-49.7059 102.478,-54.9984"/>
</g>
<!-- Node4 -->
<g id="node7" class="node"><title>Node4</title>
<a xlink:href="classprtx_1_1_p_r_t_x_builder.html" target="_top" xlink:title="prtx::PRTXBuilder\&lt; C \&gt;">
<polygon fill="none" stroke="black" points="131.5,-1 131.5,-21 252.5,-21 252.5,-1 131.5,-1"/>
<text text-anchor="middle" x="192" y="-8" font-family="Helvetica,sans-Serif" font-size="10.00">prtx::PRTXBuilder&lt; C &gt;</text>
</a>
</g>
<!-- Node1&#45;&gt;Node4 -->
<g id="edge6" class="edge"><title>Node1&#45;&gt;Node4</title>
<path fill="none" stroke="midnightblue" d="M143.755,-52.1504C155.42,-42.2003 169.817,-29.9207 179.833,-21.3776"/>
<polygon fill="midnightblue" stroke="midnightblue" points="141.182,-49.7447 135.845,-58.8972 145.724,-55.0706 141.182,-49.7447"/>
</g>
<!-- Node2 -->
<g id="node2" class="node"><title>Node2</title>
<polygon fill="none" stroke="#bfbfbf" points="87.5,-117 87.5,-137 160.5,-137 160.5,-117 87.5,-117"/>
<text text-anchor="middle" x="124" y="-124" font-family="Helvetica,sans-Serif" font-size="10.00">noncopyable</text>
</g>
<!-- Node2&#45;&gt;Node1 -->
<g id="edge2" class="edge"><title>Node2&#45;&gt;Node1</title>
<path fill="none" stroke="#8b1a1a" d="M124,-106.89C124,-97.6201 124,-87.0083 124,-79.3776"/>
<polygon fill="#8b1a1a" stroke="#8b1a1a" points="120.5,-106.897 124,-116.897 127.5,-106.897 120.5,-106.897"/>
</g>
</g>
</svg>
