<?xml version="1.0" encoding="UTF-8" standalone="no"?>
<!DOCTYPE svg PUBLIC "-//W3C//DTD SVG 1.1//EN"
 "http://www.w3.org/Graphics/SVG/1.1/DTD/svg11.dtd">
<!-- Generated by graphviz version 2.26.3 (20100126.1600)
 -->
<!-- Title: prtx::BuiltinAttributes Pages: 1 -->
<svg width="618pt" height="116pt"
 viewBox="0.00 0.00 618.00 116.00" xmlns="http://www.w3.org/2000/svg" xmlns:xlink="http://www.w3.org/1999/xlink">
<g id="graph1" class="graph" transform="scale(1 1) rotate(0) translate(4 112)">
<title>prtx::BuiltinAttributes</title>
<!-- Node1 -->
<g id="node1" class="node"><title>Node1</title>
<polygon fill="#bfbfbf" stroke="black" points="0.5,-29 0.5,-49 109.5,-49 109.5,-29 0.5,-29"/>
<text text-anchor="middle" x="55" y="-36" font-family="Helvetica,sans-Serif" font-size="10.00">prtx::BuiltinAttributes</text>
</g>
<!-- Node2 -->
<g id="node3" class="node"><title>Node2</title>
<a xlink:href="classprtx_1_1_builtin_attributes_getters.html" target="_top" xlink:title="prtx::BuiltinAttributesGetters">
<polygon fill="none" stroke="black" points="146.5,-50 146.5,-70 287.5,-70 287.5,-50 146.5,-50"/>
<text text-anchor="middle" x="217" y="-57" font-family="Helvetica,sans-Serif" font-size="10.00">prtx::BuiltinAttributesGetters</text>
</a>
</g>
<!-- Node1&#45;&gt;Node2 -->
<g id="edge2" class="edge"><title>Node1&#45;&gt;Node2</title>
<path fill="none" stroke="midnightblue" d="M119.929,-47.4167C128.641,-48.5461 137.612,-49.709 146.416,-50.8502"/>
<polygon fill="midnightblue" stroke="midnightblue" points="120.213,-43.9243 109.846,-46.1096 119.313,-50.8662 120.213,-43.9243"/>
</g>
<!-- Node7 -->
<g id="node13" class="node"><title>Node7</title>
<a xlink:href="classprtx_1_1_builtin_attributes_setters.html" target="_top" xlink:title="prtx::BuiltinAttributesSetters">
<polygon fill="none" stroke="black" points="147,-9 147,-29 287,-29 287,-9 147,-9"/>
<text text-anchor="middle" x="217" y="-16" font-family="Helvetica,sans-Serif" font-size="10.00">prtx::BuiltinAttributesSetters</text>
</a>
</g>
<!-- Node1&#45;&gt;Node7 -->
<g id="edge12" class="edge"><title>Node1&#45;&gt;Node7</title>
<path fill="none" stroke="midnightblue" d="M119.8,-31C128.742,-29.896 137.959,-28.7582 146.99,-27.6433"/>
<polygon fill="midnightblue" stroke="midnightblue" points="119.342,-27.5299 109.846,-32.2289 120.199,-34.4772 119.342,-27.5299"/>
</g>
<!-- Node3 -->
<g id="node5" class="node"><title>Node3</title>
<a xlink:href="classprtx_1_1_builtin_material_attributes.html" target="_top" xlink:title="prtx::BuiltinMaterialAttributes">
<polygon fill="none" stroke="black" points="324,-88 324,-108 468,-108 468,-88 324,-88"/>
<text text-anchor="middle" x="396" y="-95" font-family="Helvetica,sans-Serif" font-size="10.00">prtx::BuiltinMaterialAttributes</text>
</a>
</g>
<!-- Node2&#45;&gt;Node3 -->
<g id="edge4" class="edge"><title>Node2&#45;&gt;Node3</title>
<path fill="none" stroke="midnightblue" d="M274.51,-72.2089C298.428,-77.2864 325.855,-83.1089 348.59,-87.9353"/>
<polygon fill="midnightblue" stroke="midnightblue" points="275.008,-68.7365 264.499,-70.0835 273.554,-75.5839 275.008,-68.7365"/>
</g>
<!-- Node5 -->
<g id="node9" class="node"><title>Node5</title>
<a xlink:href="classprtx_1_1_builtin_shape_attributes.html" target="_top" xlink:title="prtx::BuiltinShapeAttributes">
<polygon fill="none" stroke="black" points="327.5,-50 327.5,-70 464.5,-70 464.5,-50 327.5,-50"/>
<text text-anchor="middle" x="396" y="-57" font-family="Helvetica,sans-Serif" font-size="10.00">prtx::BuiltinShapeAttributes</text>
</a>
</g>
<!-- Node2&#45;&gt;Node5 -->
<g id="edge8" class="edge"><title>Node2&#45;&gt;Node5</title>
<path fill="none" stroke="midnightblue" d="M297.888,-60C307.688,-60 317.628,-60 327.23,-60"/>
<polygon fill="midnightblue" stroke="midnightblue" points="297.746,-56.5001 287.746,-60 297.746,-63.5001 297.746,-56.5001"/>
</g>
<!-- Node4 -->
<g id="node7" class="node"><title>Node4</title>
<a xlink:href="classprtx_1_1_material.html" target="_top" xlink:title="prtx::Material">
<polygon fill="none" stroke="black" points="519.5,-88 519.5,-108 594.5,-108 594.5,-88 519.5,-88"/>
<text text-anchor="middle" x="557" y="-95" font-family="Helvetica,sans-Serif" font-size="10.00">prtx::Material</text>
</a>
</g>
<!-- Node3&#45;&gt;Node4 -->
<g id="edge6" class="edge"><title>Node3&#45;&gt;Node4</title>
<path fill="none" stroke="midnightblue" d="M478.043,-98C492.534,-98 506.959,-98 519.437,-98"/>
<polygon fill="midnightblue" stroke="midnightblue" points="478.024,-94.5001 468.024,-98 478.024,-101.5 478.024,-94.5001"/>
</g>
<!-- Node6 -->
<g id="node11" class="node"><title>Node6</title>
<a xlink:href="classprtx_1_1_shape.html" target="_top" xlink:title="prtx::Shape">
<polygon fill="none" stroke="black" points="523,-50 523,-70 591,-70 591,-50 523,-50"/>
<text text-anchor="middle" x="557" y="-57" font-family="Helvetica,sans-Serif" font-size="10.00">prtx::Shape</text>
</a>
</g>
<!-- Node5&#45;&gt;Node6 -->
<g id="edge10" class="edge"><title>Node5&#45;&gt;Node6</title>
<path fill="none" stroke="midnightblue" d="M475.12,-60C491.839,-60 508.637,-60 522.63,-60"/>
<polygon fill="midnightblue" stroke="midnightblue" points="474.746,-56.5001 464.745,-60 474.745,-63.5001 474.746,-56.5001"/>
</g>
<!-- Node8 -->
<g id="node15" class="node"><title>Node8</title>
<a xlink:href="classprtx_1_1_builtin_material_attributes_builder.html" target="_top" xlink:title="prtx::BuiltinMaterialAttributes\lBuilder">
<polygon fill="none" stroke="black" points="324,-0 324,-32 468,-32 468,-0 324,-0"/>
<text text-anchor="start" x="332" y="-19" font-family="Helvetica,sans-Serif" font-size="10.00">prtx::BuiltinMaterialAttributes</text>
<text text-anchor="middle" x="396" y="-7" font-family="Helvetica,sans-Serif" font-size="10.00">Builder</text>
</a>
</g>
<!-- Node7&#45;&gt;Node8 -->
<g id="edge14" class="edge"><title>Node7&#45;&gt;Node8</title>
<path fill="none" stroke="midnightblue" d="M297.492,-17.651C306.296,-17.5034 315.217,-17.3539 323.91,-17.2082"/>
<polygon fill="midnightblue" stroke="midnightblue" points="297.172,-14.1558 287.232,-17.8229 297.289,-21.1548 297.172,-14.1558"/>
</g>
<!-- Node9 -->
<g id="node17" class="node"><title>Node9</title>
<a xlink:href="classprtx_1_1_material_builder.html" target="_top" xlink:title="prtx::MaterialBuilder">
<polygon fill="none" stroke="black" points="504,-6 504,-26 610,-26 610,-6 504,-6"/>
<text text-anchor="middle" x="557" y="-13" font-family="Helvetica,sans-Serif" font-size="10.00">prtx::MaterialBuilder</text>
</a>
</g>
<!-- Node8&#45;&gt;Node9 -->
<g id="edge16" class="edge"><title>Node8&#45;&gt;Node9</title>
<path fill="none" stroke="midnightblue" d="M478.233,-16C486.94,-16 495.619,-16 503.864,-16"/>
<polygon fill="midnightblue" stroke="midnightblue" points="478.024,-12.5001 468.024,-16 478.024,-19.5001 478.024,-12.5001"/>
</g>
</g>
</svg>
