<?xml version="1.0" encoding="UTF-8" standalone="no"?>
<!DOCTYPE svg PUBLIC "-//W3C//DTD SVG 1.1//EN"
 "http://www.w3.org/Graphics/SVG/1.1/DTD/svg11.dtd">
<!-- Generated by graphviz version 2.26.3 (20100126.1600)
 -->
<!-- Title: prtx::Material Pages: 1 -->
<svg width="406pt" height="204pt"
 viewBox="0.00 0.00 406.00 204.00" xmlns="http://www.w3.org/2000/svg" xmlns:xlink="http://www.w3.org/1999/xlink">
<g id="graph1" class="graph" transform="scale(1 1) rotate(0) translate(4 200)">
<title>prtx::Material</title>
<!-- Node1 -->
<g id="node1" class="node"><title>Node1</title>
<polygon fill="#bfbfbf" stroke="black" points="134.5,-1 134.5,-21 209.5,-21 209.5,-1 134.5,-1"/>
<text text-anchor="middle" x="172" y="-8" font-family="Helvetica,sans-Serif" font-size="10.00">prtx::Material</text>
</g>
<!-- Node2 -->
<g id="node2" class="node"><title>Node2</title>
<a xlink:href="classprtx_1_1_attributable.html" target="_top" xlink:title="prtx::Attributable">
<polygon fill="none" stroke="black" points="0,-59 0,-79 90,-79 90,-59 0,-59"/>
<text text-anchor="middle" x="45" y="-66" font-family="Helvetica,sans-Serif" font-size="10.00">prtx::Attributable</text>
</a>
</g>
<!-- Node2&#45;&gt;Node1 -->
<g id="edge2" class="edge"><title>Node2&#45;&gt;Node1</title>
<path fill="none" stroke="midnightblue" d="M76.3691,-54.674C99.1332,-44.2778 129.377,-30.4654 149.706,-21.1817"/>
<polygon fill="midnightblue" stroke="midnightblue" points="74.764,-51.5592 67.1217,-58.8972 77.672,-57.9266 74.764,-51.5592"/>
</g>
<!-- Node3 -->
<g id="node4" class="node"><title>Node3</title>
<a xlink:href="classprtx_1_1_comparable_content.html" target="_top" xlink:title="prtx::ComparableContent">
<polygon fill="none" stroke="black" points="108,-59 108,-79 236,-79 236,-59 108,-59"/>
<text text-anchor="middle" x="172" y="-66" font-family="Helvetica,sans-Serif" font-size="10.00">prtx::ComparableContent</text>
</a>
</g>
<!-- Node3&#45;&gt;Node1 -->
<g id="edge4" class="edge"><title>Node3&#45;&gt;Node1</title>
<path fill="none" stroke="midnightblue" d="M172,-48.8902C172,-39.6201 172,-29.0083 172,-21.3776"/>
<polygon fill="midnightblue" stroke="midnightblue" points="168.5,-48.8971 172,-58.8972 175.5,-48.8972 168.5,-48.8971"/>
</g>
<!-- Node4 -->
<g id="node6" class="node"><title>Node4</title>
<a xlink:href="classprtx_1_1_content.html" target="_top" xlink:title="prtx::Content">
<polygon fill="none" stroke="black" points="135,-117 135,-137 209,-137 209,-117 135,-117"/>
<text text-anchor="middle" x="172" y="-124" font-family="Helvetica,sans-Serif" font-size="10.00">prtx::Content</text>
</a>
</g>
<!-- Node4&#45;&gt;Node3 -->
<g id="edge6" class="edge"><title>Node4&#45;&gt;Node3</title>
<path fill="none" stroke="midnightblue" d="M172,-106.89C172,-97.6201 172,-87.0083 172,-79.3776"/>
<polygon fill="midnightblue" stroke="midnightblue" points="168.5,-106.897 172,-116.897 175.5,-106.897 168.5,-106.897"/>
</g>
<!-- Node5 -->
<g id="node8" class="node"><title>Node5</title>
<polygon fill="none" stroke="#bfbfbf" points="135.5,-175 135.5,-195 208.5,-195 208.5,-175 135.5,-175"/>
<text text-anchor="middle" x="172" y="-182" font-family="Helvetica,sans-Serif" font-size="10.00">noncopyable</text>
</g>
<!-- Node5&#45;&gt;Node4 -->
<g id="edge8" class="edge"><title>Node5&#45;&gt;Node4</title>
<path fill="none" stroke="#8b1a1a" d="M172,-164.89C172,-155.62 172,-145.008 172,-137.378"/>
<polygon fill="#8b1a1a" stroke="#8b1a1a" points="168.5,-164.897 172,-174.897 175.5,-164.897 168.5,-164.897"/>
</g>
<!-- Node6 -->
<g id="node10" class="node"><title>Node6</title>
<a xlink:href="classprtx_1_1_builtin_material_attributes.html" target="_top" xlink:title="prtx::BuiltinMaterialAttributes">
<polygon fill="none" stroke="black" points="254,-59 254,-79 398,-79 398,-59 254,-59"/>
<text text-anchor="middle" x="326" y="-66" font-family="Helvetica,sans-Serif" font-size="10.00">prtx::BuiltinMaterialAttributes</text>
</a>
</g>
<!-- Node6&#45;&gt;Node1 -->
<g id="edge10" class="edge"><title>Node6&#45;&gt;Node1</title>
<path fill="none" stroke="midnightblue" d="M289.766,-55.3536C261.879,-44.8504 223.966,-30.5716 198.775,-21.0842"/>
<polygon fill="midnightblue" stroke="midnightblue" points="288.583,-58.648 299.175,-58.8972 291.051,-52.0972 288.583,-58.648"/>
</g>
<!-- Node7 -->
<g id="node12" class="node"><title>Node7</title>
<a xlink:href="classprtx_1_1_builtin_attributes_getters.html" target="_top" xlink:title="prtx::BuiltinAttributesGetters">
<polygon fill="none" stroke="black" points="255.5,-117 255.5,-137 396.5,-137 396.5,-117 255.5,-117"/>
<text text-anchor="middle" x="326" y="-124" font-family="Helvetica,sans-Serif" font-size="10.00">prtx::BuiltinAttributesGetters</text>
</a>
</g>
<!-- Node7&#45;&gt;Node6 -->
<g id="edge12" class="edge"><title>Node7&#45;&gt;Node6</title>
<path fill="none" stroke="midnightblue" d="M326,-106.89C326,-97.6201 326,-87.0083 326,-79.3776"/>
<polygon fill="midnightblue" stroke="midnightblue" points="322.5,-106.897 326,-116.897 329.5,-106.897 322.5,-106.897"/>
</g>
<!-- Node8 -->
<g id="node14" class="node"><title>Node8</title>
<a xlink:href="classprtx_1_1_builtin_attributes.html" target="_top" xlink:title="prtx::BuiltinAttributes">
<polygon fill="none" stroke="black" points="271.5,-175 271.5,-195 380.5,-195 380.5,-175 271.5,-175"/>
<text text-anchor="middle" x="326" y="-182" font-family="Helvetica,sans-Serif" font-size="10.00">prtx::BuiltinAttributes</text>
</a>
</g>
<!-- Node8&#45;&gt;Node7 -->
<g id="edge14" class="edge"><title>Node8&#45;&gt;Node7</title>
<path fill="none" stroke="midnightblue" d="M326,-164.89C326,-155.62 326,-145.008 326,-137.378"/>
<polygon fill="midnightblue" stroke="midnightblue" points="322.5,-164.897 326,-174.897 329.5,-164.897 322.5,-164.897"/>
</g>
</g>
</svg>
