<?xml version="1.0" encoding="UTF-8" standalone="no"?>
<!DOCTYPE svg PUBLIC "-//W3C//DTD SVG 1.1//EN"
 "http://www.w3.org/Graphics/SVG/1.1/DTD/svg11.dtd">
<!-- Generated by graphviz version 2.26.3 (20100126.1600)
 -->
<!-- Title: prtx::Shape Pages: 1 -->
<svg width="254pt" height="204pt"
 viewBox="0.00 0.00 254.00 204.00" xmlns="http://www.w3.org/2000/svg" xmlns:xlink="http://www.w3.org/1999/xlink">
<g id="graph1" class="graph" transform="scale(1 1) rotate(0) translate(4 200)">
<title>prtx::Shape</title>
<!-- Node1 -->
<g id="node1" class="node"><title>Node1</title>
<polygon fill="#bfbfbf" stroke="black" points="76,-1 76,-21 144,-21 144,-1 76,-1"/>
<text text-anchor="middle" x="110" y="-8" font-family="Helvetica,sans-Serif" font-size="10.00">prtx::Shape</text>
</g>
<!-- Node2 -->
<g id="node2" class="node"><title>Node2</title>
<a xlink:href="classprtx_1_1_attributable.html" target="_top" xlink:title="prtx::Attributable">
<polygon fill="none" stroke="black" points="0,-59 0,-79 90,-79 90,-59 0,-59"/>
<text text-anchor="middle" x="45" y="-66" font-family="Helvetica,sans-Serif" font-size="10.00">prtx::Attributable</text>
</a>
</g>
<!-- Node2&#45;&gt;Node1 -->
<g id="edge2" class="edge"><title>Node2&#45;&gt;Node1</title>
<path fill="none" stroke="midnightblue" d="M63.8831,-52.1504C75.0341,-42.2003 88.7958,-29.9207 98.3699,-21.3776"/>
<polygon fill="midnightblue" stroke="midnightblue" points="61.4533,-49.6278 56.3221,-58.8972 66.1138,-54.8508 61.4533,-49.6278"/>
</g>
<!-- Node3 -->
<g id="node4" class="node"><title>Node3</title>
<a xlink:href="classprtx_1_1_builtin_shape_attributes.html" target="_top" xlink:title="prtx::BuiltinShapeAttributes">
<polygon fill="none" stroke="black" points="107.5,-59 107.5,-79 244.5,-79 244.5,-59 107.5,-59"/>
<text text-anchor="middle" x="176" y="-66" font-family="Helvetica,sans-Serif" font-size="10.00">prtx::BuiltinShapeAttributes</text>
</a>
</g>
<!-- Node3&#45;&gt;Node1 -->
<g id="edge4" class="edge"><title>Node3&#45;&gt;Node1</title>
<path fill="none" stroke="midnightblue" d="M156.826,-52.1504C145.504,-42.2003 131.53,-29.9207 121.809,-21.3776"/>
<polygon fill="midnightblue" stroke="midnightblue" points="154.682,-54.9251 164.504,-58.8972 159.302,-49.6669 154.682,-54.9251"/>
</g>
<!-- Node4 -->
<g id="node6" class="node"><title>Node4</title>
<a xlink:href="classprtx_1_1_builtin_attributes_getters.html" target="_top" xlink:title="prtx::BuiltinAttributesGetters">
<polygon fill="none" stroke="black" points="105.5,-117 105.5,-137 246.5,-137 246.5,-117 105.5,-117"/>
<text text-anchor="middle" x="176" y="-124" font-family="Helvetica,sans-Serif" font-size="10.00">prtx::BuiltinAttributesGetters</text>
</a>
</g>
<!-- Node4&#45;&gt;Node3 -->
<g id="edge6" class="edge"><title>Node4&#45;&gt;Node3</title>
<path fill="none" stroke="midnightblue" d="M176,-106.89C176,-97.6201 176,-87.0083 176,-79.3776"/>
<polygon fill="midnightblue" stroke="midnightblue" points="172.5,-106.897 176,-116.897 179.5,-106.897 172.5,-106.897"/>
</g>
<!-- Node5 -->
<g id="node8" class="node"><title>Node5</title>
<a xlink:href="classprtx_1_1_builtin_attributes.html" target="_top" xlink:title="prtx::BuiltinAttributes">
<polygon fill="none" stroke="black" points="121.5,-175 121.5,-195 230.5,-195 230.5,-175 121.5,-175"/>
<text text-anchor="middle" x="176" y="-182" font-family="Helvetica,sans-Serif" font-size="10.00">prtx::BuiltinAttributes</text>
</a>
</g>
<!-- Node5&#45;&gt;Node4 -->
<g id="edge8" class="edge"><title>Node5&#45;&gt;Node4</title>
<path fill="none" stroke="midnightblue" d="M176,-164.89C176,-155.62 176,-145.008 176,-137.378"/>
<polygon fill="midnightblue" stroke="midnightblue" points="172.5,-164.897 176,-174.897 179.5,-164.897 172.5,-164.897"/>
</g>
</g>
</svg>
