<?xml version="1.0" encoding="UTF-8" standalone="no"?>
<!DOCTYPE svg PUBLIC "-//W3C//DTD SVG 1.1//EN"
 "http://www.w3.org/Graphics/SVG/1.1/DTD/svg11.dtd">
<!-- Generated by graphviz version 2.26.3 (20100126.1600)
 -->
<!-- Title: prtx::MaterialBuilder Pages: 1 -->
<svg width="616pt" height="128pt"
 viewBox="0.00 0.00 616.00 128.00" xmlns="http://www.w3.org/2000/svg" xmlns:xlink="http://www.w3.org/1999/xlink">
<g id="graph1" class="graph" transform="scale(1 1) rotate(0) translate(4 124)">
<title>prtx::MaterialBuilder</title>
<!-- Node1 -->
<g id="node1" class="node"><title>Node1</title>
<polygon fill="#bfbfbf" stroke="black" points="502,-50 502,-70 608,-70 608,-50 502,-50"/>
<text text-anchor="middle" x="555" y="-57" font-family="Helvetica,sans-Serif" font-size="10.00">prtx::MaterialBuilder</text>
</g>
<!-- Node2 -->
<g id="node2" class="node"><title>Node2</title>
<a xlink:href="classprtx_1_1_p_r_t_x_builder.html" target="_top" xlink:title="prtx::PRTXBuilder\&lt;\l Material \&gt;">
<polygon fill="none" stroke="black" points="342.5,-88 342.5,-120 445.5,-120 445.5,-88 342.5,-88"/>
<text text-anchor="start" x="350.5" y="-107" font-family="Helvetica,sans-Serif" font-size="10.00">prtx::PRTXBuilder&lt;</text>
<text text-anchor="middle" x="394" y="-95" font-family="Helvetica,sans-Serif" font-size="10.00"> Material &gt;</text>
</a>
</g>
<!-- Node2&#45;&gt;Node1 -->
<g id="edge2" class="edge"><title>Node2&#45;&gt;Node1</title>
<path fill="none" stroke="midnightblue" d="M455.666,-87.1472C476.713,-81.3951 499.581,-75.1457 518.063,-70.0945"/>
<polygon fill="midnightblue" stroke="midnightblue" points="454.551,-83.8234 445.828,-89.8359 456.397,-90.5758 454.551,-83.8234"/>
</g>
<!-- Node3 -->
<g id="node4" class="node"><title>Node3</title>
<a xlink:href="classprtx_1_1_builder.html" target="_top" xlink:title="prtx::Builder\&lt; Material \&gt;">
<polygon fill="none" stroke="black" points="154.5,-94 154.5,-114 277.5,-114 277.5,-94 154.5,-94"/>
<text text-anchor="middle" x="216" y="-101" font-family="Helvetica,sans-Serif" font-size="10.00">prtx::Builder&lt; Material &gt;</text>
</a>
</g>
<!-- Node3&#45;&gt;Node2 -->
<g id="edge4" class="edge"><title>Node3&#45;&gt;Node2</title>
<path fill="none" stroke="midnightblue" d="M287.785,-104C306.061,-104 325.344,-104 342.39,-104"/>
<polygon fill="midnightblue" stroke="midnightblue" points="287.756,-100.5 277.756,-104 287.756,-107.5 287.756,-100.5"/>
</g>
<!-- Node4 -->
<g id="node6" class="node"><title>Node4</title>
<polygon fill="none" stroke="#bfbfbf" points="18.5,-94 18.5,-114 91.5,-114 91.5,-94 18.5,-94"/>
<text text-anchor="middle" x="55" y="-101" font-family="Helvetica,sans-Serif" font-size="10.00">noncopyable</text>
</g>
<!-- Node4&#45;&gt;Node3 -->
<g id="edge6" class="edge"><title>Node4&#45;&gt;Node3</title>
<path fill="none" stroke="#8b1a1a" d="M101.935,-104C118.313,-104 136.95,-104 154.343,-104"/>
<polygon fill="#8b1a1a" stroke="#8b1a1a" points="101.533,-100.5 91.5334,-104 101.533,-107.5 101.533,-100.5"/>
</g>
<!-- Node5 -->
<g id="node8" class="node"><title>Node5</title>
<a xlink:href="classprtx_1_1_attributable_setter.html" target="_top" xlink:title="prtx::AttributableSetter">
<polygon fill="none" stroke="black" points="336,-50 336,-70 452,-70 452,-50 336,-50"/>
<text text-anchor="middle" x="394" y="-57" font-family="Helvetica,sans-Serif" font-size="10.00">prtx::AttributableSetter</text>
</a>
</g>
<!-- Node5&#45;&gt;Node1 -->
<g id="edge8" class="edge"><title>Node5&#45;&gt;Node1</title>
<path fill="none" stroke="midnightblue" d="M462.143,-60C475.392,-60 489.098,-60 501.781,-60"/>
<polygon fill="midnightblue" stroke="midnightblue" points="462.125,-56.5001 452.125,-60 462.125,-63.5001 462.125,-56.5001"/>
</g>
<!-- Node6 -->
<g id="node10" class="node"><title>Node6</title>
<a xlink:href="classprtx_1_1_builtin_material_attributes_builder.html" target="_top" xlink:title="prtx::BuiltinMaterialAttributes\lBuilder">
<polygon fill="none" stroke="black" points="322,-0 322,-32 466,-32 466,-0 322,-0"/>
<text text-anchor="start" x="330" y="-19" font-family="Helvetica,sans-Serif" font-size="10.00">prtx::BuiltinMaterialAttributes</text>
<text text-anchor="middle" x="394" y="-7" font-family="Helvetica,sans-Serif" font-size="10.00">Builder</text>
</a>
</g>
<!-- Node6&#45;&gt;Node1 -->
<g id="edge10" class="edge"><title>Node6&#45;&gt;Node1</title>
<path fill="none" stroke="midnightblue" d="M462.481,-34.7154C481.622,-39.9463 501.689,-45.4307 518.224,-49.9495"/>
<polygon fill="midnightblue" stroke="midnightblue" points="463.149,-31.2696 452.58,-32.0095 461.304,-38.022 463.149,-31.2696"/>
</g>
<!-- Node7 -->
<g id="node12" class="node"><title>Node7</title>
<a xlink:href="classprtx_1_1_builtin_attributes_setters.html" target="_top" xlink:title="prtx::BuiltinAttributesSetters">
<polygon fill="none" stroke="black" points="146,-6 146,-26 286,-26 286,-6 146,-6"/>
<text text-anchor="middle" x="216" y="-13" font-family="Helvetica,sans-Serif" font-size="10.00">prtx::BuiltinAttributesSetters</text>
</a>
</g>
<!-- Node7&#45;&gt;Node6 -->
<g id="edge12" class="edge"><title>Node7&#45;&gt;Node6</title>
<path fill="none" stroke="midnightblue" d="M296.118,-16C304.716,-16 313.426,-16 321.922,-16"/>
<polygon fill="midnightblue" stroke="midnightblue" points="296.095,-12.5001 286.095,-16 296.095,-19.5001 296.095,-12.5001"/>
</g>
<!-- Node8 -->
<g id="node14" class="node"><title>Node8</title>
<a xlink:href="classprtx_1_1_builtin_attributes.html" target="_top" xlink:title="prtx::BuiltinAttributes">
<polygon fill="none" stroke="black" points="0.5,-6 0.5,-26 109.5,-26 109.5,-6 0.5,-6"/>
<text text-anchor="middle" x="55" y="-13" font-family="Helvetica,sans-Serif" font-size="10.00">prtx::BuiltinAttributes</text>
</a>
</g>
<!-- Node8&#45;&gt;Node7 -->
<g id="edge14" class="edge"><title>Node8&#45;&gt;Node7</title>
<path fill="none" stroke="midnightblue" d="M119.528,-16C128.187,-16 137.102,-16 145.851,-16"/>
<polygon fill="midnightblue" stroke="midnightblue" points="119.507,-12.5001 109.507,-16 119.507,-19.5001 119.507,-12.5001"/>
</g>
</g>
</svg>
