<?xml version="1.0" encoding="UTF-8" standalone="no"?>
<!DOCTYPE svg PUBLIC "-//W3C//DTD SVG 1.1//EN"
 "http://www.w3.org/Graphics/SVG/1.1/DTD/svg11.dtd">
<!-- Generated by graphviz version 2.26.3 (20100126.1600)
 -->
<!-- Title: prtx::TextureBuilder Pages: 1 -->
<svg width="214pt" height="88pt"
 viewBox="0.00 0.00 214.00 88.00" xmlns="http://www.w3.org/2000/svg" xmlns:xlink="http://www.w3.org/1999/xlink">
<g id="graph1" class="graph" transform="scale(1 1) rotate(0) translate(4 84)">
<title>prtx::TextureBuilder</title>
<!-- Node1 -->
<g id="node1" class="node"><title>Node1</title>
<polygon fill="#bfbfbf" stroke="black" points="62.5,-1 62.5,-21 165.5,-21 165.5,-1 62.5,-1"/>
<text text-anchor="middle" x="114" y="-8" font-family="Helvetica,sans-Serif" font-size="10.00">prtx::TextureBuilder</text>
</g>
<!-- Node2 -->
<g id="node2" class="node"><title>Node2</title>
<a xlink:href="classprtx_1_1_attributable_setter.html" target="_top" xlink:title="prtx::AttributableSetter">
<polygon fill="none" stroke="black" points="0,-59 0,-79 116,-79 116,-59 0,-59"/>
<text text-anchor="middle" x="58" y="-66" font-family="Helvetica,sans-Serif" font-size="10.00">prtx::AttributableSetter</text>
</a>
</g>
<!-- Node2&#45;&gt;Node1 -->
<g id="edge2" class="edge"><title>Node2&#45;&gt;Node1</title>
<path fill="none" stroke="midnightblue" d="M74.8307,-51.5682C84.3346,-41.7249 95.8919,-29.7548 103.98,-21.3776"/>
<polygon fill="midnightblue" stroke="midnightblue" points="72.1825,-49.272 67.7545,-58.8972 77.2183,-54.1342 72.1825,-49.272"/>
</g>
<!-- Node3 -->
<g id="node4" class="node"><title>Node3</title>
<polygon fill="none" stroke="#bfbfbf" points="133.5,-59 133.5,-79 206.5,-79 206.5,-59 133.5,-59"/>
<text text-anchor="middle" x="170" y="-66" font-family="Helvetica,sans-Serif" font-size="10.00">noncopyable</text>
</g>
<!-- Node3&#45;&gt;Node1 -->
<g id="edge4" class="edge"><title>Node3&#45;&gt;Node1</title>
<path fill="none" stroke="#8b1a1a" d="M153.169,-51.5682C143.665,-41.7249 132.108,-29.7548 124.02,-21.3776"/>
<polygon fill="#8b1a1a" stroke="#8b1a1a" points="150.782,-54.1342 160.246,-58.8972 155.817,-49.272 150.782,-54.1342"/>
</g>
</g>
</svg>
