<?xml version="1.0" encoding="UTF-8" standalone="no"?>
<!DOCTYPE svg PUBLIC "-//W3C//DTD SVG 1.1//EN"
 "http://www.w3.org/Graphics/SVG/1.1/DTD/svg11.dtd">
<!-- Generated by graphviz version 2.26.3 (20100126.1600)
 -->
<!-- Title: prtx::AttributableSetter Pages: 1 -->
<svg width="234pt" height="88pt"
 viewBox="0.00 0.00 234.00 88.00" xmlns="http://www.w3.org/2000/svg" xmlns:xlink="http://www.w3.org/1999/xlink">
<g id="graph1" class="graph" transform="scale(1 1) rotate(0) translate(4 84)">
<title>prtx::AttributableSetter</title>
<!-- Node1 -->
<g id="node1" class="node"><title>Node1</title>
<polygon fill="#bfbfbf" stroke="black" points="56,-59 56,-79 172,-79 172,-59 56,-59"/>
<text text-anchor="middle" x="114" y="-66" font-family="Helvetica,sans-Serif" font-size="10.00">prtx::AttributableSetter</text>
</g>
<!-- Node2 -->
<g id="node3" class="node"><title>Node2</title>
<a xlink:href="classprtx_1_1_material_builder.html" target="_top" xlink:title="prtx::MaterialBuilder">
<polygon fill="none" stroke="black" points="0,-1 0,-21 106,-21 106,-1 0,-1"/>
<text text-anchor="middle" x="53" y="-8" font-family="Helvetica,sans-Serif" font-size="10.00">prtx::MaterialBuilder</text>
</a>
</g>
<!-- Node1&#45;&gt;Node2 -->
<g id="edge2" class="edge"><title>Node1&#45;&gt;Node2</title>
<path fill="none" stroke="midnightblue" d="M95.9734,-51.86C85.5637,-41.9622 72.8121,-29.8377 63.9144,-21.3776"/>
<polygon fill="midnightblue" stroke="midnightblue" points="93.7158,-54.543 103.375,-58.8972 98.5393,-49.4701 93.7158,-54.543"/>
</g>
<!-- Node3 -->
<g id="node5" class="node"><title>Node3</title>
<a xlink:href="classprtx_1_1_texture_builder.html" target="_top" xlink:title="prtx::TextureBuilder">
<polygon fill="none" stroke="black" points="123.5,-1 123.5,-21 226.5,-21 226.5,-1 123.5,-1"/>
<text text-anchor="middle" x="175" y="-8" font-family="Helvetica,sans-Serif" font-size="10.00">prtx::TextureBuilder</text>
</a>
</g>
<!-- Node1&#45;&gt;Node3 -->
<g id="edge4" class="edge"><title>Node1&#45;&gt;Node3</title>
<path fill="none" stroke="midnightblue" d="M132.027,-51.86C142.436,-41.9622 155.188,-29.8377 164.086,-21.3776"/>
<polygon fill="midnightblue" stroke="midnightblue" points="129.461,-49.4701 124.625,-58.8972 134.284,-54.543 129.461,-49.4701"/>
</g>
</g>
</svg>
