<?xml version="1.0" encoding="UTF-8" standalone="no"?>
<!DOCTYPE svg PUBLIC "-//W3C//DTD SVG 1.1//EN"
 "http://www.w3.org/Graphics/SVG/1.1/DTD/svg11.dtd">
<!-- Generated by graphviz version 2.26.3 (20100126.1600)
 -->
<!-- Title: prt::InitialShape Pages: 1 -->
<svg width="100pt" height="146pt"
 viewBox="0.00 0.00 100.00 146.00" xmlns="http://www.w3.org/2000/svg" xmlns:xlink="http://www.w3.org/1999/xlink">
<g id="graph1" class="graph" transform="scale(1 1) rotate(0) translate(4 142)">
<title>prt::InitialShape</title>
<!-- Node1 -->
<g id="node1" class="node"><title>Node1</title>
<polygon fill="#bfbfbf" stroke="black" points="3,-59 3,-79 89,-79 89,-59 3,-59"/>
<text text-anchor="middle" x="46" y="-66" font-family="Helvetica,sans-Serif" font-size="10.00">prt::InitialShape</text>
</g>
<!-- Node3 -->
<g id="node5" class="node"><title>Node3</title>
<a xlink:href="classprtx_1_1_initial_shape.html" target="_top" xlink:title="prtx::InitialShape">
<polygon fill="none" stroke="black" points="0,-1 0,-21 92,-21 92,-1 0,-1"/>
<text text-anchor="middle" x="46" y="-8" font-family="Helvetica,sans-Serif" font-size="10.00">prtx::InitialShape</text>
</a>
</g>
<!-- Node1&#45;&gt;Node3 -->
<g id="edge4" class="edge"><title>Node1&#45;&gt;Node3</title>
<path fill="none" stroke="midnightblue" d="M46,-48.8902C46,-39.6201 46,-29.0083 46,-21.3776"/>
<polygon fill="midnightblue" stroke="midnightblue" points="42.5001,-48.8971 46,-58.8972 49.5001,-48.8972 42.5001,-48.8971"/>
</g>
<!-- Node2 -->
<g id="node2" class="node"><title>Node2</title>
<a xlink:href="classprt_1_1_object.html" target="_top" xlink:title="prt::Object">
<polygon fill="none" stroke="black" points="14.5,-117 14.5,-137 77.5,-137 77.5,-117 14.5,-117"/>
<text text-anchor="middle" x="46" y="-124" font-family="Helvetica,sans-Serif" font-size="10.00">prt::Object</text>
</a>
</g>
<!-- Node2&#45;&gt;Node1 -->
<g id="edge2" class="edge"><title>Node2&#45;&gt;Node1</title>
<path fill="none" stroke="midnightblue" d="M46,-106.89C46,-97.6201 46,-87.0083 46,-79.3776"/>
<polygon fill="midnightblue" stroke="midnightblue" points="42.5001,-106.897 46,-116.897 49.5001,-106.897 42.5001,-106.897"/>
</g>
</g>
</svg>
