<?xml version="1.0" encoding="UTF-8" standalone="no"?>
<!DOCTYPE svg PUBLIC "-//W3C//DTD SVG 1.1//EN"
 "http://www.w3.org/Graphics/SVG/1.1/DTD/svg11.dtd">
<!-- Generated by graphviz version 2.26.3 (20100126.1600)
 -->
<!-- Title: prt::Attributable Pages: 1 -->
<svg width="207pt" height="146pt"
 viewBox="0.00 0.00 207.00 146.00" xmlns="http://www.w3.org/2000/svg" xmlns:xlink="http://www.w3.org/1999/xlink">
<g id="graph1" class="graph" transform="scale(1 1) rotate(0) translate(4 142)">
<title>prt::Attributable</title>
<!-- Node1 -->
<g id="node1" class="node"><title>Node1</title>
<polygon fill="#bfbfbf" stroke="black" points="55.5,-117 55.5,-137 140.5,-137 140.5,-117 55.5,-117"/>
<text text-anchor="middle" x="98" y="-124" font-family="Helvetica,sans-Serif" font-size="10.00">prt::Attributable</text>
</g>
<!-- Node2 -->
<g id="node3" class="node"><title>Node2</title>
<a xlink:href="classprt_1_1_attribute_map.html" target="_top" xlink:title="prt::AttributeMap">
<polygon fill="none" stroke="black" points="-0.5,-59 -0.5,-79 90.5,-79 90.5,-59 -0.5,-59"/>
<text text-anchor="middle" x="45" y="-66" font-family="Helvetica,sans-Serif" font-size="10.00">prt::AttributeMap</text>
</a>
</g>
<!-- Node1&#45;&gt;Node2 -->
<g id="edge2" class="edge"><title>Node1&#45;&gt;Node2</title>
<path fill="none" stroke="midnightblue" d="M81.8032,-109.275C72.8599,-99.4882 62.0622,-87.6718 54.483,-79.3776"/>
<polygon fill="midnightblue" stroke="midnightblue" points="79.4386,-111.876 88.7681,-116.897 84.6061,-107.154 79.4386,-111.876"/>
</g>
<!-- Node3 -->
<g id="node5" class="node"><title>Node3</title>
<a xlink:href="classprt_1_1_resolve_map.html" target="_top" xlink:title="prt::ResolveMap">
<polygon fill="none" stroke="black" points="107.5,-59 107.5,-79 196.5,-79 196.5,-59 107.5,-59"/>
<text text-anchor="middle" x="152" y="-66" font-family="Helvetica,sans-Serif" font-size="10.00">prt::ResolveMap</text>
</a>
</g>
<!-- Node1&#45;&gt;Node3 -->
<g id="edge4" class="edge"><title>Node1&#45;&gt;Node3</title>
<path fill="none" stroke="midnightblue" d="M114.23,-109.568C123.394,-99.7249 134.539,-87.7548 142.338,-79.3776"/>
<polygon fill="midnightblue" stroke="midnightblue" points="111.659,-107.193 107.406,-116.897 116.782,-111.963 111.659,-107.193"/>
</g>
<!-- Node4 -->
<g id="node7" class="node"><title>Node4</title>
<a xlink:href="classprtx_1_1_resolve_map.html" target="_top" xlink:title="prtx::ResolveMap">
<polygon fill="none" stroke="black" points="104.5,-1 104.5,-21 199.5,-21 199.5,-1 104.5,-1"/>
<text text-anchor="middle" x="152" y="-8" font-family="Helvetica,sans-Serif" font-size="10.00">prtx::ResolveMap</text>
</a>
</g>
<!-- Node3&#45;&gt;Node4 -->
<g id="edge6" class="edge"><title>Node3&#45;&gt;Node4</title>
<path fill="none" stroke="midnightblue" d="M152,-48.8902C152,-39.6201 152,-29.0083 152,-21.3776"/>
<polygon fill="midnightblue" stroke="midnightblue" points="148.5,-48.8971 152,-58.8972 155.5,-48.8972 148.5,-48.8971"/>
</g>
</g>
</svg>
