<?xml version="1.0" encoding="UTF-8" standalone="no"?>
<!DOCTYPE svg PUBLIC "-//W3C//DTD SVG 1.1//EN"
 "http://www.w3.org/Graphics/SVG/1.1/DTD/svg11.dtd">
<!-- Generated by graphviz version 2.26.3 (20100126.1600)
 -->
<!-- Title: prtx::Attributable Pages: 1 -->
<svg width="258pt" height="88pt"
 viewBox="0.00 0.00 258.00 88.00" xmlns="http://www.w3.org/2000/svg" xmlns:xlink="http://www.w3.org/1999/xlink">
<g id="graph1" class="graph" transform="scale(1 1) rotate(0) translate(4 84)">
<title>prtx::Attributable</title>
<!-- Node1 -->
<g id="node1" class="node"><title>Node1</title>
<polygon fill="#bfbfbf" stroke="black" points="81,-59 81,-79 171,-79 171,-59 81,-59"/>
<text text-anchor="middle" x="126" y="-66" font-family="Helvetica,sans-Serif" font-size="10.00">prtx::Attributable</text>
</g>
<!-- Node2 -->
<g id="node3" class="node"><title>Node2</title>
<a xlink:href="classprtx_1_1_material.html" target="_top" xlink:title="prtx::Material">
<polygon fill="none" stroke="black" points="-0.5,-1 -0.5,-21 74.5,-21 74.5,-1 -0.5,-1"/>
<text text-anchor="middle" x="37" y="-8" font-family="Helvetica,sans-Serif" font-size="10.00">prtx::Material</text>
</a>
</g>
<!-- Node1&#45;&gt;Node2 -->
<g id="edge2" class="edge"><title>Node1&#45;&gt;Node2</title>
<path fill="none" stroke="midnightblue" d="M101.85,-53.2619C86.1856,-43.0535 66.2334,-30.051 52.6236,-21.1817"/>
<polygon fill="midnightblue" stroke="midnightblue" points="100.208,-56.3696 110.497,-58.8972 104.03,-50.505 100.208,-56.3696"/>
</g>
<!-- Node3 -->
<g id="node5" class="node"><title>Node3</title>
<a xlink:href="classprtx_1_1_shape.html" target="_top" xlink:title="prtx::Shape">
<polygon fill="none" stroke="black" points="92,-1 92,-21 160,-21 160,-1 92,-1"/>
<text text-anchor="middle" x="126" y="-8" font-family="Helvetica,sans-Serif" font-size="10.00">prtx::Shape</text>
</a>
</g>
<!-- Node1&#45;&gt;Node3 -->
<g id="edge4" class="edge"><title>Node1&#45;&gt;Node3</title>
<path fill="none" stroke="midnightblue" d="M126,-48.8902C126,-39.6201 126,-29.0083 126,-21.3776"/>
<polygon fill="midnightblue" stroke="midnightblue" points="122.5,-48.8971 126,-58.8972 129.5,-48.8972 122.5,-48.8971"/>
</g>
<!-- Node4 -->
<g id="node7" class="node"><title>Node4</title>
<a xlink:href="classprtx_1_1_texture.html" target="_top" xlink:title="prtx::Texture">
<polygon fill="none" stroke="black" points="178,-1 178,-21 250,-21 250,-1 178,-1"/>
<text text-anchor="middle" x="214" y="-8" font-family="Helvetica,sans-Serif" font-size="10.00">prtx::Texture</text>
</a>
</g>
<!-- Node1&#45;&gt;Node4 -->
<g id="edge6" class="edge"><title>Node1&#45;&gt;Node4</title>
<path fill="none" stroke="midnightblue" d="M149.878,-53.2619C165.367,-43.0535 185.095,-30.051 198.552,-21.1817"/>
<polygon fill="midnightblue" stroke="midnightblue" points="147.752,-50.4716 141.328,-58.8972 151.604,-56.3164 147.752,-50.4716"/>
</g>
</g>
</svg>
