<?xml version="1.0" encoding="UTF-8" standalone="no"?>
<!DOCTYPE svg PUBLIC "-//W3C//DTD SVG 1.1//EN"
 "http://www.w3.org/Graphics/SVG/1.1/DTD/svg11.dtd">
<!-- Generated by graphviz version 2.26.3 (20100126.1600)
 -->
<!-- Title: prtx::Content Pages: 1 -->
<svg width="398pt" height="204pt"
 viewBox="0.00 0.00 398.00 204.00" xmlns="http://www.w3.org/2000/svg" xmlns:xlink="http://www.w3.org/1999/xlink">
<g id="graph1" class="graph" transform="scale(1 1) rotate(0) translate(4 200)">
<title>prtx::Content</title>
<!-- Node1 -->
<g id="node1" class="node"><title>Node1</title>
<polygon fill="#bfbfbf" stroke="black" points="167,-117 167,-137 241,-137 241,-117 167,-117"/>
<text text-anchor="middle" x="204" y="-124" font-family="Helvetica,sans-Serif" font-size="10.00">prtx::Content</text>
</g>
<!-- Node3 -->
<g id="node5" class="node"><title>Node3</title>
<a xlink:href="classprtx_1_1_c_g_b.html" target="_top" xlink:title="prtx::CGB">
<polygon fill="none" stroke="black" points="-0.5,-59 -0.5,-79 60.5,-79 60.5,-59 -0.5,-59"/>
<text text-anchor="middle" x="30" y="-66" font-family="Helvetica,sans-Serif" font-size="10.00">prtx::CGB</text>
</a>
</g>
<!-- Node1&#45;&gt;Node3 -->
<g id="edge4" class="edge"><title>Node1&#45;&gt;Node3</title>
<path fill="none" stroke="midnightblue" d="M163.884,-113.628C132.301,-103.1 88.9635,-88.6545 60.2526,-79.0842"/>
<polygon fill="midnightblue" stroke="midnightblue" points="163.098,-117.055 173.692,-116.897 165.311,-110.414 163.098,-117.055"/>
</g>
<!-- Node4 -->
<g id="node7" class="node"><title>Node4</title>
<a xlink:href="classprtx_1_1_comparable_content.html" target="_top" xlink:title="prtx::ComparableContent">
<polygon fill="none" stroke="black" points="78,-59 78,-79 206,-79 206,-59 78,-59"/>
<text text-anchor="middle" x="142" y="-66" font-family="Helvetica,sans-Serif" font-size="10.00">prtx::ComparableContent</text>
</a>
</g>
<!-- Node1&#45;&gt;Node4 -->
<g id="edge6" class="edge"><title>Node1&#45;&gt;Node4</title>
<path fill="none" stroke="midnightblue" d="M185.678,-109.86C175.098,-99.9622 162.137,-87.8377 153.093,-79.3776"/>
<polygon fill="midnightblue" stroke="midnightblue" points="183.507,-112.622 193.2,-116.897 188.289,-107.51 183.507,-112.622"/>
</g>
<!-- Node8 -->
<g id="node15" class="node"><title>Node8</title>
<a xlink:href="classprtx_1_1_geometry.html" target="_top" xlink:title="prtx::Geometry">
<polygon fill="none" stroke="black" points="224,-59 224,-79 308,-79 308,-59 224,-59"/>
<text text-anchor="middle" x="266" y="-66" font-family="Helvetica,sans-Serif" font-size="10.00">prtx::Geometry</text>
</a>
</g>
<!-- Node1&#45;&gt;Node8 -->
<g id="edge14" class="edge"><title>Node1&#45;&gt;Node8</title>
<path fill="none" stroke="midnightblue" d="M222.322,-109.86C232.902,-99.9622 245.863,-87.8377 254.907,-79.3776"/>
<polygon fill="midnightblue" stroke="midnightblue" points="219.711,-107.51 214.8,-116.897 224.493,-112.622 219.711,-107.51"/>
</g>
<!-- Node9 -->
<g id="node17" class="node"><title>Node9</title>
<a xlink:href="classprtx_1_1_mesh.html" target="_top" xlink:title="prtx::Mesh">
<polygon fill="none" stroke="black" points="326,-59 326,-79 390,-79 390,-59 326,-59"/>
<text text-anchor="middle" x="358" y="-66" font-family="Helvetica,sans-Serif" font-size="10.00">prtx::Mesh</text>
</a>
</g>
<!-- Node1&#45;&gt;Node9 -->
<g id="edge16" class="edge"><title>Node1&#45;&gt;Node9</title>
<path fill="none" stroke="midnightblue" d="M240.234,-113.354C268.121,-102.85 306.034,-88.5716 331.225,-79.0842"/>
<polygon fill="midnightblue" stroke="midnightblue" points="238.949,-110.097 230.825,-116.897 241.417,-116.648 238.949,-110.097"/>
</g>
<!-- Node2 -->
<g id="node2" class="node"><title>Node2</title>
<polygon fill="none" stroke="#bfbfbf" points="167.5,-175 167.5,-195 240.5,-195 240.5,-175 167.5,-175"/>
<text text-anchor="middle" x="204" y="-182" font-family="Helvetica,sans-Serif" font-size="10.00">noncopyable</text>
</g>
<!-- Node2&#45;&gt;Node1 -->
<g id="edge2" class="edge"><title>Node2&#45;&gt;Node1</title>
<path fill="none" stroke="#8b1a1a" d="M204,-164.89C204,-155.62 204,-145.008 204,-137.378"/>
<polygon fill="#8b1a1a" stroke="#8b1a1a" points="200.5,-164.897 204,-174.897 207.5,-164.897 200.5,-164.897"/>
</g>
<!-- Node5 -->
<g id="node9" class="node"><title>Node5</title>
<a xlink:href="classprtx_1_1_material.html" target="_top" xlink:title="prtx::Material">
<polygon fill="none" stroke="black" points="13.5,-1 13.5,-21 88.5,-21 88.5,-1 13.5,-1"/>
<text text-anchor="middle" x="51" y="-8" font-family="Helvetica,sans-Serif" font-size="10.00">prtx::Material</text>
</a>
</g>
<!-- Node4&#45;&gt;Node5 -->
<g id="edge8" class="edge"><title>Node4&#45;&gt;Node5</title>
<path fill="none" stroke="midnightblue" d="M117.307,-53.2619C101.291,-43.0535 80.8903,-30.051 66.9747,-21.1817"/>
<polygon fill="midnightblue" stroke="midnightblue" points="115.835,-56.4739 126.149,-58.8972 119.597,-50.5709 115.835,-56.4739"/>
</g>
<!-- Node6 -->
<g id="node11" class="node"><title>Node6</title>
<a xlink:href="classprtx_1_1_shader.html" target="_top" xlink:title="prtx::Shader">
<polygon fill="none" stroke="black" points="106,-1 106,-21 178,-21 178,-1 106,-1"/>
<text text-anchor="middle" x="142" y="-8" font-family="Helvetica,sans-Serif" font-size="10.00">prtx::Shader</text>
</a>
</g>
<!-- Node4&#45;&gt;Node6 -->
<g id="edge10" class="edge"><title>Node4&#45;&gt;Node6</title>
<path fill="none" stroke="midnightblue" d="M142,-48.8902C142,-39.6201 142,-29.0083 142,-21.3776"/>
<polygon fill="midnightblue" stroke="midnightblue" points="138.5,-48.8971 142,-58.8972 145.5,-48.8972 138.5,-48.8971"/>
</g>
<!-- Node7 -->
<g id="node13" class="node"><title>Node7</title>
<a xlink:href="classprtx_1_1_texture.html" target="_top" xlink:title="prtx::Texture">
<polygon fill="none" stroke="black" points="196,-1 196,-21 268,-21 268,-1 196,-1"/>
<text text-anchor="middle" x="232" y="-8" font-family="Helvetica,sans-Serif" font-size="10.00">prtx::Texture</text>
</a>
</g>
<!-- Node4&#45;&gt;Node7 -->
<g id="edge12" class="edge"><title>Node4&#45;&gt;Node7</title>
<path fill="none" stroke="midnightblue" d="M166.421,-53.2619C182.262,-43.0535 202.438,-30.051 216.201,-21.1817"/>
<polygon fill="midnightblue" stroke="midnightblue" points="164.187,-50.5381 157.677,-58.8972 167.978,-56.4221 164.187,-50.5381"/>
</g>
</g>
</svg>
