<?xml version="1.0" encoding="UTF-8" standalone="no"?>
<!DOCTYPE svg PUBLIC "-//W3C//DTD SVG 1.1//EN"
 "http://www.w3.org/Graphics/SVG/1.1/DTD/svg11.dtd">
<!-- Generated by graphviz version 2.26.3 (20100126.1600)
 -->
<!-- Title: prtx::BuiltinAttributesSetters Pages: 1 -->
<svg width="152pt" height="216pt"
 viewBox="0.00 0.00 152.00 216.00" xmlns="http://www.w3.org/2000/svg" xmlns:xlink="http://www.w3.org/1999/xlink">
<g id="graph1" class="graph" transform="scale(1 1) rotate(0) translate(4 212)">
<title>prtx::BuiltinAttributesSetters</title>
<!-- Node1 -->
<g id="node1" class="node"><title>Node1</title>
<polygon fill="#bfbfbf" stroke="black" points="2,-129 2,-149 142,-149 142,-129 2,-129"/>
<text text-anchor="middle" x="72" y="-136" font-family="Helvetica,sans-Serif" font-size="10.00">prtx::BuiltinAttributesSetters</text>
</g>
<!-- Node3 -->
<g id="node5" class="node"><title>Node3</title>
<a xlink:href="classprtx_1_1_builtin_material_attributes_builder.html" target="_top" xlink:title="prtx::BuiltinMaterialAttributes\lBuilder">
<polygon fill="none" stroke="black" points="0,-59 0,-91 144,-91 144,-59 0,-59"/>
<text text-anchor="start" x="8" y="-78" font-family="Helvetica,sans-Serif" font-size="10.00">prtx::BuiltinMaterialAttributes</text>
<text text-anchor="middle" x="72" y="-66" font-family="Helvetica,sans-Serif" font-size="10.00">Builder</text>
</a>
</g>
<!-- Node1&#45;&gt;Node3 -->
<g id="edge4" class="edge"><title>Node1&#45;&gt;Node3</title>
<path fill="none" stroke="midnightblue" d="M72,-118.435C72,-109.549 72,-99.3101 72,-91.0054"/>
<polygon fill="midnightblue" stroke="midnightblue" points="68.5001,-118.717 72,-128.717 75.5001,-118.717 68.5001,-118.717"/>
</g>
<!-- Node2 -->
<g id="node2" class="node"><title>Node2</title>
<a xlink:href="classprtx_1_1_builtin_attributes.html" target="_top" xlink:title="prtx::BuiltinAttributes">
<polygon fill="none" stroke="black" points="17.5,-187 17.5,-207 126.5,-207 126.5,-187 17.5,-187"/>
<text text-anchor="middle" x="72" y="-194" font-family="Helvetica,sans-Serif" font-size="10.00">prtx::BuiltinAttributes</text>
</a>
</g>
<!-- Node2&#45;&gt;Node1 -->
<g id="edge2" class="edge"><title>Node2&#45;&gt;Node1</title>
<path fill="none" stroke="midnightblue" d="M72,-176.89C72,-167.62 72,-157.008 72,-149.378"/>
<polygon fill="midnightblue" stroke="midnightblue" points="68.5001,-176.897 72,-186.897 75.5001,-176.897 68.5001,-176.897"/>
</g>
<!-- Node4 -->
<g id="node7" class="node"><title>Node4</title>
<a xlink:href="classprtx_1_1_material_builder.html" target="_top" xlink:title="prtx::MaterialBuilder">
<polygon fill="none" stroke="black" points="19,-1 19,-21 125,-21 125,-1 19,-1"/>
<text text-anchor="middle" x="72" y="-8" font-family="Helvetica,sans-Serif" font-size="10.00">prtx::MaterialBuilder</text>
</a>
</g>
<!-- Node3&#45;&gt;Node4 -->
<g id="edge6" class="edge"><title>Node3&#45;&gt;Node4</title>
<path fill="none" stroke="midnightblue" d="M72,-48.7639C72,-39.0394 72,-28.5805 72,-21.141"/>
<polygon fill="midnightblue" stroke="midnightblue" points="68.5001,-48.8501 72,-58.8501 75.5001,-48.8501 68.5001,-48.8501"/>
</g>
</g>
</svg>
