<?xml version="1.0" encoding="UTF-8" standalone="no"?>
<!DOCTYPE svg PUBLIC "-//W3C//DTD SVG 1.1//EN"
 "http://www.w3.org/Graphics/SVG/1.1/DTD/svg11.dtd">
<!-- Generated by graphviz version 2.26.3 (20100126.1600)
 -->
<!-- Title: Graph Legend Pages: 1 -->
<svg width="510pt" height="164pt"
 viewBox="0.00 0.00 510.00 164.00" xmlns="http://www.w3.org/2000/svg" xmlns:xlink="http://www.w3.org/1999/xlink">
<g id="graph1" class="graph" transform="scale(1 1) rotate(0) translate(4 160)">
<title>Graph Legend</title>
<!-- Node9 -->
<g id="node1" class="node"><title>Node9</title>
<polygon fill="#bfbfbf" stroke="black" points="293,-20 239,-20 239,-1.06581e-14 293,-3.55271e-15 293,-20"/>
<text text-anchor="middle" x="266" y="-7" font-family="Helvetica,sans-Serif" font-size="10.00">Inherited</text>
</g>
<!-- Node10 -->
<g id="node2" class="node"><title>Node10</title>
<a xlink:href="$classPublicBase.html" xlink:title="PublicBase">
<polygon fill="none" stroke="black" points="66,-88 2.84217e-14,-88 0,-68 66,-68 66,-88"/>
<text text-anchor="middle" x="33" y="-75" font-family="Helvetica,sans-Serif" font-size="10.00">PublicBase</text>
</a>
</g>
<!-- Node10&#45;&gt;Node9 -->
<g id="edge2" class="edge"><title>Node10&#45;&gt;Node9</title>
<path fill="none" stroke="midnightblue" d="M76.0971,-65.4223C123.686,-51.5337 198.849,-29.5977 238.85,-17.9236"/>
<polygon fill="midnightblue" stroke="midnightblue" points="75.0022,-62.0958 66.3832,-68.2573 76.9633,-68.8154 75.0022,-62.0958"/>
</g>
<!-- Node11 -->
<g id="node4" class="node"><title>Node11</title>
<a xlink:href="$classTruncated.html" xlink:title="Truncated">
<polygon fill="none" stroke="red" points="63,-156 3,-156 3,-136 63,-136 63,-156"/>
<text text-anchor="middle" x="33" y="-143" font-family="Helvetica,sans-Serif" font-size="10.00">Truncated</text>
</a>
</g>
<!-- Node11&#45;&gt;Node10 -->
<g id="edge4" class="edge"><title>Node11&#45;&gt;Node10</title>
<path fill="none" stroke="midnightblue" d="M33,-125.633C33,-113.233 33,-97.9332 33,-88.0748"/>
<polygon fill="midnightblue" stroke="midnightblue" points="29.5001,-125.966 33,-135.966 36.5001,-125.966 29.5001,-125.966"/>
</g>
<!-- Node13 -->
<g id="node6" class="node"><title>Node13</title>
<a xlink:href="$classProtectedBase.html" xlink:title="ProtectedBase">
<polygon fill="none" stroke="black" points="166,-88 84,-88 84,-68 166,-68 166,-88"/>
<text text-anchor="middle" x="125" y="-75" font-family="Helvetica,sans-Serif" font-size="10.00">ProtectedBase</text>
</a>
</g>
<!-- Node13&#45;&gt;Node9 -->
<g id="edge6" class="edge"><title>Node13&#45;&gt;Node9</title>
<path fill="none" stroke="darkgreen" d="M154.838,-63.6099C181.941,-50.539 221.226,-31.5931 245.11,-20.0748"/>
<polygon fill="darkgreen" stroke="darkgreen" points="153.292,-60.4699 145.805,-67.9664 156.333,-66.7749 153.292,-60.4699"/>
</g>
<!-- Node14 -->
<g id="node8" class="node"><title>Node14</title>
<a xlink:href="$classPrivateBase.html" xlink:title="PrivateBase">
<polygon fill="none" stroke="black" points="254,-88 184,-88 184,-68 254,-68 254,-88"/>
<text text-anchor="middle" x="219" y="-75" font-family="Helvetica,sans-Serif" font-size="10.00">PrivateBase</text>
</a>
</g>
<!-- Node14&#45;&gt;Node9 -->
<g id="edge8" class="edge"><title>Node14&#45;&gt;Node9</title>
<path fill="none" stroke="#8b1a1a" d="M231.782,-59.5072C240.559,-46.8082 251.875,-30.4362 259.037,-20.0748"/>
<polygon fill="#8b1a1a" stroke="#8b1a1a" points="228.742,-57.75 225.935,-67.9664 234.5,-61.7301 228.742,-57.75"/>
</g>
<!-- Node15 -->
<g id="node10" class="node"><title>Node15</title>
<polygon fill="none" stroke="#bfbfbf" points="356,-88 272,-88 272,-68 356,-68 356,-88"/>
<text text-anchor="middle" x="314" y="-75" font-family="Helvetica,sans-Serif" font-size="10.00">Undocumented</text>
</g>
<!-- Node15&#45;&gt;Node9 -->
<g id="edge10" class="edge"><title>Node15&#45;&gt;Node9</title>
<path fill="none" stroke="midnightblue" d="M300.946,-59.5072C291.982,-46.8082 280.426,-30.4362 273.112,-20.0748"/>
<polygon fill="midnightblue" stroke="midnightblue" points="298.291,-61.8151 306.917,-67.9664 304.01,-57.7783 298.291,-61.8151"/>
</g>
<!-- Node16 -->
<g id="node12" class="node"><title>Node16</title>
<a xlink:href="$classTempl.html" xlink:title="Templ&lt; int &gt;">
<polygon fill="none" stroke="black" points="444,-88 374,-88 374,-68 444,-68 444,-88"/>
<text text-anchor="middle" x="409" y="-75" font-family="Helvetica,sans-Serif" font-size="10.00">Templ&lt; int &gt;</text>
</a>
</g>
<!-- Node16&#45;&gt;Node9 -->
<g id="edge12" class="edge"><title>Node16&#45;&gt;Node9</title>
<path fill="none" stroke="midnightblue" d="M378.738,-63.6099C351.251,-50.539 311.409,-31.5931 287.187,-20.0748"/>
<polygon fill="midnightblue" stroke="midnightblue" points="377.366,-66.8327 387.9,-67.9664 380.372,-60.511 377.366,-66.8327"/>
</g>
<!-- Node17 -->
<g id="node14" class="node"><title>Node17</title>
<a xlink:href="$classTempl.html" xlink:title="Templ&lt; T &gt;">
<polygon fill="none" stroke="black" points="442,-156 376,-156 376,-136 442,-136 442,-156"/>
<text text-anchor="middle" x="409" y="-143" font-family="Helvetica,sans-Serif" font-size="10.00">Templ&lt; T &gt;</text>
</a>
</g>
<!-- Node17&#45;&gt;Node16 -->
<g id="edge14" class="edge"><title>Node17&#45;&gt;Node16</title>
<path fill="none" stroke="orange" stroke-dasharray="5,2" d="M409,-125.633C409,-113.233 409,-97.9332 409,-88.0748"/>
<polygon fill="orange" stroke="orange" points="405.5,-125.966 409,-135.966 412.5,-125.966 405.5,-125.966"/>
<text text-anchor="middle" x="423" y="-109" font-family="Helvetica,sans-Serif" font-size="10.00">&lt; int &gt;</text>
</g>
<!-- Node18 -->
<g id="node16" class="node"><title>Node18</title>
<a xlink:href="$classUsed.html" xlink:title="Used">
<polygon fill="none" stroke="black" points="502,-88 462,-88 462,-68 502,-68 502,-88"/>
<text text-anchor="middle" x="482" y="-75" font-family="Helvetica,sans-Serif" font-size="10.00">Used</text>
</a>
</g>
<!-- Node18&#45;&gt;Node9 -->
<g id="edge16" class="edge"><title>Node18&#45;&gt;Node9</title>
<path fill="none" stroke="#9a32cd" stroke-dasharray="5,2" d="M452.154,-67.7868C389.852,-47.4715 327.681,-28.5321 293.026,-18.0923"/>
<polygon fill="#9a32cd" stroke="#9a32cd" points="451.153,-71.142 461.746,-70.9254 453.33,-64.4891 451.153,-71.142"/>
<text text-anchor="middle" x="426.5" y="-41" font-family="Helvetica,sans-Serif" font-size="10.00">m_usedClass</text>
</g>
</g>
</svg>
