<?xml version="1.0" encoding="UTF-8" standalone="no"?>
<!DOCTYPE svg PUBLIC "-//W3C//DTD SVG 1.1//EN"
 "http://www.w3.org/Graphics/SVG/1.1/DTD/svg11.dtd">
<!-- Generated by graphviz version 2.26.3 (20100126.1600)
 -->
<!-- Title: Graphical Class Hierarchy Pages: 1 -->
<svg width="572pt" height="636pt"
 viewBox="0.00 0.00 572.00 636.00" xmlns="http://www.w3.org/2000/svg" xmlns:xlink="http://www.w3.org/1999/xlink">
<g id="graph1" class="graph" transform="scale(1 1) rotate(0) translate(4 632)">
<title>Graphical Class Hierarchy</title>
<!-- Node1 -->
<g id="node1" class="node"><title>Node1</title>
<a xlink:href="classprt_1_1_attributable.html" target="_top" xlink:title="prt::Attributable">
<polygon fill="none" stroke="black" points="140.5,-589 140.5,-609 225.5,-609 225.5,-589 140.5,-589"/>
<text text-anchor="middle" x="183" y="-596" font-family="Helvetica,sans-Serif" font-size="10.00">prt::Attributable</text>
</a>
</g>
<!-- Node2 -->
<g id="node3" class="node"><title>Node2</title>
<a xlink:href="classprt_1_1_attribute_map.html" target="_top" xlink:title="prt::AttributeMap">
<polygon fill="none" stroke="black" points="314.5,-570 314.5,-590 405.5,-590 405.5,-570 314.5,-570"/>
<text text-anchor="middle" x="360" y="-577" font-family="Helvetica,sans-Serif" font-size="10.00">prt::AttributeMap</text>
</a>
</g>
<!-- Node1&#45;&gt;Node2 -->
<g id="edge2" class="edge"><title>Node1&#45;&gt;Node2</title>
<path fill="none" stroke="midnightblue" d="M235.897,-593.322C260.902,-590.638 290.459,-587.465 314.454,-584.889"/>
<polygon fill="midnightblue" stroke="midnightblue" points="235.416,-589.853 225.847,-594.401 236.163,-596.813 235.416,-589.853"/>
</g>
<!-- Node3 -->
<g id="node5" class="node"><title>Node3</title>
<a xlink:href="classprt_1_1_resolve_map.html" target="_top" xlink:title="prt::ResolveMap">
<polygon fill="none" stroke="black" points="315.5,-608 315.5,-628 404.5,-628 404.5,-608 315.5,-608"/>
<text text-anchor="middle" x="360" y="-615" font-family="Helvetica,sans-Serif" font-size="10.00">prt::ResolveMap</text>
</a>
</g>
<!-- Node1&#45;&gt;Node3 -->
<g id="edge4" class="edge"><title>Node1&#45;&gt;Node3</title>
<path fill="none" stroke="midnightblue" d="M236.015,-604.691C261.322,-607.407 291.268,-610.622 315.389,-613.211"/>
<polygon fill="midnightblue" stroke="midnightblue" points="236.163,-601.187 225.847,-603.599 235.416,-608.147 236.163,-601.187"/>
</g>
<!-- Node4 -->
<g id="node7" class="node"><title>Node4</title>
<a xlink:href="classprtx_1_1_resolve_map.html" target="_top" xlink:title="prtx::ResolveMap">
<polygon fill="none" stroke="black" points="468.5,-608 468.5,-628 563.5,-628 563.5,-608 468.5,-608"/>
<text text-anchor="middle" x="516" y="-615" font-family="Helvetica,sans-Serif" font-size="10.00">prtx::ResolveMap</text>
</a>
</g>
<!-- Node3&#45;&gt;Node4 -->
<g id="edge6" class="edge"><title>Node3&#45;&gt;Node4</title>
<path fill="none" stroke="midnightblue" d="M414.754,-618C432.211,-618 451.377,-618 468.293,-618"/>
<polygon fill="midnightblue" stroke="midnightblue" points="414.703,-614.5 404.703,-618 414.703,-621.5 414.703,-614.5"/>
</g>
<!-- Node5 -->
<g id="node8" class="node"><title>Node5</title>
<a xlink:href="classprt_1_1_cache.html" target="_top" xlink:title="prt::Cache">
<polygon fill="none" stroke="black" points="151.5,-532 151.5,-552 214.5,-552 214.5,-532 151.5,-532"/>
<text text-anchor="middle" x="183" y="-539" font-family="Helvetica,sans-Serif" font-size="10.00">prt::Cache</text>
</a>
</g>
<!-- Node6 -->
<g id="node10" class="node"><title>Node6</title>
<a xlink:href="classprt_1_1_cache_object.html" target="_top" xlink:title="prt::CacheObject">
<polygon fill="none" stroke="black" points="314,-532 314,-552 406,-552 406,-532 314,-532"/>
<text text-anchor="middle" x="360" y="-539" font-family="Helvetica,sans-Serif" font-size="10.00">prt::CacheObject</text>
</a>
</g>
<!-- Node5&#45;&gt;Node6 -->
<g id="edge8" class="edge"><title>Node5&#45;&gt;Node6</title>
<path fill="none" stroke="midnightblue" d="M224.856,-542C251.647,-542 286.424,-542 313.99,-542"/>
<polygon fill="midnightblue" stroke="midnightblue" points="224.644,-538.5 214.644,-542 224.644,-545.5 224.644,-538.5"/>
</g>
<!-- Node7 -->
<g id="node11" class="node"><title>Node7</title>
<a xlink:href="classprt_1_1_callbacks.html" target="_top" xlink:title="prt::Callbacks">
<polygon fill="none" stroke="black" points="0.5,-475 0.5,-495 77.5,-495 77.5,-475 0.5,-475"/>
<text text-anchor="middle" x="39" y="-482" font-family="Helvetica,sans-Serif" font-size="10.00">prt::Callbacks</text>
</a>
</g>
<!-- Node8 -->
<g id="node13" class="node"><title>Node8</title>
<a xlink:href="classprt_1_1_simple_output_callbacks.html" target="_top" xlink:title="prt::SimpleOutputCallbacks">
<polygon fill="none" stroke="black" points="114,-475 114,-495 252,-495 252,-475 114,-475"/>
<text text-anchor="middle" x="183" y="-482" font-family="Helvetica,sans-Serif" font-size="10.00">prt::SimpleOutputCallbacks</text>
</a>
</g>
<!-- Node7&#45;&gt;Node8 -->
<g id="edge10" class="edge"><title>Node7&#45;&gt;Node8</title>
<path fill="none" stroke="midnightblue" d="M87.857,-485C96.1891,-485 104.984,-485 113.725,-485"/>
<polygon fill="midnightblue" stroke="midnightblue" points="87.5894,-481.5 77.5894,-485 87.5893,-488.5 87.5894,-481.5"/>
</g>
<!-- Node9 -->
<g id="node15" class="node"><title>Node9</title>
<a xlink:href="classprt_1_1_file_output_callbacks.html" target="_top" xlink:title="prt::FileOutputCallbacks">
<polygon fill="none" stroke="black" points="298.5,-456 298.5,-476 421.5,-476 421.5,-456 298.5,-456"/>
<text text-anchor="middle" x="360" y="-463" font-family="Helvetica,sans-Serif" font-size="10.00">prt::FileOutputCallbacks</text>
</a>
</g>
<!-- Node8&#45;&gt;Node9 -->
<g id="edge12" class="edge"><title>Node8&#45;&gt;Node9</title>
<path fill="none" stroke="midnightblue" d="M262.278,-476.49C274.373,-475.192 286.7,-473.868 298.342,-472.619"/>
<polygon fill="midnightblue" stroke="midnightblue" points="261.763,-473.025 252.193,-477.572 262.51,-479.985 261.763,-473.025"/>
</g>
<!-- Node10 -->
<g id="node17" class="node"><title>Node10</title>
<a xlink:href="classprt_1_1_memory_output_callbacks.html" target="_top" xlink:title="prt::MemoryOutputCallbacks">
<polygon fill="none" stroke="black" points="288,-494 288,-514 432,-514 432,-494 288,-494"/>
<text text-anchor="middle" x="360" y="-501" font-family="Helvetica,sans-Serif" font-size="10.00">prt::MemoryOutputCallbacks</text>
</a>
</g>
<!-- Node8&#45;&gt;Node10 -->
<g id="edge14" class="edge"><title>Node8&#45;&gt;Node10</title>
<path fill="none" stroke="midnightblue" d="M262.186,-493.5C270.76,-494.421 279.453,-495.354 287.937,-496.264"/>
<polygon fill="midnightblue" stroke="midnightblue" points="262.51,-490.015 252.193,-492.428 261.763,-496.975 262.51,-490.015"/>
</g>
<!-- Node11 -->
<g id="node18" class="node"><title>Node11</title>
<a xlink:href="classprt_1_1_log_handler.html" target="_top" xlink:title="prt::LogHandler">
<polygon fill="none" stroke="black" points="140,-399 140,-419 226,-419 226,-399 140,-399"/>
<text text-anchor="middle" x="183" y="-406" font-family="Helvetica,sans-Serif" font-size="10.00">prt::LogHandler</text>
</a>
</g>
<!-- Node12 -->
<g id="node20" class="node"><title>Node12</title>
<a xlink:href="classprt_1_1_console_log_handler.html" target="_top" xlink:title="prt::ConsoleLogHandler">
<polygon fill="none" stroke="black" points="299,-380 299,-400 421,-400 421,-380 299,-380"/>
<text text-anchor="middle" x="360" y="-387" font-family="Helvetica,sans-Serif" font-size="10.00">prt::ConsoleLogHandler</text>
</a>
</g>
<!-- Node11&#45;&gt;Node12 -->
<g id="edge16" class="edge"><title>Node11&#45;&gt;Node12</title>
<path fill="none" stroke="midnightblue" d="M236.311,-403.277C255.991,-401.165 278.443,-398.755 298.768,-396.573"/>
<polygon fill="midnightblue" stroke="midnightblue" points="235.868,-399.805 226.299,-404.352 236.616,-406.765 235.868,-399.805"/>
</g>
<!-- Node13 -->
<g id="node22" class="node"><title>Node13</title>
<a xlink:href="classprt_1_1_file_log_handler.html" target="_top" xlink:title="prt::FileLogHandler">
<polygon fill="none" stroke="black" points="309.5,-418 309.5,-438 410.5,-438 410.5,-418 309.5,-418"/>
<text text-anchor="middle" x="360" y="-425" font-family="Helvetica,sans-Serif" font-size="10.00">prt::FileLogHandler</text>
</a>
</g>
<!-- Node11&#45;&gt;Node13 -->
<g id="edge18" class="edge"><title>Node11&#45;&gt;Node13</title>
<path fill="none" stroke="midnightblue" d="M236.3,-414.721C259.453,-417.207 286.447,-420.105 309.3,-422.558"/>
<polygon fill="midnightblue" stroke="midnightblue" points="236.616,-411.235 226.299,-413.648 235.868,-418.195 236.616,-411.235"/>
</g>
<!-- Node14 -->
<g id="node23" class="node"><title>Node14</title>
<a xlink:href="classprt_1_1_object.html" target="_top" xlink:title="prt::Object">
<polygon fill="none" stroke="black" points="151.5,-304 151.5,-324 214.5,-324 214.5,-304 151.5,-304"/>
<text text-anchor="middle" x="183" y="-311" font-family="Helvetica,sans-Serif" font-size="10.00">prt::Object</text>
</a>
</g>
<!-- Node14&#45;&gt;Node2 -->
<g id="edge24" class="edge"><title>Node14&#45;&gt;Node2</title>
<path fill="none" stroke="midnightblue" d="M203.29,-330.821C219.008,-344.981 240.055,-366.62 252,-390 287.335,-459.162 234.486,-504.713 288,-561 295.037,-568.402 304.587,-573.045 314.43,-575.926"/>
<polygon fill="midnightblue" stroke="midnightblue" points="205.466,-328.074 195.633,-324.128 200.859,-333.345 205.466,-328.074"/>
</g>
<!-- Node14&#45;&gt;Node3 -->
<g id="edge50" class="edge"><title>Node14&#45;&gt;Node3</title>
<path fill="none" stroke="midnightblue" d="M203.524,-330.704C219.376,-344.797 240.489,-366.404 252,-390 293.326,-474.714 224.327,-529.501 288,-599 295.161,-606.816 305.122,-611.575 315.354,-614.432"/>
<polygon fill="midnightblue" stroke="midnightblue" points="205.655,-327.92 195.793,-324.048 201.088,-333.225 205.655,-327.92"/>
</g>
<!-- Node14&#45;&gt;Node6 -->
<g id="edge28" class="edge"><title>Node14&#45;&gt;Node6</title>
<path fill="none" stroke="midnightblue" d="M202.665,-330.763C218.205,-345.026 239.323,-366.836 252,-390 281.4,-443.72 244.561,-479.835 288,-523 295.061,-530.017 304.388,-534.531 313.98,-537.414"/>
<polygon fill="midnightblue" stroke="midnightblue" points="204.911,-328.076 195.121,-324.025 200.248,-333.297 204.911,-328.076"/>
</g>
<!-- Node14&#45;&gt;Node9 -->
<g id="edge38" class="edge"><title>Node14&#45;&gt;Node9</title>
<path fill="none" stroke="midnightblue" d="M200.808,-331.806C215.327,-346.736 235.979,-368.936 252,-390 270.139,-413.849 263.838,-429.281 288,-447 292.9,-450.593 298.427,-453.507 304.187,-455.871"/>
<polygon fill="midnightblue" stroke="midnightblue" points="202.947,-328.99 193.441,-324.313 197.956,-333.898 202.947,-328.99"/>
</g>
<!-- Node14&#45;&gt;Node10 -->
<g id="edge46" class="edge"><title>Node14&#45;&gt;Node10</title>
<path fill="none" stroke="midnightblue" d="M201.808,-330.859C217.023,-345.32 238.126,-367.355 252,-390 275.589,-428.501 254.453,-454.779 288,-485 292.034,-488.634 296.683,-491.587 301.635,-493.985"/>
<polygon fill="midnightblue" stroke="midnightblue" points="204.165,-328.271 194.459,-324.024 199.398,-333.397 204.165,-328.271"/>
</g>
<!-- Node14&#45;&gt;Node12 -->
<g id="edge30" class="edge"><title>Node14&#45;&gt;Node12</title>
<path fill="none" stroke="midnightblue" d="M207.575,-329.537C228.351,-342.127 259.242,-359.591 288,-371 296.652,-374.432 306.133,-377.437 315.291,-379.983"/>
<polygon fill="midnightblue" stroke="midnightblue" points="209.137,-326.389 198.785,-324.134 205.472,-332.352 209.137,-326.389"/>
</g>
<!-- Node14&#45;&gt;Node13 -->
<g id="edge36" class="edge"><title>Node14&#45;&gt;Node13</title>
<path fill="none" stroke="midnightblue" d="M197.73,-331.739C216.502,-353.199 250.986,-388.936 288,-409 294.592,-412.573 301.893,-415.503 309.243,-417.897"/>
<polygon fill="midnightblue" stroke="midnightblue" points="200.279,-329.336 191.115,-324.018 194.963,-333.89 200.279,-329.336"/>
</g>
<!-- Node15 -->
<g id="node25" class="node"><title>Node15</title>
<a xlink:href="classprt_1_1_annotation.html" target="_top" xlink:title="prt::Annotation">
<polygon fill="none" stroke="black" points="319,-304 319,-324 401,-324 401,-304 319,-304"/>
<text text-anchor="middle" x="360" y="-311" font-family="Helvetica,sans-Serif" font-size="10.00">prt::Annotation</text>
</a>
</g>
<!-- Node14&#45;&gt;Node15 -->
<g id="edge20" class="edge"><title>Node14&#45;&gt;Node15</title>
<path fill="none" stroke="midnightblue" d="M224.682,-314C253.132,-314 290.647,-314 318.96,-314"/>
<polygon fill="midnightblue" stroke="midnightblue" points="224.644,-310.5 214.644,-314 224.644,-317.5 224.644,-310.5"/>
</g>
<!-- Node16 -->
<g id="node27" class="node"><title>Node16</title>
<a xlink:href="classprt_1_1_annotation_argument.html" target="_top" xlink:title="prt::AnnotationArgument">
<polygon fill="none" stroke="black" points="297.5,-266 297.5,-286 422.5,-286 422.5,-266 297.5,-266"/>
<text text-anchor="middle" x="360" y="-273" font-family="Helvetica,sans-Serif" font-size="10.00">prt::AnnotationArgument</text>
</a>
</g>
<!-- Node14&#45;&gt;Node16 -->
<g id="edge22" class="edge"><title>Node14&#45;&gt;Node16</title>
<path fill="none" stroke="midnightblue" d="M224.426,-305.106C251.057,-299.389 285.71,-291.949 313.314,-286.023"/>
<polygon fill="midnightblue" stroke="midnightblue" points="223.687,-301.685 214.644,-307.206 225.156,-308.529 223.687,-301.685"/>
</g>
<!-- Node17 -->
<g id="node30" class="node"><title>Node17</title>
<a xlink:href="classprt_1_1_attribute_map_builder.html" target="_top" xlink:title="prt::AttributeMapBuilder">
<polygon fill="none" stroke="black" points="299,-228 299,-248 421,-248 421,-228 299,-228"/>
<text text-anchor="middle" x="360" y="-235" font-family="Helvetica,sans-Serif" font-size="10.00">prt::AttributeMapBuilder</text>
</a>
</g>
<!-- Node14&#45;&gt;Node17 -->
<g id="edge26" class="edge"><title>Node14&#45;&gt;Node17</title>
<path fill="none" stroke="midnightblue" d="M207.575,-298.463C228.351,-285.873 259.242,-268.409 288,-257 296.652,-253.568 306.133,-250.563 315.291,-248.017"/>
<polygon fill="midnightblue" stroke="midnightblue" points="205.472,-295.648 198.785,-303.866 209.137,-301.611 205.472,-295.648"/>
</g>
<!-- Node18 -->
<g id="node34" class="node"><title>Node18</title>
<a xlink:href="classprt_1_1_decoder_info.html" target="_top" xlink:title="prt::DecoderInfo">
<polygon fill="none" stroke="black" points="315.5,-190 315.5,-210 404.5,-210 404.5,-190 315.5,-190"/>
<text text-anchor="middle" x="360" y="-197" font-family="Helvetica,sans-Serif" font-size="10.00">prt::DecoderInfo</text>
</a>
</g>
<!-- Node14&#45;&gt;Node18 -->
<g id="edge32" class="edge"><title>Node14&#45;&gt;Node18</title>
<path fill="none" stroke="midnightblue" d="M197.73,-296.261C216.502,-274.801 250.986,-239.064 288,-219 296.411,-214.441 305.975,-210.93 315.323,-208.242"/>
<polygon fill="midnightblue" stroke="midnightblue" points="194.963,-294.11 191.115,-303.982 200.279,-298.664 194.963,-294.11"/>
</g>
<!-- Node19 -->
<g id="node36" class="node"><title>Node19</title>
<a xlink:href="classprt_1_1_encoder_info.html" target="_top" xlink:title="prt::EncoderInfo">
<polygon fill="none" stroke="black" points="316,-152 316,-172 404,-172 404,-152 316,-152"/>
<text text-anchor="middle" x="360" y="-159" font-family="Helvetica,sans-Serif" font-size="10.00">prt::EncoderInfo</text>
</a>
</g>
<!-- Node14&#45;&gt;Node19 -->
<g id="edge34" class="edge"><title>Node14&#45;&gt;Node19</title>
<path fill="none" stroke="midnightblue" d="M192.896,-294.677C208.86,-265.485 243.102,-210.432 288,-181 296.325,-175.543 306.156,-171.649 315.834,-168.873"/>
<polygon fill="midnightblue" stroke="midnightblue" points="189.629,-293.367 188.024,-303.839 195.809,-296.653 189.629,-293.367"/>
</g>
<!-- Node20 -->
<g id="node40" class="node"><title>Node20</title>
<a xlink:href="classprt_1_1_initial_shape.html" target="_top" xlink:title="prt::InitialShape">
<polygon fill="none" stroke="black" points="317,-114 317,-134 403,-134 403,-114 317,-114"/>
<text text-anchor="middle" x="360" y="-121" font-family="Helvetica,sans-Serif" font-size="10.00">prt::InitialShape</text>
</a>
</g>
<!-- Node14&#45;&gt;Node20 -->
<g id="edge40" class="edge"><title>Node14&#45;&gt;Node20</title>
<path fill="none" stroke="midnightblue" d="M189.681,-293.813C202.662,-257.798 234.784,-182.544 288,-143 296.405,-136.754 306.699,-132.559 316.846,-129.741"/>
<polygon fill="midnightblue" stroke="midnightblue" points="186.24,-293.052 186.264,-303.647 192.852,-295.349 186.24,-293.052"/>
</g>
<!-- Node22 -->
<g id="node44" class="node"><title>Node22</title>
<a xlink:href="classprt_1_1_initial_shape_builder.html" target="_top" xlink:title="prt::InitialShapeBuilder">
<polygon fill="none" stroke="black" points="301.5,-76 301.5,-96 418.5,-96 418.5,-76 301.5,-76"/>
<text text-anchor="middle" x="360" y="-83" font-family="Helvetica,sans-Serif" font-size="10.00">prt::InitialShapeBuilder</text>
</a>
</g>
<!-- Node14&#45;&gt;Node22 -->
<g id="edge44" class="edge"><title>Node14&#45;&gt;Node22</title>
<path fill="none" stroke="midnightblue" d="M187.207,-294.076C197.082,-252.353 225.765,-155.494 288,-105 292.417,-101.416 297.443,-98.5029 302.738,-96.1356"/>
<polygon fill="midnightblue" stroke="midnightblue" points="183.785,-293.342 185,-303.867 190.614,-294.882 183.785,-293.342"/>
</g>
<!-- Node23 -->
<g id="node47" class="node"><title>Node23</title>
<a xlink:href="classprt_1_1_occlusion_set.html" target="_top" xlink:title="prt::OcclusionSet">
<polygon fill="none" stroke="black" points="313.5,-38 313.5,-58 406.5,-58 406.5,-38 313.5,-38"/>
<text text-anchor="middle" x="360" y="-45" font-family="Helvetica,sans-Serif" font-size="10.00">prt::OcclusionSet</text>
</a>
</g>
<!-- Node14&#45;&gt;Node23 -->
<g id="edge48" class="edge"><title>Node14&#45;&gt;Node23</title>
<path fill="none" stroke="midnightblue" d="M185.56,-293.788C192.635,-246.605 216.881,-128.553 288,-67 295.136,-60.8239 304.057,-56.6252 313.164,-53.7783"/>
<polygon fill="midnightblue" stroke="midnightblue" points="182.059,-293.554 184.143,-303.942 188.992,-294.521 182.059,-293.554"/>
</g>
<!-- Node24 -->
<g id="node50" class="node"><title>Node24</title>
<a xlink:href="classprt_1_1_resolve_map_builder.html" target="_top" xlink:title="prt::ResolveMapBuilder">
<polygon fill="none" stroke="black" points="300,-0 300,-20 420,-20 420,-0 300,-0"/>
<text text-anchor="middle" x="360" y="-7" font-family="Helvetica,sans-Serif" font-size="10.00">prt::ResolveMapBuilder</text>
</a>
</g>
<!-- Node14&#45;&gt;Node24 -->
<g id="edge52" class="edge"><title>Node14&#45;&gt;Node24</title>
<path fill="none" stroke="midnightblue" d="M184.289,-293.585C188.716,-241.357 207.841,-101.885 288,-29 291.922,-25.4342 296.434,-22.5232 301.247,-20.1487"/>
<polygon fill="midnightblue" stroke="midnightblue" points="180.775,-293.637 183.516,-303.871 187.755,-294.161 180.775,-293.637"/>
</g>
<!-- Node25 -->
<g id="node52" class="node"><title>Node25</title>
<a xlink:href="classprt_1_1_rule_file_info.html" target="_top" xlink:title="prt::RuleFileInfo">
<polygon fill="none" stroke="black" points="316.5,-342 316.5,-362 403.5,-362 403.5,-342 316.5,-342"/>
<text text-anchor="middle" x="360" y="-349" font-family="Helvetica,sans-Serif" font-size="10.00">prt::RuleFileInfo</text>
</a>
</g>
<!-- Node14&#45;&gt;Node25 -->
<g id="edge54" class="edge"><title>Node14&#45;&gt;Node25</title>
<path fill="none" stroke="midnightblue" d="M224.76,-322.965C252.328,-328.884 288.382,-336.624 316.331,-342.625"/>
<polygon fill="midnightblue" stroke="midnightblue" points="225.156,-319.471 214.644,-320.794 223.687,-326.315 225.156,-319.471"/>
</g>
<!-- Node21 -->
<g id="node42" class="node"><title>Node21</title>
<a xlink:href="classprtx_1_1_initial_shape.html" target="_top" xlink:title="prtx::InitialShape">
<polygon fill="none" stroke="black" points="470,-114 470,-134 562,-134 562,-114 470,-114"/>
<text text-anchor="middle" x="516" y="-121" font-family="Helvetica,sans-Serif" font-size="10.00">prtx::InitialShape</text>
</a>
</g>
<!-- Node20&#45;&gt;Node21 -->
<g id="edge42" class="edge"><title>Node20&#45;&gt;Node21</title>
<path fill="none" stroke="midnightblue" d="M413.294,-124C431.663,-124 452.07,-124 469.823,-124"/>
<polygon fill="midnightblue" stroke="midnightblue" points="413.041,-120.5 403.041,-124 413.041,-127.5 413.041,-120.5"/>
</g>
</g>
</svg>
