<?xml version="1.0" encoding="UTF-8" standalone="no"?>
<!DOCTYPE svg PUBLIC "-//W3C//DTD SVG 1.1//EN"
 "http://www.w3.org/Graphics/SVG/1.1/DTD/svg11.dtd">
<!-- Generated by graphviz version 2.26.3 (20100126.1600)
 -->
<!-- Title: Graphical Class Hierarchy Pages: 1 -->
<svg width="288pt" height="294pt"
 viewBox="0.00 0.00 288.00 294.00" xmlns="http://www.w3.org/2000/svg" xmlns:xlink="http://www.w3.org/1999/xlink">
<g id="graph1" class="graph" transform="scale(1 1) rotate(0) translate(4 290)">
<title>Graphical Class Hierarchy</title>
<!-- Node1 -->
<g id="node1" class="node"><title>Node1</title>
<a xlink:href="classprtx_1_1_shape_iterator.html" target="_top" xlink:title="prtx::ShapeIterator">
<polygon fill="none" stroke="black" points="0,-133 0,-153 100,-153 100,-133 0,-133"/>
<text text-anchor="middle" x="50" y="-140" font-family="Helvetica,sans-Serif" font-size="10.00">prtx::ShapeIterator</text>
</a>
</g>
<!-- Node2 -->
<g id="node3" class="node"><title>Node2</title>
<a xlink:href="classprtx_1_1_breadth_first_iterator.html" target="_top" xlink:title="prtx::BreadthFirstIterator">
<polygon fill="none" stroke="black" points="145,-266 145,-286 271,-286 271,-266 145,-266"/>
<text text-anchor="middle" x="208" y="-273" font-family="Helvetica,sans-Serif" font-size="10.00">prtx::BreadthFirstIterator</text>
</a>
</g>
<!-- Node1&#45;&gt;Node2 -->
<g id="edge2" class="edge"><title>Node1&#45;&gt;Node2</title>
<path fill="none" stroke="midnightblue" d="M59.2052,-162.07C72.5371,-187.63 99.6578,-232.601 136,-257 141.367,-260.603 147.384,-263.523 153.592,-265.89"/>
<polygon fill="midnightblue" stroke="midnightblue" points="62.2643,-160.363 54.6357,-153.011 56.0144,-163.516 62.2643,-160.363"/>
</g>
<!-- Node3 -->
<g id="node5" class="node"><title>Node3</title>
<a xlink:href="classprtx_1_1_c_g_a_error_iterator.html" target="_top" xlink:title="prtx::CGAErrorIterator">
<polygon fill="none" stroke="black" points="150.5,-228 150.5,-248 265.5,-248 265.5,-228 150.5,-228"/>
<text text-anchor="middle" x="208" y="-235" font-family="Helvetica,sans-Serif" font-size="10.00">prtx::CGAErrorIterator</text>
</a>
</g>
<!-- Node1&#45;&gt;Node3 -->
<g id="edge4" class="edge"><title>Node1&#45;&gt;Node3</title>
<path fill="none" stroke="midnightblue" d="M65.3964,-160.758C81.3712,-178.092 107.912,-203.986 136,-219 142.727,-222.596 150.177,-225.543 157.661,-227.95"/>
<polygon fill="midnightblue" stroke="midnightblue" points="67.7303,-158.118 58.4424,-153.021 62.5242,-162.798 67.7303,-158.118"/>
</g>
<!-- Node4 -->
<g id="node7" class="node"><title>Node4</title>
<a xlink:href="classprtx_1_1_c_g_a_print_iterator.html" target="_top" xlink:title="prtx::CGAPrintIterator">
<polygon fill="none" stroke="black" points="151.5,-190 151.5,-210 264.5,-210 264.5,-190 151.5,-190"/>
<text text-anchor="middle" x="208" y="-197" font-family="Helvetica,sans-Serif" font-size="10.00">prtx::CGAPrintIterator</text>
</a>
</g>
<!-- Node1&#45;&gt;Node4 -->
<g id="edge6" class="edge"><title>Node1&#45;&gt;Node4</title>
<path fill="none" stroke="midnightblue" d="M79.56,-157.449C95.938,-165.1 116.813,-174.277 136,-181 145.394,-184.292 155.651,-187.322 165.402,-189.951"/>
<polygon fill="midnightblue" stroke="midnightblue" points="81.0191,-154.268 70.4833,-153.151 78.0231,-160.594 81.0191,-154.268"/>
</g>
<!-- Node5 -->
<g id="node9" class="node"><title>Node5</title>
<a xlink:href="classprtx_1_1_c_g_a_report_iterator.html" target="_top" xlink:title="prtx::CGAReportIterator">
<polygon fill="none" stroke="black" points="146.5,-152 146.5,-172 269.5,-172 269.5,-152 146.5,-152"/>
<text text-anchor="middle" x="208" y="-159" font-family="Helvetica,sans-Serif" font-size="10.00">prtx::CGAReportIterator</text>
</a>
</g>
<!-- Node1&#45;&gt;Node5 -->
<g id="edge8" class="edge"><title>Node1&#45;&gt;Node5</title>
<path fill="none" stroke="midnightblue" d="M110.575,-150.284C122.325,-151.697 134.65,-153.179 146.431,-154.596"/>
<polygon fill="midnightblue" stroke="midnightblue" points="110.773,-146.783 100.427,-149.064 109.937,-153.733 110.773,-146.783"/>
</g>
<!-- Node6 -->
<g id="node11" class="node"><title>Node6</title>
<a xlink:href="classprtx_1_1_depth_first_iterator.html" target="_top" xlink:title="prtx::DepthFirstIterator">
<polygon fill="none" stroke="black" points="149.5,-114 149.5,-134 266.5,-134 266.5,-114 149.5,-114"/>
<text text-anchor="middle" x="208" y="-121" font-family="Helvetica,sans-Serif" font-size="10.00">prtx::DepthFirstIterator</text>
</a>
</g>
<!-- Node1&#45;&gt;Node6 -->
<g id="edge10" class="edge"><title>Node1&#45;&gt;Node6</title>
<path fill="none" stroke="midnightblue" d="M110.457,-135.73C123.179,-134.2 136.581,-132.588 149.24,-131.066"/>
<polygon fill="midnightblue" stroke="midnightblue" points="109.937,-132.267 100.427,-136.936 110.773,-139.217 109.937,-132.267"/>
</g>
<!-- Node7 -->
<g id="node13" class="node"><title>Node7</title>
<a xlink:href="classprtx_1_1_initial_shape_iterator.html" target="_top" xlink:title="prtx::InitialShapeIterator">
<polygon fill="none" stroke="black" points="146.5,-76 146.5,-96 269.5,-96 269.5,-76 146.5,-76"/>
<text text-anchor="middle" x="208" y="-83" font-family="Helvetica,sans-Serif" font-size="10.00">prtx::InitialShapeIterator</text>
</a>
</g>
<!-- Node1&#45;&gt;Node7 -->
<g id="edge12" class="edge"><title>Node1&#45;&gt;Node7</title>
<path fill="none" stroke="midnightblue" d="M79.56,-128.551C95.938,-120.9 116.813,-111.723 136,-105 145.394,-101.708 155.651,-98.6776 165.402,-96.049"/>
<polygon fill="midnightblue" stroke="midnightblue" points="78.0231,-125.406 70.4833,-132.849 81.0191,-131.732 78.0231,-125.406"/>
</g>
<!-- Node8 -->
<g id="node15" class="node"><title>Node8</title>
<a xlink:href="classprtx_1_1_leaf_iterator.html" target="_top" xlink:title="prtx::LeafIterator">
<polygon fill="none" stroke="black" points="162.5,-38 162.5,-58 253.5,-58 253.5,-38 162.5,-38"/>
<text text-anchor="middle" x="208" y="-45" font-family="Helvetica,sans-Serif" font-size="10.00">prtx::LeafIterator</text>
</a>
</g>
<!-- Node1&#45;&gt;Node8 -->
<g id="edge14" class="edge"><title>Node1&#45;&gt;Node8</title>
<path fill="none" stroke="midnightblue" d="M65.3964,-125.242C81.3712,-107.908 107.912,-82.0137 136,-67 144.095,-62.6731 153.238,-59.2848 162.225,-56.6473"/>
<polygon fill="midnightblue" stroke="midnightblue" points="62.5242,-123.202 58.4424,-132.979 67.7303,-127.882 62.5242,-123.202"/>
</g>
<!-- Node9 -->
<g id="node17" class="node"><title>Node9</title>
<a xlink:href="classprtx_1_1_selected_shapes_iterator.html" target="_top" xlink:title="prtx::SelectedShapesIterator">
<polygon fill="none" stroke="black" points="136,-0 136,-20 280,-20 280,-0 136,-0"/>
<text text-anchor="middle" x="208" y="-7" font-family="Helvetica,sans-Serif" font-size="10.00">prtx::SelectedShapesIterator</text>
</a>
</g>
<!-- Node1&#45;&gt;Node9 -->
<g id="edge16" class="edge"><title>Node1&#45;&gt;Node9</title>
<path fill="none" stroke="midnightblue" d="M59.2052,-123.93C72.5371,-98.37 99.6578,-53.399 136,-29 141.367,-25.397 147.384,-22.4766 153.592,-20.1097"/>
<polygon fill="midnightblue" stroke="midnightblue" points="56.0144,-122.484 54.6357,-132.989 62.2643,-125.637 56.0144,-122.484"/>
</g>
</g>
</svg>
